<?xml version="1.0" encoding="utf-8"?>
<svg viewBox="-0.007 0.204 250 250" xmlns="http://www.w3.org/2000/svg">
  <rect x="0" y="0" width="250" height="250" style="fill: rgb(238, 240, 214);"/>
  <g data-image="07898" transform="matrix(0.681998, -0.731354, 0.731354, 0.681998, -67.262001, 6.640646)">
    <g>
      <svg version="1.1" width="66.48308055437865px" height="66.48308055437863px" viewBox="0 0 66.48308055437865 66.48308055437863">
        <g>
          <svg xmlns="http://www.w3.org/2000/svg" viewBox="0 0 400 400" version="1.1" preserveAspectRatio="xMidYMid meet">
            <circle cx="201.6" cy="173.8" r="6.4" fill="rgba(221, 198, 89, 1)" stroke="none"/>
            <circle cx="201.6" cy="196" r="6.4" fill="rgba(221, 198, 89, 1)" stroke="none"/>
            <circle cx="201.6" cy="216.7" r="6.4" fill="rgba(221, 198, 89, 1)" stroke="none"/>
            <circle cx="217.2" cy="90" r="6" fill="rgba(221, 198, 89, 1)" stroke="none"/>
            <circle cx="184" cy="90" r="6" fill="rgba(221, 198, 89, 1)" stroke="none"/>
            <path d="M217.2 103c-2.8 0-5 2.2-5 5 0 6.4-5.2 11.6-11.6 11.6-6.4 0-11.6-5.2-11.6-11.6 0-2.8-2.2-5-5-5s-5 2.2-5 5c0 11.9 9.7 21.6 21.6 21.6 11.9 0 21.6-9.7 21.6-21.6 0-2.7-2.2-5-5-5z" fill="rgba(221, 198, 89, 1)" stroke="none"/>
            <path d="M263.7 146.3h-31.2c12.6-9.6 20-24.5 20-40.8 0-28.4-23.1-51.5-51.5-51.5s-51.5 23.1-51.5 51.5c0 16 7.6 31.1 20.1 40.8h-34.1c-15.1 0-27.4 12.3-27.4 27.4 0 15.1 12.3 27.4 27.4 27.4h20.6l-17.9 111.3c-1.2 7.2.6 14.4 4.9 20.4 4.3 5.9 10.6 9.8 17.8 11 7.2 1.2 14.4-.6 20.4-4.9 5.9-4.3 9.8-10.6 11-17.8l7.6-47.1 7.6 47.1c1.2 7.2 5.1 13.5 11 17.8 4.7 3.4 10.3 5.2 16 5.2 1.5 0 2.9-.1 4.4-.4 7.2-1.2 13.5-5.1 17.8-11 4.3-5.9 6-13.2 4.9-20.4l-1.1-6.6c0-.3 0-.6-.1-.8 0-.2-.1-.4-.2-.6L243.6 201h20c15.1 0 27.4-12.3 27.4-27.4 0-15-12.2-27.3-27.3-27.3zm-145.5 27.4c0-8.1 5.6-14.9 13.1-16.8v33.6c-7.6-1.9-13.1-8.7-13.1-16.8zm57.2 157.1c-3.8 2.7-8.4 3.8-12.9 3.1-4.6-.7-8.6-3.2-11.3-7-2.7-3.8-3.8-8.4-3.1-12.9l.5-3.1 34.2 6.2-.4 2.4c-.7 4.5-3.2 8.5-7 11.3zm73.1-3.9c-2.7 3.8-6.7 6.3-11.3 7-4.6.7-9.1-.4-12.9-3.1-3.8-2.7-6.3-6.7-7-11.3l-.3-1.6 34.2-6.2.4 2.3c.7 4.5-.4 9.1-3.1 12.9zm-15.7-130.1l16.9 105-34.2 6.2-10.7-66.3c-.4-2.4-2.5-4.2-4.9-4.2-2.5 0-4.5 1.8-4.9 4.2l-10.5 65.5-34.2-6.2L167 196.8c.2-1.4-.2-2.9-1.1-4-.9-1.1-2.3-1.8-3.8-1.8h-20.8v-34.7h36c2.8 0 5-2.2 5-5v-5.8c0-1.8-.9-3.4-2.4-4.3-12.5-7.5-20.3-21.1-20.3-35.7 0-22.9 18.6-41.5 41.5-41.5s41.5 18.6 41.5 41.5c0 15.8-8.8 30-23 37.1-1.7.8-2.8 2.6-2.8 4.5v4.2c0 2.8 2.2 5 5 5h35.5V191h-19.5c-1.5 0-2.9.6-3.8 1.8-1 1.1-1.5 2.6-1.2 4zm34.4-6.1v-34c7.9 1.6 13.8 8.6 13.8 17 0 8.3-5.9 15.3-13.8 17z" stroke="none" style="fill: rgb(229, 221, 180);"/>
          </svg>
        </g>
      </svg>
    </g>
  </g>
  <g data-image="07898" transform="matrix(0.681998, -0.731354, 0.731354, 0.681998, 182.737991, 6.640646)">
    <g>
      <svg version="1.1" width="66.48308055437865px" height="66.48308055437863px" viewBox="0 0 66.48308055437865 66.48308055437863">
        <g>
          <svg xmlns="http://www.w3.org/2000/svg" viewBox="0 0 400 400" version="1.1" preserveAspectRatio="xMidYMid meet">
            <circle cx="201.6" cy="173.8" r="6.4" stroke="none" style="fill: rgb(229, 221, 180);"/>
            <circle cx="201.6" cy="196" r="6.4" stroke="none" style="fill: rgb(229, 221, 180);"/>
            <circle cx="201.6" cy="216.7" r="6.4" stroke="none" style="fill: rgb(229, 221, 180);"/>
            <circle cx="217.2" cy="90" r="6" fill="rgba(221, 198, 89, 1)" stroke="none"/>
            <circle cx="184" cy="90" r="6" fill="rgba(221, 198, 89, 1)" stroke="none"/>
            <path d="M217.2 103c-2.8 0-5 2.2-5 5 0 6.4-5.2 11.6-11.6 11.6-6.4 0-11.6-5.2-11.6-11.6 0-2.8-2.2-5-5-5s-5 2.2-5 5c0 11.9 9.7 21.6 21.6 21.6 11.9 0 21.6-9.7 21.6-21.6 0-2.7-2.2-5-5-5z" fill="rgba(221, 198, 89, 1)" stroke="none"/>
            <path d="M263.7 146.3h-31.2c12.6-9.6 20-24.5 20-40.8 0-28.4-23.1-51.5-51.5-51.5s-51.5 23.1-51.5 51.5c0 16 7.6 31.1 20.1 40.8h-34.1c-15.1 0-27.4 12.3-27.4 27.4 0 15.1 12.3 27.4 27.4 27.4h20.6l-17.9 111.3c-1.2 7.2.6 14.4 4.9 20.4 4.3 5.9 10.6 9.8 17.8 11 7.2 1.2 14.4-.6 20.4-4.9 5.9-4.3 9.8-10.6 11-17.8l7.6-47.1 7.6 47.1c1.2 7.2 5.1 13.5 11 17.8 4.7 3.4 10.3 5.2 16 5.2 1.5 0 2.9-.1 4.4-.4 7.2-1.2 13.5-5.1 17.8-11 4.3-5.9 6-13.2 4.9-20.4l-1.1-6.6c0-.3 0-.6-.1-.8 0-.2-.1-.4-.2-.6L243.6 201h20c15.1 0 27.4-12.3 27.4-27.4 0-15-12.2-27.3-27.3-27.3zm-145.5 27.4c0-8.1 5.6-14.9 13.1-16.8v33.6c-7.6-1.9-13.1-8.7-13.1-16.8zm57.2 157.1c-3.8 2.7-8.4 3.8-12.9 3.1-4.6-.7-8.6-3.2-11.3-7-2.7-3.8-3.8-8.4-3.1-12.9l.5-3.1 34.2 6.2-.4 2.4c-.7 4.5-3.2 8.5-7 11.3zm73.1-3.9c-2.7 3.8-6.7 6.3-11.3 7-4.6.7-9.1-.4-12.9-3.1-3.8-2.7-6.3-6.7-7-11.3l-.3-1.6 34.2-6.2.4 2.3c.7 4.5-.4 9.1-3.1 12.9zm-15.7-130.1l16.9 105-34.2 6.2-10.7-66.3c-.4-2.4-2.5-4.2-4.9-4.2-2.5 0-4.5 1.8-4.9 4.2l-10.5 65.5-34.2-6.2L167 196.8c.2-1.4-.2-2.9-1.1-4-.9-1.1-2.3-1.8-3.8-1.8h-20.8v-34.7h36c2.8 0 5-2.2 5-5v-5.8c0-1.8-.9-3.4-2.4-4.3-12.5-7.5-20.3-21.1-20.3-35.7 0-22.9 18.6-41.5 41.5-41.5s41.5 18.6 41.5 41.5c0 15.8-8.8 30-23 37.1-1.7.8-2.8 2.6-2.8 4.5v4.2c0 2.8 2.2 5 5 5h35.5V191h-19.5c-1.5 0-2.9.6-3.8 1.8-1 1.1-1.5 2.6-1.2 4zm34.4-6.1v-34c7.9 1.6 13.8 8.6 13.8 17 0 8.3-5.9 15.3-13.8 17z" stroke="none" style="fill: rgb(229, 221, 180);"/>
          </svg>
        </g>
      </svg>
    </g>
  </g>
  <g data-image="07898" transform="matrix(0.681998, -0.731354, 0.731354, 0.681998, -67.262001, 256.640656)">
    <g>
      <svg version="1.1" width="66.48308055437865px" height="66.48308055437863px" viewBox="0 0 66.48308055437865 66.48308055437863">
        <g>
          <svg xmlns="http://www.w3.org/2000/svg" viewBox="0 0 400 400" version="1.1" preserveAspectRatio="xMidYMid meet">
            <circle cx="201.6" cy="173.8" r="6.4" fill="rgba(221, 198, 89, 1)" stroke="none"/>
            <circle cx="201.6" cy="196" r="6.4" fill="rgba(221, 198, 89, 1)" stroke="none"/>
            <circle cx="201.6" cy="216.7" r="6.4" fill="rgba(221, 198, 89, 1)" stroke="none"/>
            <circle cx="217.2" cy="90" r="6" fill="rgba(221, 198, 89, 1)" stroke="none"/>
            <circle cx="184" cy="90" r="6" fill="rgba(221, 198, 89, 1)" stroke="none"/>
            <path d="M217.2 103c-2.8 0-5 2.2-5 5 0 6.4-5.2 11.6-11.6 11.6-6.4 0-11.6-5.2-11.6-11.6 0-2.8-2.2-5-5-5s-5 2.2-5 5c0 11.9 9.7 21.6 21.6 21.6 11.9 0 21.6-9.7 21.6-21.6 0-2.7-2.2-5-5-5z" fill="rgba(221, 198, 89, 1)" stroke="none"/>
            <path d="M263.7 146.3h-31.2c12.6-9.6 20-24.5 20-40.8 0-28.4-23.1-51.5-51.5-51.5s-51.5 23.1-51.5 51.5c0 16 7.6 31.1 20.1 40.8h-34.1c-15.1 0-27.4 12.3-27.4 27.4 0 15.1 12.3 27.4 27.4 27.4h20.6l-17.9 111.3c-1.2 7.2.6 14.4 4.9 20.4 4.3 5.9 10.6 9.8 17.8 11 7.2 1.2 14.4-.6 20.4-4.9 5.9-4.3 9.8-10.6 11-17.8l7.6-47.1 7.6 47.1c1.2 7.2 5.1 13.5 11 17.8 4.7 3.4 10.3 5.2 16 5.2 1.5 0 2.9-.1 4.4-.4 7.2-1.2 13.5-5.1 17.8-11 4.3-5.9 6-13.2 4.9-20.4l-1.1-6.6c0-.3 0-.6-.1-.8 0-.2-.1-.4-.2-.6L243.6 201h20c15.1 0 27.4-12.3 27.4-27.4 0-15-12.2-27.3-27.3-27.3zm-145.5 27.4c0-8.1 5.6-14.9 13.1-16.8v33.6c-7.6-1.9-13.1-8.7-13.1-16.8zm57.2 157.1c-3.8 2.7-8.4 3.8-12.9 3.1-4.6-.7-8.6-3.2-11.3-7-2.7-3.8-3.8-8.4-3.1-12.9l.5-3.1 34.2 6.2-.4 2.4c-.7 4.5-3.2 8.5-7 11.3zm73.1-3.9c-2.7 3.8-6.7 6.3-11.3 7-4.6.7-9.1-.4-12.9-3.1-3.8-2.7-6.3-6.7-7-11.3l-.3-1.6 34.2-6.2.4 2.3c.7 4.5-.4 9.1-3.1 12.9zm-15.7-130.1l16.9 105-34.2 6.2-10.7-66.3c-.4-2.4-2.5-4.2-4.9-4.2-2.5 0-4.5 1.8-4.9 4.2l-10.5 65.5-34.2-6.2L167 196.8c.2-1.4-.2-2.9-1.1-4-.9-1.1-2.3-1.8-3.8-1.8h-20.8v-34.7h36c2.8 0 5-2.2 5-5v-5.8c0-1.8-.9-3.4-2.4-4.3-12.5-7.5-20.3-21.1-20.3-35.7 0-22.9 18.6-41.5 41.5-41.5s41.5 18.6 41.5 41.5c0 15.8-8.8 30-23 37.1-1.7.8-2.8 2.6-2.8 4.5v4.2c0 2.8 2.2 5 5 5h35.5V191h-19.5c-1.5 0-2.9.6-3.8 1.8-1 1.1-1.5 2.6-1.2 4zm34.4-6.1v-34c7.9 1.6 13.8 8.6 13.8 17 0 8.3-5.9 15.3-13.8 17z" fill="rgba(221, 198, 89, 1)" stroke="none"/>
          </svg>
        </g>
      </svg>
    </g>
  </g>
  <g data-image="07898" transform="matrix(0.681998, -0.731354, 0.731354, 0.681998, 182.737991, 256.640656)">
    <g>
      <svg version="1.1" width="66.48308055437865px" height="66.48308055437863px" viewBox="0 0 66.48308055437865 66.48308055437863">
        <g>
          <svg xmlns="http://www.w3.org/2000/svg" viewBox="0 0 400 400" version="1.1" preserveAspectRatio="xMidYMid meet">
            <circle cx="201.6" cy="173.8" r="6.4" stroke="none" style="fill: rgb(229, 221, 180);"/>
            <circle cx="201.6" cy="196" r="6.4" fill="rgba(221, 198, 89, 1)" stroke="none"/>
            <circle cx="201.6" cy="216.7" r="6.4" fill="rgba(221, 198, 89, 1)" stroke="none"/>
            <circle cx="217.2" cy="90" r="6" stroke="none" style="fill: rgb(229, 221, 180);"/>
            <circle cx="184" cy="90" r="6" stroke="none" style="fill: rgb(229, 221, 180);"/>
            <path d="M217.2 103c-2.8 0-5 2.2-5 5 0 6.4-5.2 11.6-11.6 11.6-6.4 0-11.6-5.2-11.6-11.6 0-2.8-2.2-5-5-5s-5 2.2-5 5c0 11.9 9.7 21.6 21.6 21.6 11.9 0 21.6-9.7 21.6-21.6 0-2.7-2.2-5-5-5z" stroke="none" style="fill: rgb(229, 221, 180);"/>
            <path d="M263.7 146.3h-31.2c12.6-9.6 20-24.5 20-40.8 0-28.4-23.1-51.5-51.5-51.5s-51.5 23.1-51.5 51.5c0 16 7.6 31.1 20.1 40.8h-34.1c-15.1 0-27.4 12.3-27.4 27.4 0 15.1 12.3 27.4 27.4 27.4h20.6l-17.9 111.3c-1.2 7.2.6 14.4 4.9 20.4 4.3 5.9 10.6 9.8 17.8 11 7.2 1.2 14.4-.6 20.4-4.9 5.9-4.3 9.8-10.6 11-17.8l7.6-47.1 7.6 47.1c1.2 7.2 5.1 13.5 11 17.8 4.7 3.4 10.3 5.2 16 5.2 1.5 0 2.9-.1 4.4-.4 7.2-1.2 13.5-5.1 17.8-11 4.3-5.9 6-13.2 4.9-20.4l-1.1-6.6c0-.3 0-.6-.1-.8 0-.2-.1-.4-.2-.6L243.6 201h20c15.1 0 27.4-12.3 27.4-27.4 0-15-12.2-27.3-27.3-27.3zm-145.5 27.4c0-8.1 5.6-14.9 13.1-16.8v33.6c-7.6-1.9-13.1-8.7-13.1-16.8zm57.2 157.1c-3.8 2.7-8.4 3.8-12.9 3.1-4.6-.7-8.6-3.2-11.3-7-2.7-3.8-3.8-8.4-3.1-12.9l.5-3.1 34.2 6.2-.4 2.4c-.7 4.5-3.2 8.5-7 11.3zm73.1-3.9c-2.7 3.8-6.7 6.3-11.3 7-4.6.7-9.1-.4-12.9-3.1-3.8-2.7-6.3-6.7-7-11.3l-.3-1.6 34.2-6.2.4 2.3c.7 4.5-.4 9.1-3.1 12.9zm-15.7-130.1l16.9 105-34.2 6.2-10.7-66.3c-.4-2.4-2.5-4.2-4.9-4.2-2.5 0-4.5 1.8-4.9 4.2l-10.5 65.5-34.2-6.2L167 196.8c.2-1.4-.2-2.9-1.1-4-.9-1.1-2.3-1.8-3.8-1.8h-20.8v-34.7h36c2.8 0 5-2.2 5-5v-5.8c0-1.8-.9-3.4-2.4-4.3-12.5-7.5-20.3-21.1-20.3-35.7 0-22.9 18.6-41.5 41.5-41.5s41.5 18.6 41.5 41.5c0 15.8-8.8 30-23 37.1-1.7.8-2.8 2.6-2.8 4.5v4.2c0 2.8 2.2 5 5 5h35.5V191h-19.5c-1.5 0-2.9.6-3.8 1.8-1 1.1-1.5 2.6-1.2 4zm34.4-6.1v-34c7.9 1.6 13.8 8.6 13.8 17 0 8.3-5.9 15.3-13.8 17z" stroke="none" style="fill: rgb(229, 221, 180);"/>
          </svg>
        </g>
      </svg>
    </g>
  </g>
  <g data-image="65237" transform="matrix(0.981627, 0.190809, -0.190809, 0.981627, 9.07535, 208.690796)">
    <g>
      <svg version="1.1" width="36.65735131181166px" height="36.65735131181165px" viewBox="0 0 36.65735131181166 36.65735131181165">
        <g>
          <svg xmlns="http://www.w3.org/2000/svg" viewBox="0 0 400 400" version="1.1" preserveAspectRatio="xMidYMid meet">
            <path d="M284.5 204.2h12.4c2.8 0 5-2.2 5-5s-2.2-5-5-5h-13.8l17.4-18.9c1.9-2 1.8-5.2-.3-7.1-2-1.9-5.2-1.8-7.1.3l-23.7 25.7h-58.3l42.4-42.4 34.9 1.4h.2c2.7 0 4.9-2.1 5-4.8.1-2.8-2-5.1-4.8-5.2l-25.7-1 9.7-9.7c2-2 2-5.1 0-7.1s-5.1-2-7.1 0l-8.7 8.7-.9-23.6c-.1-2.8-2.4-4.9-5.2-4.8-2.8.1-4.9 2.4-4.8 5.2l1.3 32.8-44.1 44.1V129l24.9-23c2-1.9 2.2-5 .3-7.1-1.9-2-5-2.2-7.1-.3l-18.1 16.7v-14.7c0-2.8-2.2-5-5-5s-5 2.2-5 5v14.7l-18.1-16.7c-2-1.9-5.2-1.8-7.1.3-1.9 2-1.8 5.2.3 7.1l24.9 23v58.3l-40.5-40.5 1.4-34.9c.1-2.8-2-5.1-4.8-5.2-2.8-.1-5.1 2-5.2 4.8l-1 25.7-11.6-11.6c-2-2-5.1-2-7.1 0s-2 5.1 0 7.1l10.6 10.6-23.6.9c-2.8.1-4.9 2.4-4.8 5.2.1 2.7 2.3 4.8 5 4.8h.2l32.8-1.3 41.3 41.3h-56.3L106 168.5c-1.9-2-5-2.2-7.1-.3-2 1.9-2.2 5-.3 7.1l17.4 18.9H99.8c-2.8 0-5 2.2-5 5s2.2 5 5 5h15l-16 17.3c-1.9 2-1.8 5.2.3 7.1 1 .9 2.2 1.3 3.4 1.3 1.3 0 2.7-.5 3.7-1.6l22.3-24.1H187l-40.3 40.3-32.8-1.3c-2.8-.1-5.1 2-5.2 4.8-.1 2.8 2 5.1 4.8 5.2l23.6.9-10.6 10.6c-2 2-2 5.1 0 7.1 1 1 2.3 1.5 3.5 1.5 1.3 0 2.6-.5 3.5-1.5l11.6-11.6 1 25.7c.1 2.7 2.3 4.8 5 4.8h.2c2.8-.1 4.9-2.4 4.8-5.2l-1.4-34.9 38.5-38.5v58.3l-24.9 23c-2 1.9-2.2 5-.3 7.1 1.9 2 5 2.2 7.1.3l18.1-16.7v13.8c0 2.8 2.2 5 5 5s5-2.2 5-5v-13.8l18.1 16.7c1 .9 2.2 1.3 3.4 1.3 1.3 0 2.7-.5 3.7-1.6 1.9-2 1.8-5.2-.3-7.1l-24.9-23v-58.8l42.2 42.2-1.3 32.8c-.1 2.8 2 5.1 4.8 5.2h.2c2.7 0 4.9-2.1 5-4.8l.9-23.6 8.7 8.7c1 1 2.3 1.5 3.5 1.5 1.3 0 2.6-.5 3.5-1.5 2-2 2-5.1 0-7.1l-9.7-9.7 25.7-1c2.8-.1 4.9-2.4 4.8-5.2-.1-2.8-2.4-4.9-5.2-4.8l-34.9 1.4-41.4-41.4h60.6l22.3 24.1c1 1.1 2.3 1.6 3.7 1.6 1.2 0 2.4-.4 3.4-1.3 2-1.9 2.2-5 .3-7.1l-15.8-17.4z" stroke="none" style="fill: rgb(229, 221, 180);"/>
          </svg>
        </g>
      </svg>
    </g>
  </g>
  <g data-image="87558" transform="matrix(0.981627, 0.190809, -0.190809, 0.981627, -9.871189, -44.529636)">
    <g>
      <svg version="1.1" width="128.65457628860312px" height="128.65457628860312px" viewBox="0 0 128.65457628860312 128.65457628860312">
        <g>
          <svg xmlns="http://www.w3.org/2000/svg" viewBox="0 0 400 400" version="1.1" preserveAspectRatio="xMidYMid meet">
            <path d="M282.2 144h-52.8c1.5-.7 3-1.4 4.6-2.1 7.1-3.4 12.7-6.5 17.1-9.4.1-.1.3-.2.4-.3 15.5-10.2 16.1-17.3 16.4-20 .6-6.6-3.4-12.3-12-16.9-6.7-3.6-13.6-4-20.6-1.3-5.2 2.1-10 5.9-14.3 10.6-.3.3-.6.6-.8.9-6.2 7.1-11.4 15.9-15.2 23.6-1-12.6-5.2-32.7-21.6-42.7-20.2-12.2-39.8 3.8-47.7 14.4-.9.8-1.8 1.7-2.6 2.7-5.2 5.9-4.8 11.4-3.6 15 3.1 9.1 15.6 17.2 38.4 24.9.5.2 1 .3 1.5.5h-52.8c-9.4 0-17 7.6-17 17v42c0 9.4 7.6 17 17 17h62V313h-43.2c-3.9 0-7-3.1-7-7v-73c0-2.8-2.2-5-5-5s-5 2.2-5 5v73.1c0 9.4 7.6 17 17 17H265c9.4 0 17-7.6 17-17V233c0-2.8-2.2-5-5-5s-5 2.2-5 5v73.1c0 3.9-3.1 7-7 7h-44.7V220h61.9c9.4 0 17-7.6 17-17v-42c0-9.4-7.7-17-17-17zm-69.4 10v56H191v-56h9.1c.6.2 1.2.3 1.8.3.5 0 1-.1 1.6-.2 0 0 .1 0 .3-.1h9zm31.4-51.7c2.3 0 4.6.6 6.9 1.9 3.2 1.7 7 4.4 6.7 7.2-.2 2.3-2.1 4.9-5.2 7.6-1.1-4-3.1-7.3-6-9.9-2.8-2.6-6.2-4.1-9.5-4.9.6-.3 1.2-.6 1.8-.8 1.8-.8 3.5-1.1 5.3-1.1zm-17.4 10.8c3.5-.2 9.6.2 13.2 3.4 2.2 2 3.4 4.9 3.6 8.9-9.3 5.6-21.6 11.2-33 15.5 3.7-8.7 9.4-19.7 16.2-27.8zM178.2 95c12.2 7.4 15.7 23.3 16.7 33.9-9-13.2-23-30.1-37.9-33.8 7.6-4.1 14.5-4.1 21.2-.1zm-39.3 20.3c-.2-.7-.8-2.4 1.7-5.3 3.3-3.8 6.8-5.6 10.7-5.6.5 0 1 0 1.5.1 13 1.5 28.2 21 37.2 35.1-22.3-5.7-48.1-15.4-51.1-24.3zM109.6 203v-42c0-3.9 3.1-7 7-7H181v56h-64.5c-3.8 0-6.9-3.1-6.9-7zm79 110.1V220h21.7v93.1h-21.7zM289.2 203c0 3.9-3.1 7-7 7h-59.4v-56h59.4c3.9 0 7 3.1 7 7v42z" stroke="none" style="fill: rgb(229, 221, 180);"/>
          </svg>
        </g>
      </svg>
    </g>
  </g>
  <g data-image="87558" transform="matrix(0.981627, 0.190809, -0.190809, 0.981627, -9.871189, 205.470367)">
    <g>
      <svg version="1.1" width="128.65457628860312px" height="128.65457628860312px" viewBox="0 0 128.65457628860312 128.65457628860312">
        <g>
          <svg xmlns="http://www.w3.org/2000/svg" viewBox="0 0 400 400" version="1.1" preserveAspectRatio="xMidYMid meet">
            <path d="M282.2 144h-52.8c1.5-.7 3-1.4 4.6-2.1 7.1-3.4 12.7-6.5 17.1-9.4.1-.1.3-.2.4-.3 15.5-10.2 16.1-17.3 16.4-20 .6-6.6-3.4-12.3-12-16.9-6.7-3.6-13.6-4-20.6-1.3-5.2 2.1-10 5.9-14.3 10.6-.3.3-.6.6-.8.9-6.2 7.1-11.4 15.9-15.2 23.6-1-12.6-5.2-32.7-21.6-42.7-20.2-12.2-39.8 3.8-47.7 14.4-.9.8-1.8 1.7-2.6 2.7-5.2 5.9-4.8 11.4-3.6 15 3.1 9.1 15.6 17.2 38.4 24.9.5.2 1 .3 1.5.5h-52.8c-9.4 0-17 7.6-17 17v42c0 9.4 7.6 17 17 17h62V313h-43.2c-3.9 0-7-3.1-7-7v-73c0-2.8-2.2-5-5-5s-5 2.2-5 5v73.1c0 9.4 7.6 17 17 17H265c9.4 0 17-7.6 17-17V233c0-2.8-2.2-5-5-5s-5 2.2-5 5v73.1c0 3.9-3.1 7-7 7h-44.7V220h61.9c9.4 0 17-7.6 17-17v-42c0-9.4-7.7-17-17-17zm-69.4 10v56H191v-56h9.1c.6.2 1.2.3 1.8.3.5 0 1-.1 1.6-.2 0 0 .1 0 .3-.1h9zm31.4-51.7c2.3 0 4.6.6 6.9 1.9 3.2 1.7 7 4.4 6.7 7.2-.2 2.3-2.1 4.9-5.2 7.6-1.1-4-3.1-7.3-6-9.9-2.8-2.6-6.2-4.1-9.5-4.9.6-.3 1.2-.6 1.8-.8 1.8-.8 3.5-1.1 5.3-1.1zm-17.4 10.8c3.5-.2 9.6.2 13.2 3.4 2.2 2 3.4 4.9 3.6 8.9-9.3 5.6-21.6 11.2-33 15.5 3.7-8.7 9.4-19.7 16.2-27.8zM178.2 95c12.2 7.4 15.7 23.3 16.7 33.9-9-13.2-23-30.1-37.9-33.8 7.6-4.1 14.5-4.1 21.2-.1zm-39.3 20.3c-.2-.7-.8-2.4 1.7-5.3 3.3-3.8 6.8-5.6 10.7-5.6.5 0 1 0 1.5.1 13 1.5 28.2 21 37.2 35.1-22.3-5.7-48.1-15.4-51.1-24.3zM109.6 203v-42c0-3.9 3.1-7 7-7H181v56h-64.5c-3.8 0-6.9-3.1-6.9-7zm79 110.1V220h21.7v93.1h-21.7zM289.2 203c0 3.9-3.1 7-7 7h-59.4v-56h59.4c3.9 0 7 3.1 7 7v42z" stroke="none" style="fill: rgb(229, 221, 180);"/>
          </svg>
        </g>
      </svg>
    </g>
  </g>
  <g data-image="16380" transform="matrix(0.913546, -0.406737, 0.406737, 0.913546, -53.09737, 200.279602)">
    <g>
      <svg version="1.1" width="65.39113089708727px" height="65.39113089708725px" viewBox="0 0 65.39113089708727 65.39113089708725">
        <g>
          <svg xmlns="http://www.w3.org/2000/svg" viewBox="0 0 400 400" version="1.1" preserveAspectRatio="xMidYMid meet">
            <path d="M258.9 119.7c-7.9-16.3-23-29-41.5-34.7-34.3-10.6-70.9 8.6-81.6 43-.3.8-1.7 5-2.2 8-.7 4.2-1.2 13.7-.1 20.8v.2l.8 4.1c1.6 11.8 12.4 20.2 24.3 18.8 11.9-1.5 20.4-12.4 18.9-24.3l-.4-3c0-.2-.1-.5-.1-.7-1.1-4.1 0-8.9 0-8.9 1.5-5.9 5.2-10.8 10.4-13.9 4.9-2.9 10.5-3.8 16-2.7.2.1.4.2.6.2.4.1.8.2 1.1.2 6 1.7 11.3 6.1 14.3 11.8 2.7 5.1 3.3 10.5 1.6 15.2-5 14.1-49.3 124.6-55.2 139.3-.5.7-.9 1.6-.9 2.5-3.6 10.5 1.7 22.1 12.2 26.2 2.5 1 5.1 1.4 7.6 1.4 8.4 0 16.3-5 19.5-13.3l56-143c6.4-15.9 5.9-32.2-1.3-47.2zm-55.1 164.2l-25.5 5.3c1.4-3.4 3-7.6 5-12.4.2 0 .5 0 .7-.1l24.6-5.2-4.8 12.4zm9.1-23.4l-25.3 5.3c1.9-4.6 3.8-9.6 5.9-14.7l25.2-5.3-5.8 14.7zm10.1-25.8l-25.1 5.3c1.8-4.5 3.6-9.1 5.5-13.7l25-5.2-5.4 13.6zm9.8-24.8l-24.9 5.2c1.9-4.8 3.8-9.6 5.6-14.2.3 0 .5 0 .8-.1l24-5-5.5 14.1zm-21.3-91.4l6.3-22.7c6.8 2.6 13.1 6.2 18.3 10.8l-17 16.5c-2.2-1.9-4.8-3.5-7.6-4.6zm31.1 66.2l-24.8 5.2c2.2-5.7 4.3-10.9 6.1-15.5l24.8-5.2-6.1 15.5zm8.7-26.3l-23 4.8c1-2.7 1.8-4.8 2.3-6 .9-2.6 1.4-5.3 1.5-8.1l22.4-8.4c.5 5.8-.1 11.7-1.8 17.6-.5 0-.9 0-1.4.1zm1.2-27.7l-22 8.3c-.6-1.7-1.3-3.4-2.2-5.1-.7-1.3-1.4-2.4-2.2-3.6l17.1-16.6c2.6 3.2 4.9 6.7 6.6 10.4 1.1 2.2 2 4.4 2.7 6.6zm-107.2.3c1.9-6.3 4.9-11.9 8.7-16.9l16.7 18.2c-1.5 2.5-2.6 5.3-3.3 8.2-.1.2-.2 1-.4 2.2l-21.9-10.9c.1-.3.2-.5.2-.7v-.1zm12.1 39c-6.5.8-12.4-3.8-13.2-10.2 0-.1 0-.2-.1-.3l-.8-4.1c-.6-4.1-.6-9.3-.3-13.3l24.3 12.1.3 2.7c.8 6.4-3.8 12.3-10.2 13.1zm19.7-45.5l-16.3-17.7c5.6-5.1 12.1-9 19.2-11.5l4.6 24.1c-.7.4-1.4.7-2.1 1.1-2 1.2-3.8 2.5-5.4 4zm17-8.2l-4.5-23.5c6.1-1 12.3-.9 18.6.3l-6.4 23c-1-.1-1.9-.1-2.9-.1-1.6 0-3.2.1-4.8.3zm-13.3 196.3c-5-2-7.7-7.2-6.8-12.2l25.4-5.3-4.4 11.4c-2.3 5.5-8.6 8.3-14.2 6.1z" fill="rgba(221, 198, 89, 1)" stroke="none"/>
          </svg>
        </g>
      </svg>
    </g>
  </g>
  <g data-image="16380" transform="matrix(0.913546, -0.406737, 0.406737, 0.913546, 196.902634, 200.279602)">
    <g>
      <svg version="1.1" width="65.39113089708727px" height="65.39113089708725px" viewBox="0 0 65.39113089708727 65.39113089708725">
        <g>
          <svg xmlns="http://www.w3.org/2000/svg" viewBox="0 0 400 400" version="1.1" preserveAspectRatio="xMidYMid meet">
            <path d="M258.9 119.7c-7.9-16.3-23-29-41.5-34.7-34.3-10.6-70.9 8.6-81.6 43-.3.8-1.7 5-2.2 8-.7 4.2-1.2 13.7-.1 20.8v.2l.8 4.1c1.6 11.8 12.4 20.2 24.3 18.8 11.9-1.5 20.4-12.4 18.9-24.3l-.4-3c0-.2-.1-.5-.1-.7-1.1-4.1 0-8.9 0-8.9 1.5-5.9 5.2-10.8 10.4-13.9 4.9-2.9 10.5-3.8 16-2.7.2.1.4.2.6.2.4.1.8.2 1.1.2 6 1.7 11.3 6.1 14.3 11.8 2.7 5.1 3.3 10.5 1.6 15.2-5 14.1-49.3 124.6-55.2 139.3-.5.7-.9 1.6-.9 2.5-3.6 10.5 1.7 22.1 12.2 26.2 2.5 1 5.1 1.4 7.6 1.4 8.4 0 16.3-5 19.5-13.3l56-143c6.4-15.9 5.9-32.2-1.3-47.2zm-55.1 164.2l-25.5 5.3c1.4-3.4 3-7.6 5-12.4.2 0 .5 0 .7-.1l24.6-5.2-4.8 12.4zm9.1-23.4l-25.3 5.3c1.9-4.6 3.8-9.6 5.9-14.7l25.2-5.3-5.8 14.7zm10.1-25.8l-25.1 5.3c1.8-4.5 3.6-9.1 5.5-13.7l25-5.2-5.4 13.6zm9.8-24.8l-24.9 5.2c1.9-4.8 3.8-9.6 5.6-14.2.3 0 .5 0 .8-.1l24-5-5.5 14.1zm-21.3-91.4l6.3-22.7c6.8 2.6 13.1 6.2 18.3 10.8l-17 16.5c-2.2-1.9-4.8-3.5-7.6-4.6zm31.1 66.2l-24.8 5.2c2.2-5.7 4.3-10.9 6.1-15.5l24.8-5.2-6.1 15.5zm8.7-26.3l-23 4.8c1-2.7 1.8-4.8 2.3-6 .9-2.6 1.4-5.3 1.5-8.1l22.4-8.4c.5 5.8-.1 11.7-1.8 17.6-.5 0-.9 0-1.4.1zm1.2-27.7l-22 8.3c-.6-1.7-1.3-3.4-2.2-5.1-.7-1.3-1.4-2.4-2.2-3.6l17.1-16.6c2.6 3.2 4.9 6.7 6.6 10.4 1.1 2.2 2 4.4 2.7 6.6zm-107.2.3c1.9-6.3 4.9-11.9 8.7-16.9l16.7 18.2c-1.5 2.5-2.6 5.3-3.3 8.2-.1.2-.2 1-.4 2.2l-21.9-10.9c.1-.3.2-.5.2-.7v-.1zm12.1 39c-6.5.8-12.4-3.8-13.2-10.2 0-.1 0-.2-.1-.3l-.8-4.1c-.6-4.1-.6-9.3-.3-13.3l24.3 12.1.3 2.7c.8 6.4-3.8 12.3-10.2 13.1zm19.7-45.5l-16.3-17.7c5.6-5.1 12.1-9 19.2-11.5l4.6 24.1c-.7.4-1.4.7-2.1 1.1-2 1.2-3.8 2.5-5.4 4zm17-8.2l-4.5-23.5c6.1-1 12.3-.9 18.6.3l-6.4 23c-1-.1-1.9-.1-2.9-.1-1.6 0-3.2.1-4.8.3zm-13.3 196.3c-5-2-7.7-7.2-6.8-12.2l25.4-5.3-4.4 11.4c-2.3 5.5-8.6 8.3-14.2 6.1z" stroke="none" style="fill: rgb(229, 221, 180);"/>
          </svg>
        </g>
      </svg>
    </g>
  </g>
  <g data-image="36610" transform="matrix(0.838671, -0.544639, 0.544639, 0.838671, 131.323364, 46.031822)">
    <g>
      <svg version="1.1" width="89.9099264368472px" height="89.90992643684721px" viewBox="0 0 89.9099264368472 89.90992643684721">
        <g>
          <svg xmlns="http://www.w3.org/2000/svg" viewBox="0 0 400 400" version="1.1" preserveAspectRatio="xMidYMid meet">
            <path d="M205.2 215.4l-12.5-1.8-5.6-11.3c-1.6-3.3-4.9-5.3-8.6-5.3-3.7 0-6.9 2-8.6 5.3l-5.6 11.3-12.5 1.8c-3.6.5-6.6 3-7.7 6.5-1.1 3.5-.2 7.2 2.4 9.8l9 8.8-2.1 12.4c-.6 3.6.8 7.2 3.8 9.3 1.7 1.2 3.6 1.8 5.6 1.8 1.5 0 3-.4 4.5-1.1l11.2-5.9 11.2 5.9c3.2 1.7 7.1 1.4 10.1-.7 3-2.2 4.4-5.7 3.8-9.3l-2.1-12.4 9-8.8c2.6-2.6 3.5-6.3 2.4-9.8-1.2-3.4-4.1-5.9-7.7-6.5zm-10.9 18.1c-2.2 2.2-3.3 5.4-2.7 8.4l2 11.8-10.6-5.6c-1.4-.7-2.9-1.1-4.4-1.1-1.5 0-3.1.4-4.4 1.1l-10.6 5.6 2-11.8c.5-3.1-.5-6.3-2.7-8.4l-8.5-8.3 11.8-1.7c3.1-.5 5.8-2.4 7.2-5.2l5.3-10.7 5.3 10.7c1.4 2.8 4.1 4.8 7.2 5.2l11.8 1.7-8.7 8.3z" stroke="none" style="fill: rgb(229, 221, 180);"/>
            <path d="M168.4 120.4c-2.8.1-4.9 2.4-4.9 5.1.1 2.7 2.3 4.9 5 4.9h.1c5.1-.1 10.3-.2 15.4 0 2.7.1 5.1-2.1 5.1-4.9.1-2.8-2.1-5.1-4.9-5.1-5.1-.1-10.6-.1-15.8 0z" stroke="none" style="fill: rgb(229, 221, 180);"/>
            <path d="M271.3 152c-3.1 0-6.2.4-9.3 1.1-.6-4.5-1.1-7.4-1.2-8.1-.9-14.5-31.1-20.4-49.2-22.7-2.7-.3-5.2 1.6-5.6 4.3-.3 2.7 1.6 5.2 4.3 5.6 30.5 3.8 40.4 11.3 40.4 13.4 0 1-3.3 5.4-19.4 9.6C217 159 197.6 161 177 161c-20.7 0-40-2.1-54.5-5.8-16.1-4.2-19.4-8.6-19.4-9.6 0-2.3 10.8-10.2 43.9-13.8 2.7-.3 4.7-2.8 4.4-5.5-.3-2.7-2.8-4.7-5.5-4.4-44.4 4.8-52.3 16.3-52.8 23.1-1.2 5.3-10.8 49.1-2.6 89.2 9.6 47 14.2 73.2 14.8 76.6.5 15.6 27.2 24.9 71.6 24.9 45.1 0 72.1-9.4 72.5-25.1.3-3 3.8-32.7 8.6-58.8 4.3 1.5 8.7 2.3 13.3 2.3 24.5 0 44.5-22.9 44.5-51.1 0-28.1-20-51-44.5-51zm0 92.1c-5.1 0-10-1.3-14.6-3.9-1.4-.8-3.1-.8-4.5-.2-1.5.7-2.5 2-2.8 3.6-5.7 29.1-9.8 65.8-9.9 66.1v.6c0 5-15.3 15.4-62.5 15.4-42.5 0-61.6-9-61.6-15.4 0-.3 0-.6-.1-.8 0-.3-4.6-27-14.9-77.3-5.8-28.1-2.1-59 .6-74.8 4.5 2.9 10.8 5.4 19 7.6 15.3 4 35.6 6.1 57 6.1 21.5 0 41.7-2.2 57-6.1 7.9-2.1 14.1-4.5 18.6-7.3.1.9.2 1.7.3 2.7.2 1.6 1.1 2.9 2.5 3.7 1.4.8 3 .9 4.5.3 3.7-1.6 7.6-2.4 11.5-2.4 19 0 34.5 18.4 34.5 41.1-.1 22.6-15.6 41-34.6 41z" stroke="none" style="fill: rgb(229, 221, 180);"/>
            <path d="M271.3 172.3c-5.1 0-10.1 1.6-14.5 4.8-1.4 1-2.2 2.6-2.1 4.3.9 16 .5 30-1.3 41.7-.3 1.7.4 3.4 1.7 4.6 4.7 3.9 10.2 6 16.1 6 14.9 0 27-13.8 27-30.7.2-16.9-12-30.7-26.9-30.7zm0 51.4c-2.6 0-5.2-.7-7.5-2.1 1.4-11 1.8-23.6 1.1-37.7 2-1 4.2-1.5 6.4-1.5 9.4 0 17 9.3 17 20.7.1 11.4-7.6 20.6-17 20.6z" stroke="none" style="fill: rgb(229, 221, 180);"/>
            <path d="M152.6 126.9c1.6 8.3 0 14.2 0 14.3-.8 2.6.7 5.4 3.4 6.2.5.1 1 .2 1.4.2 2.2 0 4.1-1.4 4.8-3.6.1-.3 2.4-8.1.2-19.1-1.5-7.8-4.9-15.3-10-22.3-9.2-12.6 5.7-30.7 5.8-30.8 1.8-2.1 1.5-5.3-.6-7-2.1-1.8-5.3-1.5-7 .6-.2.2-5 5.9-8.2 13.8-4.6 11.2-3.9 21.3 2 29.3 4.2 5.9 7 12.1 8.2 18.4z" stroke="none" style="fill: rgb(229, 221, 180);"/>
            <path d="M184.7 108.6c12.4 17 8.4 31.9 8.2 32.6-.8 2.6.7 5.4 3.4 6.2.5.1 1 .2 1.4.2 2.2 0 4.1-1.4 4.8-3.6.2-.8 5.8-20.1-9.8-41.4-9.2-12.6 5.7-30.7 5.8-30.8 1.8-2.1 1.5-5.3-.6-7-2.1-1.8-5.3-1.5-7 .6-.2.2-5 5.9-8.2 13.8-4.5 11.3-3.8 21.4 2 29.4z" stroke="none" style="fill: rgb(229, 221, 180);"/>
            <path d="M170.4 110.7c1 0 2.1-.3 2.9-1 2.2-1.6 2.7-4.8 1.1-7-9.2-12.6 5.7-30.7 5.8-30.8 1.8-2.1 1.5-5.3-.6-7-2.1-1.8-5.3-1.5-7 .6-.2.2-5 5.9-8.2 13.8-4.6 11.2-3.9 21.3 2 29.3.9 1.4 2.4 2.1 4 2.1z" stroke="none" style="fill: rgb(229, 221, 180);"/>
          </svg>
        </g>
      </svg>
    </g>
  </g>
  <g data-image="41454" transform="matrix(0.951057, 0.309017, -0.309017, 0.951057, -28.553528, 43.866238)">
    <g>
      <svg version="1.1" width="80.25525714952985px" height="80.25525714952988px" viewBox="0 0 80.25525714952985 80.25525714952988">
        <g>
          <svg xmlns="http://www.w3.org/2000/svg" viewBox="0 0 400 400" version="1.1" preserveAspectRatio="xMidYMid meet">
            <path d="M291.9 270.6v-47.1c0-51.1-41.6-92.8-92.8-92.8s-92.8 41.6-92.8 92.8v46.7c-5.5 2.8-9.2 8.5-9.2 15.1V308c0 9.4 7.6 17 17 17h169.2c9.4 0 17-7.6 17-17v-22.8c.1-6.2-3.3-11.7-8.4-14.6zm-92.7-129.9c45.6 0 82.8 37.1 82.8 82.8v44.8H116.4v-44.8c0-45.7 37.1-82.8 82.8-82.8zm-52.5 137.6V315h-13.9v-36.8h13.9zm10 0h13.9V315h-13.9v-36.7zm23.9 0h13.9V315h-13.9v-36.7zm23.9 0h13.9V315h-13.9v-36.7zm23.9 0h13.9V315h-13.9v-36.7zm23.9 0h13.9V315h-13.9v-36.7zM107.2 308v-22.8c0-3.9 3.1-7 7-7h8.5V315h-8.5c-3.8 0-7-3.1-7-7zm183.2 0c0 3.9-3.1 7-7 7h-7.2v-36.8h7.2c3.9 0 7 3.1 7 7V308z" stroke="none" style="fill: rgb(229, 221, 180);"/>
            <path d="M200.5 125.7c14.3 0 26-11.6 26-26 0-14.3-11.6-26-26-26-14.3 0-26 11.6-26 26 0 14.3 11.7 26 26 26zm0-41.9c8.8 0 16 7.2 16 16s-7.2 16-16 16-16-7.2-16-16c0-8.9 7.2-16 16-16z" stroke="none" style="fill: rgb(229, 221, 180);"/>
          </svg>
        </g>
      </svg>
    </g>
  </g>
  <g data-image="41454" transform="matrix(0.951057, 0.309017, -0.309017, 0.951057, 221.446472, 43.866238)">
    <g>
      <svg version="1.1" width="80.25525714952985px" height="80.25525714952988px" viewBox="0 0 80.25525714952985 80.25525714952988">
        <g>
          <svg xmlns="http://www.w3.org/2000/svg" viewBox="0 0 400 400" version="1.1" preserveAspectRatio="xMidYMid meet">
            <path d="M291.9 270.6v-47.1c0-51.1-41.6-92.8-92.8-92.8s-92.8 41.6-92.8 92.8v46.7c-5.5 2.8-9.2 8.5-9.2 15.1V308c0 9.4 7.6 17 17 17h169.2c9.4 0 17-7.6 17-17v-22.8c.1-6.2-3.3-11.7-8.4-14.6zm-92.7-129.9c45.6 0 82.8 37.1 82.8 82.8v44.8H116.4v-44.8c0-45.7 37.1-82.8 82.8-82.8zm-52.5 137.6V315h-13.9v-36.8h13.9zm10 0h13.9V315h-13.9v-36.7zm23.9 0h13.9V315h-13.9v-36.7zm23.9 0h13.9V315h-13.9v-36.7zm23.9 0h13.9V315h-13.9v-36.7zm23.9 0h13.9V315h-13.9v-36.7zM107.2 308v-22.8c0-3.9 3.1-7 7-7h8.5V315h-8.5c-3.8 0-7-3.1-7-7zm183.2 0c0 3.9-3.1 7-7 7h-7.2v-36.8h7.2c3.9 0 7 3.1 7 7V308z" stroke="none" style="fill: rgb(229, 221, 180);"/>
            <path d="M200.5 125.7c14.3 0 26-11.6 26-26 0-14.3-11.6-26-26-26-14.3 0-26 11.6-26 26 0 14.3 11.7 26 26 26zm0-41.9c8.8 0 16 7.2 16 16s-7.2 16-16 16-16-7.2-16-16c0-8.9 7.2-16 16-16z" stroke="none" style="fill: rgb(229, 221, 180);"/>
          </svg>
        </g>
      </svg>
    </g>
  </g>
  <g data-image="93056" transform="matrix(0.956305, -0.292372, 0.292372, 0.956305, 48.720169, 81.894974)">
    <g>
      <svg version="1.1" width="144.21642365443876px" height="144.21642365443887px" viewBox="0 0 144.21642365443876 144.21642365443887">
        <g>
          <svg xmlns="http://www.w3.org/2000/svg" viewBox="0 0 400 400" version="1.1" preserveAspectRatio="xMidYMid meet">
            <path d="M281.9 144h-52.8c1.5-.7 3-1.4 4.6-2.1 7.1-3.4 12.7-6.5 17.1-9.4.1-.1.3-.2.4-.3 15.5-10.2 16.1-17.3 16.4-20 .6-6.6-3.4-12.3-12-16.9-3.8-2-7.7-3.1-11.6-3.1-12.2 0-23.9 9.6-34.8 28.5-1.6 2.8-3.1 5.6-4.4 8.3-1-12.6-5.2-32.7-21.6-42.7-20.2-12.2-39.8 3.8-47.7 14.3-.9.8-1.8 1.7-2.7 2.7-5.2 5.9-4.8 11.4-3.6 15 3.1 9.1 15.6 17.2 38.4 24.9.5.2 1 .3 1.5.5h-52.8c-9.4 0-17 7.6-17 17V203c0 9.4 7.6 17 17 17h16l-8.9 9h-.3c-2.8 0-5 2.2-5 5v72.1c0 9.4 7.6 17 17 17h129.6c9.4 0 17-7.6 17-17V233c0-.3 0-.6-.1-.9.3-1.6-.2-3.3-1.5-4.6-2-1.9-5.2-1.8-7.1.2L220 284v-12.3l47.9-51.6h14c9.4 0 17-7.6 17-17v-42c0-9.5-7.6-17.1-17-17.1zm0 10c2.5 0 4.6 1.3 5.9 3.2l-.3.3-48.9 52.5h-11.2l51.8-56h2.7zm-52.6 66l-9.3 10v-10h9.3zm36.3-66l-43.1 46.6v-8.8l35.1-37.8h8zm-32.6 0h10.9l-21.4 23.1v-11.8L233 154zm10.9-51.7c2.3 0 4.6.6 6.9 1.9 3.2 1.7 7 4.4 6.7 7.2-.2 2.3-2.1 4.9-5.2 7.6-1.1-4-3.1-7.3-6-9.9-2.9-2.6-6.2-4.1-9.5-4.9 2.8-1.4 5.2-1.9 7.1-1.9zM178 95c12.3 7.4 15.8 23.5 16.7 34.1-1.9-2.8-4.1-5.9-6.5-8.9-11.1-14.3-21.6-22.6-31.4-25 7.5-4.2 14.4-4.2 21.2-.2zm-68.7 66c0-3.9 3.1-7 7-7h5.5l-12.5 13.9V161zm0 21.9l25.9-28.9h12l-37.9 40.8v-11.9zm10.3 27.1h-3.2c-2.1 0-4-.9-5.3-2.4l49.8-53.6h10.7l-52 56zm8.5 28.6l18.2-18.6h11.8l-30 32.3v-13.7zm50.2 63.3L168 313.1h-11.6l21.9-23.5v12.3zm0-27.1L142.8 313h-7.7c-.9 0-1.8-.2-2.6-.5l45.8-49.5v11.8zm0-26.5l-50.2 54.3v-9.2l50.2-54.1v9zm0-23.7l-50.2 54.1V267l43.7-47h6.6v4.6zm2.5-29L167.4 210h-11l5.5-5.9 1.6-1.6c.2-.2.4-.4.5-.7l16.8-18v11.8zm0-26.5l-26.1 28.1-12.6 12.8h-8.9l47.6-51.2v10.3zM170.7 134c-26.2-8.9-31.1-16-32-18.6-.2-.7-.8-2.4 1.7-5.3 3.3-3.8 6.8-5.6 10.7-5.6 7.9 0 18.3 7.8 29.2 21.8 3.6 4.7 6.8 9.4 9.3 13.3-5.4-1.4-12.1-3.3-18.9-5.6zM210 313.1h-21.7V220H210v93.1zm2.5-103.1h-21.7v-56h9.1c.6.2 1.2.3 1.8.3.5 0 1-.1 1.6-.2 0 0 .1 0 .3-.1h9.1v56zm59.2 96.1c0 3.9-3.1 7-7 7h-12.3l19.3-20.7v13.7zm0-28.4l-.3.3-32.6 35.1h-9.3l42.3-45.3v9.9zm0-34v9.4l-.3.3-51.4 55.1v-10l51.7-54.8zm-59.6-103.4c-.4-.2-.9-.3-1.3-.4 1.9-4.2 4.3-9.3 7.1-14.2 3-5.2 5.9-9.3 8.6-12.5 3.5-.2 9.6.2 13.2 3.4 2.2 2 3.4 4.9 3.6 8.9-8.8 5.3-20.4 10.6-31.2 14.8zm7.9 116.6v-12.3l23-24.6h11.3L220 256.9zm68.9-53.9c0 3.9-3.1 7-7 7h-4.7l11.7-12.6v5.6zm0-20.3L263.6 210h-11.3l36.7-39.4v12.1z" stroke="none" style="fill: rgb(229, 221, 180);"/>
          </svg>
        </g>
      </svg>
    </g>
  </g>
  <g data-image="18576" transform="matrix(0.970296, 0.241922, -0.241922, 0.970296, 95.371872, -75.342842)">
    <g>
      <svg version="1.1" width="111.99778677564909px" height="111.99778677564908px" viewBox="0 0 111.99778677564909 111.99778677564908">
        <g>
          <svg xmlns="http://www.w3.org/2000/svg" viewBox="0 0 400 400" version="1.1" preserveAspectRatio="xMidYMid meet">
            <path d="M282 144h-52.8c1.5-.7 3-1.4 4.6-2.1 7.1-3.4 12.7-6.5 17.1-9.4.1-.1.3-.2.4-.3 15.5-10.2 16.1-17.3 16.4-20 .6-6.6-3.4-12.3-12-16.9-6.7-3.6-13.6-4-20.6-1.3-5.2 2.1-10 5.9-14.3 10.6-.3.3-.6.6-.8.9-6.2 7.1-11.4 15.9-15.2 23.6-1-12.6-5.2-32.7-21.6-42.7-20.2-12.2-39.8 3.8-47.7 14.3-.9.8-1.8 1.7-2.6 2.7-5.2 5.9-4.8 11.4-3.6 15 3.1 9.1 15.6 17.2 38.4 24.9.5.2 1 .3 1.5.5h-52.8c-9.4 0-17 7.6-17 17v42c0 9.4 7.6 17 17 17h62v41.6c-.3-.1-.6-.1-.9-.1-8.7 0-15.7 7.1-15.7 15.7s7.1 15.7 15.7 15.7c.3 0 .6 0 .9-.1v20.1h-43.2c-3.9 0-7-3.1-7-7v-39.2c7.1-1.5 12.5-7.8 12.5-15.4 0-7.6-5.4-13.9-12.5-15.4V233c0-2.8-2.2-5-5-5s-5 2.2-5 5v73.1c0 9.4 7.6 17 17 17h129.6c9.4 0 17-7.6 17-17V233c0-2.8-2.2-5-5-5s-5 2.2-5 5v43.6c-2.8-2.7-6.6-4.3-10.8-4.3-8.7 0-15.7 7.1-15.7 15.7 0 8.7 7.1 15.7 15.7 15.7 4.2 0 8-1.6 10.8-4.3v6.6c0 3.9-3.1 7-7 7h-44.7v-56.7c8.2-.5 14.7-7.4 14.7-15.7 0-8.3-6.5-15.2-14.7-15.7v-5H282c9.4 0 17-7.6 17-17v-42c0-9.3-7.7-16.9-17-16.9zM130.6 251.5c0 1.9-1 3.7-2.5 4.7v-9.4c1.5 1 2.5 2.7 2.5 4.7zM261 293.8c-3.2 0-5.7-2.6-5.7-5.7 0-3.2 2.6-5.7 5.7-5.7s5.7 2.6 5.7 5.7-2.6 5.7-5.7 5.7zM212.6 154v56h-21.7v-56h9.1c.6.2 1.2.3 1.8.3.5 0 1-.1 1.6-.2 0 0 .1 0 .3-.1h8.9zm31.3-51.7c2.3 0 4.6.6 6.9 1.9 3.2 1.7 7 4.4 6.7 7.2-.2 2.3-2.1 4.9-5.2 7.6-1.1-4-3.1-7.3-6-9.9-2.8-2.6-6.2-4.1-9.5-4.9.6-.3 1.2-.6 1.8-.8 1.9-.8 3.6-1.1 5.3-1.1zm-17.3 10.8c3.5-.2 9.6.2 13.2 3.4 2.2 2 3.4 4.9 3.6 8.9-9.3 5.6-21.6 11.2-33 15.5 3.7-8.7 9.4-19.7 16.2-27.8zM178 95c12.2 7.4 15.8 23.3 16.7 33.9-8.9-13.2-23-30.1-37.8-33.8 6-3.2 13.4-4.7 21.1-.1zm-39.3 20.3c-.2-.7-.8-2.4 1.7-5.3 3.3-3.8 6.8-5.6 10.7-5.6.5 0 1 0 1.5.1 13 1.5 28.2 21 37.2 35.1-22.3-5.7-48.1-15.4-51.1-24.3zm11.5 38.7c-.2.5-.3 1-.3 1.5 0 3.2-2.6 5.7-5.7 5.7-3.2 0-5.7-2.6-5.7-5.7 0-.5-.1-1-.3-1.5h12zm-40.9 49v-42c0-3.9 3.1-7 7-7h12.4c-.2.5-.3 1-.3 1.5 0 8.7 7.1 15.7 15.7 15.7 8.7 0 15.7-7.1 15.7-15.7 0-.5-.1-1-.3-1.5h21.1v56h-4.9c-1-7.8-7.6-13.8-15.6-13.8s-14.6 6-15.6 13.8h-28.4c-3.6 0-6.8-3.1-6.8-7zm56.4 7h-10.8c.8-2.2 2.9-3.8 5.4-3.8s4.6 1.6 5.4 3.8zm11.7 73c-3.2 0-5.7-2.6-5.7-5.7 0-3.2 2.6-5.7 5.7-5.7.3 0 .6 0 .9-.1v11.7c-.2-.1-.5-.2-.9-.2zm10.9 30.1V220H210v93.1h-21.7zm36.5-72.4c0 2.8-2.1 5.2-4.7 5.7V235c2.7.5 4.7 2.9 4.7 5.7zM289 203c0 3.9-3.1 7-7 7h-59.4v-56H282c3.9 0 7 3.1 7 7v42z" stroke="none" style="fill: rgb(229, 221, 180);"/>
            <path d="M262.8 163.3c-8.7 0-15.7 7.1-15.7 15.7s7.1 15.7 15.7 15.7c8.7 0 15.7-7.1 15.7-15.7s-7.1-15.7-15.7-15.7zm0 21.4c-3.2 0-5.7-2.6-5.7-5.7s2.6-5.7 5.7-5.7 5.7 2.6 5.7 5.7-2.6 5.7-5.7 5.7z" fill="rgba(221, 198, 89, 1)" stroke="none"/>
          </svg>
        </g>
      </svg>
    </g>
  </g>
  <g data-image="18576" transform="matrix(0.970296, 0.241922, -0.241922, 0.970296, 95.371872, 174.65715)">
    <g>
      <svg version="1.1" width="111.99778677564909px" height="111.99778677564908px" viewBox="0 0 111.99778677564909 111.99778677564908">
        <g>
          <svg xmlns="http://www.w3.org/2000/svg" viewBox="0 0 400 400" version="1.1" preserveAspectRatio="xMidYMid meet">
            <path d="M282 144h-52.8c1.5-.7 3-1.4 4.6-2.1 7.1-3.4 12.7-6.5 17.1-9.4.1-.1.3-.2.4-.3 15.5-10.2 16.1-17.3 16.4-20 .6-6.6-3.4-12.3-12-16.9-6.7-3.6-13.6-4-20.6-1.3-5.2 2.1-10 5.9-14.3 10.6-.3.3-.6.6-.8.9-6.2 7.1-11.4 15.9-15.2 23.6-1-12.6-5.2-32.7-21.6-42.7-20.2-12.2-39.8 3.8-47.7 14.3-.9.8-1.8 1.7-2.6 2.7-5.2 5.9-4.8 11.4-3.6 15 3.1 9.1 15.6 17.2 38.4 24.9.5.2 1 .3 1.5.5h-52.8c-9.4 0-17 7.6-17 17v42c0 9.4 7.6 17 17 17h62v41.6c-.3-.1-.6-.1-.9-.1-8.7 0-15.7 7.1-15.7 15.7s7.1 15.7 15.7 15.7c.3 0 .6 0 .9-.1v20.1h-43.2c-3.9 0-7-3.1-7-7v-39.2c7.1-1.5 12.5-7.8 12.5-15.4 0-7.6-5.4-13.9-12.5-15.4V233c0-2.8-2.2-5-5-5s-5 2.2-5 5v73.1c0 9.4 7.6 17 17 17h129.6c9.4 0 17-7.6 17-17V233c0-2.8-2.2-5-5-5s-5 2.2-5 5v43.6c-2.8-2.7-6.6-4.3-10.8-4.3-8.7 0-15.7 7.1-15.7 15.7 0 8.7 7.1 15.7 15.7 15.7 4.2 0 8-1.6 10.8-4.3v6.6c0 3.9-3.1 7-7 7h-44.7v-56.7c8.2-.5 14.7-7.4 14.7-15.7 0-8.3-6.5-15.2-14.7-15.7v-5H282c9.4 0 17-7.6 17-17v-42c0-9.3-7.7-16.9-17-16.9zM130.6 251.5c0 1.9-1 3.7-2.5 4.7v-9.4c1.5 1 2.5 2.7 2.5 4.7zM261 293.8c-3.2 0-5.7-2.6-5.7-5.7 0-3.2 2.6-5.7 5.7-5.7s5.7 2.6 5.7 5.7-2.6 5.7-5.7 5.7zM212.6 154v56h-21.7v-56h9.1c.6.2 1.2.3 1.8.3.5 0 1-.1 1.6-.2 0 0 .1 0 .3-.1h8.9zm31.3-51.7c2.3 0 4.6.6 6.9 1.9 3.2 1.7 7 4.4 6.7 7.2-.2 2.3-2.1 4.9-5.2 7.6-1.1-4-3.1-7.3-6-9.9-2.8-2.6-6.2-4.1-9.5-4.9.6-.3 1.2-.6 1.8-.8 1.9-.8 3.6-1.1 5.3-1.1zm-17.3 10.8c3.5-.2 9.6.2 13.2 3.4 2.2 2 3.4 4.9 3.6 8.9-9.3 5.6-21.6 11.2-33 15.5 3.7-8.7 9.4-19.7 16.2-27.8zM178 95c12.2 7.4 15.8 23.3 16.7 33.9-8.9-13.2-23-30.1-37.8-33.8 6-3.2 13.4-4.7 21.1-.1zm-39.3 20.3c-.2-.7-.8-2.4 1.7-5.3 3.3-3.8 6.8-5.6 10.7-5.6.5 0 1 0 1.5.1 13 1.5 28.2 21 37.2 35.1-22.3-5.7-48.1-15.4-51.1-24.3zm11.5 38.7c-.2.5-.3 1-.3 1.5 0 3.2-2.6 5.7-5.7 5.7-3.2 0-5.7-2.6-5.7-5.7 0-.5-.1-1-.3-1.5h12zm-40.9 49v-42c0-3.9 3.1-7 7-7h12.4c-.2.5-.3 1-.3 1.5 0 8.7 7.1 15.7 15.7 15.7 8.7 0 15.7-7.1 15.7-15.7 0-.5-.1-1-.3-1.5h21.1v56h-4.9c-1-7.8-7.6-13.8-15.6-13.8s-14.6 6-15.6 13.8h-28.4c-3.6 0-6.8-3.1-6.8-7zm56.4 7h-10.8c.8-2.2 2.9-3.8 5.4-3.8s4.6 1.6 5.4 3.8zm11.7 73c-3.2 0-5.7-2.6-5.7-5.7 0-3.2 2.6-5.7 5.7-5.7.3 0 .6 0 .9-.1v11.7c-.2-.1-.5-.2-.9-.2zm10.9 30.1V220H210v93.1h-21.7zm36.5-72.4c0 2.8-2.1 5.2-4.7 5.7V235c2.7.5 4.7 2.9 4.7 5.7zM289 203c0 3.9-3.1 7-7 7h-59.4v-56H282c3.9 0 7 3.1 7 7v42z" stroke="none" style="fill: rgb(229, 221, 180);"/>
            <path d="M262.8 163.3c-8.7 0-15.7 7.1-15.7 15.7s7.1 15.7 15.7 15.7c8.7 0 15.7-7.1 15.7-15.7s-7.1-15.7-15.7-15.7zm0 21.4c-3.2 0-5.7-2.6-5.7-5.7s2.6-5.7 5.7-5.7 5.7 2.6 5.7 5.7-2.6 5.7-5.7 5.7z" stroke="none" style="fill: rgb(229, 221, 180);"/>
          </svg>
        </g>
      </svg>
    </g>
  </g>
  <g data-image="00690" transform="matrix(0.999391, 0.034899, -0.034899, 0.999391, -18.412457, 116.806824)">
    <g>
      <svg version="1.1" width="105.1797055236194px" height="105.17970552361938px" viewBox="0 0 105.1797055236194 105.17970552361938">
        <g>
          <svg xmlns="http://www.w3.org/2000/svg" viewBox="0 0 400 400" version="1.1" preserveAspectRatio="xMidYMid meet">
            <path d="M200 38C130.1 38 73.3 94.8 73.3 164.7c0 34.5 13.6 66.7 38.3 90.8 1 .9 2.2 1.4 3.5 1.4 1.3 0 2.6-.5 3.6-1.5 1.9-2 1.9-5.1-.1-7.1-22.8-22.2-35.3-51.8-35.3-83.6C83.3 100.4 135.6 48 200 48c64.3 0 116.7 52.3 116.7 116.7 0 29.7-11.2 58-31.4 79.6-1.9 2-1.8 5.2.2 7.1 2 1.9 5.2 1.8 7.1-.2 22-23.5 34.1-54.2 34.1-86.5C326.7 94.8 269.8 38 200 38z" stroke="none" style="fill: rgb(229, 221, 180);"/>
            <path d="M128.3 196.9c.8 1.9 2.7 3.1 4.6 3.1.6 0 1.3-.1 1.9-.4 2.6-1 3.8-4 2.7-6.5-3.3-8.1-5-16.8-5-25.6 0-37.2 30.3-67.4 67.4-67.4 37.2 0 67.4 30.3 67.4 67.4 0 8.4-1.5 16.6-4.5 24.3-1 2.6.3 5.5 2.9 6.5s5.5-.3 6.5-2.9c3.4-8.9 5.2-18.3 5.2-27.9 0-42.7-34.7-77.4-77.4-77.4s-77.4 34.7-77.4 77.4c-.1 10.1 1.9 20 5.7 29.4z" stroke="none" style="fill: rgb(229, 221, 180);"/>
            <path d="M297.5 185.9c2.7.5 5.3-1.3 5.8-4s-1.3-5.3-4-5.8c-8.1-1.5-15.9 3.9-17.4 12.1-.7 3.9.2 7.9 2.4 11.2 2.3 3.3 5.7 5.5 9.6 6.2.3.1.6.1.9.1 2.4 0 4.5-1.7 4.9-4.1.5-2.7-1.3-5.3-4-5.8-1.3-.2-2.4-1-3.2-2.1-.8-1.1-1-2.4-.8-3.7.5-2.8 3.1-4.6 5.8-4.1z" stroke="none" style="fill: rgb(229, 221, 180);"/>
            <path d="M285.9 116.3c2.5-1.2 3.5-4.2 2.3-6.7-1.2-2.5-4.2-3.5-6.7-2.3-3.6 1.8-6.3 4.8-7.6 8.6-1.3 3.8-1 7.8.7 11.4 2.6 5.3 7.9 8.4 13.5 8.4 2.2 0 4.4-.5 6.5-1.5 2.5-1.2 3.5-4.2 2.3-6.7-1.2-2.5-4.2-3.5-6.7-2.3-2.5 1.2-5.4.2-6.6-2.3-1.2-2.4-.2-5.4 2.3-6.6z" stroke="none" style="fill: rgb(229, 221, 180);"/>
            <path d="M227.5 64.2c-2.6-.9-5.4.6-6.3 3.2-1.2 3.8-.9 7.9.9 11.4 1.8 3.6 4.9 6.2 8.7 7.4 1.5.5 3.1.7 4.6.7 6.3 0 12.2-4 14.2-10.3.9-2.6-.6-5.4-3.2-6.3-2.6-.9-5.4.6-6.3 3.2-.8 2.6-3.7 4-6.3 3.2-1.3-.4-2.3-1.3-2.9-2.5-.6-1.2-.7-2.5-.3-3.8 1-2.6-.5-5.4-3.1-6.2z" stroke="none" style="fill: rgb(229, 221, 180);"/>
            <path d="M169.1 76.3c-2.4 1.3-5.4.5-6.8-1.9-1.3-2.4-4.4-3.3-6.8-1.9-2.4 1.3-3.3 4.4-1.9 6.8 2.7 4.9 7.8 7.7 13.1 7.7 2.5 0 5-.6 7.3-1.9 7.2-4 9.8-13.2 5.8-20.4-1.3-2.4-4.4-3.3-6.8-1.9-2.4 1.3-3.3 4.4-1.9 6.8 1.2 2.4.4 5.4-2 6.7z" stroke="none" style="fill: rgb(229, 221, 180);"/>
            <path d="M107.8 127c-2.6-1-5.5.3-6.5 2.9s.3 5.5 2.9 6.5c1.8.7 3.6 1 5.4 1 6 0 11.7-3.6 14-9.6 3-7.7-.9-16.4-8.6-19.4-2.6-1-5.5.3-6.5 2.9s.3 5.5 2.9 6.5 3.8 3.9 2.8 6.4c-1 2.5-3.9 3.8-6.4 2.8z" stroke="none" style="fill: rgb(229, 221, 180);"/>
            <path d="M106 199.8c-2.7.7-4.3 3.4-3.6 6.1.6 2.2 2.6 3.7 4.8 3.7.4 0 .8-.1 1.3-.2 8-2.1 12.8-10.3 10.7-18.3-1-3.9-3.5-7.1-6.9-9.1-3.5-2-7.5-2.6-11.3-1.6-2.7.7-4.3 3.4-3.6 6.1.7 2.7 3.4 4.3 6.1 3.6 1.3-.3 2.6-.2 3.8.5 1.1.7 2 1.7 2.3 3 .7 2.8-.9 5.5-3.6 6.2z" stroke="none" style="fill: rgb(229, 221, 180);"/>
            <circle cx="296.2" cy="156.8" r="3.8" stroke="none" style="fill: rgb(229, 221, 180);"/>
            <circle cx="260.1" cy="92.8" r="3.8" stroke="none" style="fill: rgb(229, 221, 180);"/>
            <circle cx="202.6" cy="70.9" r="3.8" stroke="none" style="fill: rgb(229, 221, 180);"/>
            <circle cx="135.4" cy="93.8" r="3.8" stroke="none" style="fill: rgb(229, 221, 180);"/>
            <circle cx="102.2" cy="156.8" r="3.8" stroke="none" style="fill: rgb(229, 221, 180);"/>
            <path d="M138.6 215.7c-13.1 5.3 39.1 20.2 39.1 20.2s-26-25.5-39.1-20.2z" stroke="none" style="fill: rgb(229, 221, 180);"/>
            <path d="M277.8 251.4c.8-4.1 2.5-8.3 4.1-12.4 4.2-10.4 9.4-23.3-3-33.4-21.4-17.6-52.9 12.7-60.2 20.3-1.6-.9-3.2-1.4-5-1.4h-20.3c-1.9 0-3.7.5-5.3 1.6-5.7-6.1-38.7-39.2-60.9-21-12.3 10.1-7.1 23-3 33.4 1.7 4.1 3.4 8.4 4.1 12.4.4 1.9-.9 4.8-2.4 8.2-3.2 7.5-7.6 17.7-2.1 32.3 3.2 8.5 9 11.3 13.4 12 1.1.2 2.3.3 3.5.3 2.2 0 4.5-.4 6.8-1l-14.9 26.4c-1 1.7-.8 3.9.3 5.4 1.2 1.6 3.2 2.3 5.1 1.9l16.3-3.6 2.9 19.6c.3 2.1 1.9 3.8 4.1 4.2.3.1.6.1.9.1 1.8 0 3.5-1 4.4-2.6l37.6-68.7 39.7 72.5c.9 1.6 2.6 2.6 4.4 2.6.3 0 .6 0 .9-.1 2.1-.4 3.8-2.1 4.1-4.2l2.9-19.6 16.3 3.6c1.9.4 3.9-.3 5.1-1.9 1.2-1.6 1.3-3.7.3-5.4l-16.5-29c1.4.2 2.7.4 4.1.4 1.2 0 2.3-.1 3.5-.3 4.3-.8 10.2-3.5 13.4-12 5.5-14.6 1.1-24.9-2.1-32.3-1.6-3.4-2.8-6.4-2.5-8.3zm-84.3-16.9h20.2c1.3.4 4.7 5.7 4.7 15.3 0 9.6-3.4 14.9-4.6 15.3h-20.2c-1.3-.4-4.6-5.7-4.6-15.3-.1-9.6 3.3-14.9 4.5-15.3zm-54.3 59.1c-1.7-.3-4.1-1.2-5.8-5.7-4.1-10.9-1-18 1.9-24.8 2-4.7 3.9-9.1 3-14.1-1-5-2.9-9.7-4.7-14.3-4.7-11.7-6-16.9 0-21.9 16.3-13.3 47.6 20.5 47.9 20.8l.3.3c-1.9 4.2-3 9.7-3 15.8 0 5.9 1 11.1 2.7 15.3-8.2 9.4-16.6 16.9-24.1 21.9-.3.1-.6.3-.8.5-6.9 4.8-13.1 7-17.4 6.2zm25.9 42.6l-1.5-10.1c-.2-1.4-1-2.6-2.1-3.4-1.1-.8-2.6-1.1-3.9-.8l-10.5 2.3 16.7-29.4c10.1-6.9 19.2-16.2 24.1-21.6 1.7 1.2 3.7 1.8 5.8 1.8h5l-33.6 61.2zm98.5-8.1l-10.5-2.3c-1.4-.3-2.8 0-3.9.8s-1.9 2-2.1 3.4l-1.5 10.1-35.5-65h3.8c1.7 0 3.3-.4 4.8-1.2 5.5 6.1 16.2 17 27.8 24l17.1 30.2zm7.4-64.5c3 6.9 6 14 1.9 24.8-1.7 4.5-4.1 5.4-5.8 5.7-8.9 1.6-25.7-9.6-42-28 2-4.3 3.2-10 3.2-16.4 0-6.3-1.1-11.9-3.1-16.1 4.2-4.4 32.3-32.7 47.4-20.3 6 4.9 4.7 10.2 0 21.9-1.8 4.6-3.7 9.3-4.7 14.3-.8 5 1.1 9.4 3.1 14.1z" stroke="none" style="fill: rgb(229, 221, 180);"/>
            <path d="M267.7 216.2c-13.1-5.3-39.1 20.2-39.1 20.2s52.3-14.9 39.1-20.2z" stroke="none" style="fill: rgb(229, 221, 180);"/>
          </svg>
        </g>
      </svg>
    </g>
  </g>
  <g data-image="00690" transform="matrix(0.999391, 0.034899, -0.034899, 0.999391, 231.58754, 116.806824)">
    <g>
      <svg version="1.1" width="105.1797055236194px" height="105.17970552361938px" viewBox="0 0 105.1797055236194 105.17970552361938">
        <g>
          <svg xmlns="http://www.w3.org/2000/svg" viewBox="0 0 400 400" version="1.1" preserveAspectRatio="xMidYMid meet">
            <path d="M200 38C130.1 38 73.3 94.8 73.3 164.7c0 34.5 13.6 66.7 38.3 90.8 1 .9 2.2 1.4 3.5 1.4 1.3 0 2.6-.5 3.6-1.5 1.9-2 1.9-5.1-.1-7.1-22.8-22.2-35.3-51.8-35.3-83.6C83.3 100.4 135.6 48 200 48c64.3 0 116.7 52.3 116.7 116.7 0 29.7-11.2 58-31.4 79.6-1.9 2-1.8 5.2.2 7.1 2 1.9 5.2 1.8 7.1-.2 22-23.5 34.1-54.2 34.1-86.5C326.7 94.8 269.8 38 200 38z" stroke="none" style="fill: rgb(229, 221, 180);"/>
            <path d="M128.3 196.9c.8 1.9 2.7 3.1 4.6 3.1.6 0 1.3-.1 1.9-.4 2.6-1 3.8-4 2.7-6.5-3.3-8.1-5-16.8-5-25.6 0-37.2 30.3-67.4 67.4-67.4 37.2 0 67.4 30.3 67.4 67.4 0 8.4-1.5 16.6-4.5 24.3-1 2.6.3 5.5 2.9 6.5s5.5-.3 6.5-2.9c3.4-8.9 5.2-18.3 5.2-27.9 0-42.7-34.7-77.4-77.4-77.4s-77.4 34.7-77.4 77.4c-.1 10.1 1.9 20 5.7 29.4z" stroke="none" style="fill: rgb(229, 221, 180);"/>
            <path d="M297.5 185.9c2.7.5 5.3-1.3 5.8-4s-1.3-5.3-4-5.8c-8.1-1.5-15.9 3.9-17.4 12.1-.7 3.9.2 7.9 2.4 11.2 2.3 3.3 5.7 5.5 9.6 6.2.3.1.6.1.9.1 2.4 0 4.5-1.7 4.9-4.1.5-2.7-1.3-5.3-4-5.8-1.3-.2-2.4-1-3.2-2.1-.8-1.1-1-2.4-.8-3.7.5-2.8 3.1-4.6 5.8-4.1z" fill="rgba(221, 198, 89, 1)" stroke="none"/>
            <path d="M285.9 116.3c2.5-1.2 3.5-4.2 2.3-6.7-1.2-2.5-4.2-3.5-6.7-2.3-3.6 1.8-6.3 4.8-7.6 8.6-1.3 3.8-1 7.8.7 11.4 2.6 5.3 7.9 8.4 13.5 8.4 2.2 0 4.4-.5 6.5-1.5 2.5-1.2 3.5-4.2 2.3-6.7-1.2-2.5-4.2-3.5-6.7-2.3-2.5 1.2-5.4.2-6.6-2.3-1.2-2.4-.2-5.4 2.3-6.6z" stroke="none" style="fill: rgb(229, 221, 180);"/>
            <path d="M227.5 64.2c-2.6-.9-5.4.6-6.3 3.2-1.2 3.8-.9 7.9.9 11.4 1.8 3.6 4.9 6.2 8.7 7.4 1.5.5 3.1.7 4.6.7 6.3 0 12.2-4 14.2-10.3.9-2.6-.6-5.4-3.2-6.3-2.6-.9-5.4.6-6.3 3.2-.8 2.6-3.7 4-6.3 3.2-1.3-.4-2.3-1.3-2.9-2.5-.6-1.2-.7-2.5-.3-3.8 1-2.6-.5-5.4-3.1-6.2z" stroke="none" style="fill: rgb(229, 221, 180);"/>
            <path d="M169.1 76.3c-2.4 1.3-5.4.5-6.8-1.9-1.3-2.4-4.4-3.3-6.8-1.9-2.4 1.3-3.3 4.4-1.9 6.8 2.7 4.9 7.8 7.7 13.1 7.7 2.5 0 5-.6 7.3-1.9 7.2-4 9.8-13.2 5.8-20.4-1.3-2.4-4.4-3.3-6.8-1.9-2.4 1.3-3.3 4.4-1.9 6.8 1.2 2.4.4 5.4-2 6.7z" stroke="none" style="fill: rgb(229, 221, 180);"/>
            <path d="M107.8 127c-2.6-1-5.5.3-6.5 2.9s.3 5.5 2.9 6.5c1.8.7 3.6 1 5.4 1 6 0 11.7-3.6 14-9.6 3-7.7-.9-16.4-8.6-19.4-2.6-1-5.5.3-6.5 2.9s.3 5.5 2.9 6.5 3.8 3.9 2.8 6.4c-1 2.5-3.9 3.8-6.4 2.8z" stroke="none" style="fill: rgb(229, 221, 180);"/>
            <path d="M106 199.8c-2.7.7-4.3 3.4-3.6 6.1.6 2.2 2.6 3.7 4.8 3.7.4 0 .8-.1 1.3-.2 8-2.1 12.8-10.3 10.7-18.3-1-3.9-3.5-7.1-6.9-9.1-3.5-2-7.5-2.6-11.3-1.6-2.7.7-4.3 3.4-3.6 6.1.7 2.7 3.4 4.3 6.1 3.6 1.3-.3 2.6-.2 3.8.5 1.1.7 2 1.7 2.3 3 .7 2.8-.9 5.5-3.6 6.2z" fill="rgba(221, 198, 89, 1)" stroke="none"/>
            <circle cx="296.2" cy="156.8" r="3.8" stroke="none" style="fill: rgb(229, 221, 180);"/>
            <circle cx="260.1" cy="92.8" r="3.8" stroke="none" style="fill: rgb(229, 221, 180);"/>
            <circle cx="202.6" cy="70.9" r="3.8" stroke="none" style="fill: rgb(229, 221, 180);"/>
            <circle cx="135.4" cy="93.8" r="3.8" stroke="none" style="fill: rgb(229, 221, 180);"/>
            <circle cx="102.2" cy="156.8" r="3.8" stroke="none" style="fill: rgb(229, 221, 180);"/>
            <path d="M138.6 215.7c-13.1 5.3 39.1 20.2 39.1 20.2s-26-25.5-39.1-20.2z" stroke="none" style="fill: rgb(229, 221, 180);"/>
            <path d="M277.8 251.4c.8-4.1 2.5-8.3 4.1-12.4 4.2-10.4 9.4-23.3-3-33.4-21.4-17.6-52.9 12.7-60.2 20.3-1.6-.9-3.2-1.4-5-1.4h-20.3c-1.9 0-3.7.5-5.3 1.6-5.7-6.1-38.7-39.2-60.9-21-12.3 10.1-7.1 23-3 33.4 1.7 4.1 3.4 8.4 4.1 12.4.4 1.9-.9 4.8-2.4 8.2-3.2 7.5-7.6 17.7-2.1 32.3 3.2 8.5 9 11.3 13.4 12 1.1.2 2.3.3 3.5.3 2.2 0 4.5-.4 6.8-1l-14.9 26.4c-1 1.7-.8 3.9.3 5.4 1.2 1.6 3.2 2.3 5.1 1.9l16.3-3.6 2.9 19.6c.3 2.1 1.9 3.8 4.1 4.2.3.1.6.1.9.1 1.8 0 3.5-1 4.4-2.6l37.6-68.7 39.7 72.5c.9 1.6 2.6 2.6 4.4 2.6.3 0 .6 0 .9-.1 2.1-.4 3.8-2.1 4.1-4.2l2.9-19.6 16.3 3.6c1.9.4 3.9-.3 5.1-1.9 1.2-1.6 1.3-3.7.3-5.4l-16.5-29c1.4.2 2.7.4 4.1.4 1.2 0 2.3-.1 3.5-.3 4.3-.8 10.2-3.5 13.4-12 5.5-14.6 1.1-24.9-2.1-32.3-1.6-3.4-2.8-6.4-2.5-8.3zm-84.3-16.9h20.2c1.3.4 4.7 5.7 4.7 15.3 0 9.6-3.4 14.9-4.6 15.3h-20.2c-1.3-.4-4.6-5.7-4.6-15.3-.1-9.6 3.3-14.9 4.5-15.3zm-54.3 59.1c-1.7-.3-4.1-1.2-5.8-5.7-4.1-10.9-1-18 1.9-24.8 2-4.7 3.9-9.1 3-14.1-1-5-2.9-9.7-4.7-14.3-4.7-11.7-6-16.9 0-21.9 16.3-13.3 47.6 20.5 47.9 20.8l.3.3c-1.9 4.2-3 9.7-3 15.8 0 5.9 1 11.1 2.7 15.3-8.2 9.4-16.6 16.9-24.1 21.9-.3.1-.6.3-.8.5-6.9 4.8-13.1 7-17.4 6.2zm25.9 42.6l-1.5-10.1c-.2-1.4-1-2.6-2.1-3.4-1.1-.8-2.6-1.1-3.9-.8l-10.5 2.3 16.7-29.4c10.1-6.9 19.2-16.2 24.1-21.6 1.7 1.2 3.7 1.8 5.8 1.8h5l-33.6 61.2zm98.5-8.1l-10.5-2.3c-1.4-.3-2.8 0-3.9.8s-1.9 2-2.1 3.4l-1.5 10.1-35.5-65h3.8c1.7 0 3.3-.4 4.8-1.2 5.5 6.1 16.2 17 27.8 24l17.1 30.2zm7.4-64.5c3 6.9 6 14 1.9 24.8-1.7 4.5-4.1 5.4-5.8 5.7-8.9 1.6-25.7-9.6-42-28 2-4.3 3.2-10 3.2-16.4 0-6.3-1.1-11.9-3.1-16.1 4.2-4.4 32.3-32.7 47.4-20.3 6 4.9 4.7 10.2 0 21.9-1.8 4.6-3.7 9.3-4.7 14.3-.8 5 1.1 9.4 3.1 14.1z" stroke="none" style="fill: rgb(229, 221, 180);"/>
            <path d="M267.7 216.2c-13.1-5.3-39.1 20.2-39.1 20.2s52.3-14.9 39.1-20.2z" stroke="none" style="fill: rgb(229, 221, 180);"/>
          </svg>
        </g>
      </svg>
    </g>
  </g>
</svg>