<?xml version="1.0" standalone="yes"?>
<svg xmlns="http://www.w3.org/2000/svg" width="466" height="76">
<path style="fill:#bdb9b2; stroke:none;" d="M8 5L8 35C8 41.0492 7.36459 47.3396 9.90509 53C18.6642 72.516 47.6236 74.38 58.7863 56C63.056 48.9697 63 40.9293 63 33L63 5L42 5C42 15.8093 43.0919 27.2599 41.8912 38C41.5023 41.4786 39.178 46.5154 35.0008 46.5154C30.4059 46.5154 28.5877 40.6274 28.1744 37C26.9859 26.5701 28 15.4964 28 5L8 5M92 5L92 69L114 69L114 43C118.006 48.5927 121.848 54.2783 125.667 60C127.477 62.7121 129.253 66.3045 132.184 67.9722C137.724 71.1241 148.744 69 155 69L155 5L133 5C135.125 13.9258 134 23.8623 134 33C129.707 26.6373 125.26 20.3854 121 14C119.092 11.1398 117.16 7.00674 113.816 5.60339C107.982 3.15562 98.2828 5 92 5M184 5L184 69L206 69L206 5L184 5M235 5L235 69L257 69C257 59.9838 254.869 49.2498 261 42C262.916 48.6518 266.651 54.8291 269.753 61C271.077 63.6327 272.309 67.1331 275.213 68.3966C281.179 70.9922 291.535 69 298 69C294.963 58.4588 288.137 48.7811 283.247 39C281.639 35.7847 277.851 30.7661 278.665 27C279.36 23.7866 282.802 21.2065 285 19C289.492 14.4915 294.329 10.2112 298 5L278 5C274.755 5.00021 270.997 4.52921 268 6.02778C263.734 8.16093 260.329 12.671 257 16L257 5L235 5M326 5L326 33C326 40.9293 325.944 48.9697 330.214 56C341.376 74.3799 370.336 72.516 379.095 53C381.635 47.3396 381 41.0492 381 35L381 5L361 5C361 15.6796 362.397 27.4512 360.695 38C360.095 41.7211 357.725 47.2143 353.042 46.5571C348.65 45.9405 347.255 40.6737 347.043 37C346.431 26.4042 347 15.6144 347 5L326 5z"/>

<path style="fill:#808080; stroke:none;" d="M126 22L127 23L126 22M269 22L270 23L269 22M277 27L278 28L277 27M424 27L425 28L424 27M121 29L122 30L121 29M278 29L279 30L278 29M264 31L265 32L264 31M279 31L280 32L279 31M123 32L124 33L123 32M452 32L453 33L452 32M265 33L266 34L265 33M280 33L281 34L280 33M118 34L119 35L118 34M125 35L126 36L125 35M266 35L267 36L266 35M281 35L282 36L281 35M120 37L121 38L120 37M267 37L268 38L267 37M282 37L283 38L282 37M429 38L430 39L429 38M447 38L448 39L447 38M268 39L269 40L268 39M283 39L284 40L283 39M360 39L361 40L360 39M416 39L417 40L416 39M122 40L123 41L122 40M417 40L418 41L417 40M41 41L42 42L41 41M269 41L270 42L269 41M284 41L285 42L284 41M440 41L441 42L440 41M260 42L261 43L260 42M450 42L451 43L450 42M20 43L21 44L20 43M124 43L125 44L124 43M259 43L260 44L259 43M270 43L271 44L270 43M285 43L286 44L285 43M359 43L360 44L359 43M368 43L369 44L368 43M258 44L259 45L258 44M339 44L340 45L339 44M271 45L272 46L271 45M286 45L287 46L286 45M349 45L350 46L349 45M451 45L452 46L451 45M16 46L17 47L16 46M372 46L373 47L372 46M117 47L118 48L117 47M272 47L273 48L272 47M287 47L288 48L287 47M341 48L342 49L341 48M17 49L18 50L17 49M273 49L274 50L273 49M288 49L289 50L288 49M371 49L372 50L371 49M24 50L25 51L24 50M119 50L120 51L119 50M18 51L19 52L18 51M44 51L45 52L44 51M136 51L137 52L136 51M274 51L275 52L274 51M289 51L290 52L289 51M370 51L371 52L370 51M60 52L61 53L60 52M328 52L329 53L328 52M50 53L51 54L50 53M121 53L122 54L121 53M338 53L339 54L338 53M20 54L21 55L20 54M138 54L139 55L138 54M368 54L369 55L368 54M450 54L451 55L450 54M123 56L124 57L123 56M12 57L13 58L12 57M376 57L377 58L376 57M448 57L449 58L448 57M45 58L46 59L45 58M343 58L344 59L343 58M447 58L448 59L447 58M31 61L32 62L31 61M50 64L51 65L50 64M338 64L339 65L338 64M452 64L453 65L452 64M449 66L450 67L449 66M447 67L448 68L447 67z"/>
</svg>
