<?xml version="1.0" standalone="no"?>
<!DOCTYPE svg PUBLIC "-//W3C//DTD SVG 20010904//EN"
 "http://www.w3.org/TR/2001/REC-SVG-20010904/DTD/svg10.dtd">
<svg version="1.0" xmlns="http://www.w3.org/2000/svg"
 width="1280.000000pt" height="1280.000000pt" viewBox="0 0 1280.000000 1280.000000"
 preserveAspectRatio="xMidYMid meet">

<g transform="translate(0.000000,1280.000000) scale(0.100000,-0.100000)"
fill="#000000" stroke="none">
<path d="M4910 12779 c-21 -12 -48 -18 -67 -15 -25 3 -34 -1 -38 -15 -4 -11
-10 -17 -15 -14 -5 3 -11 -3 -14 -13 -10 -31 -48 -42 -69 -22 -17 17 -20 16
-55 -1 -20 -11 -42 -19 -48 -19 -7 0 -14 -6 -17 -14 -3 -7 -18 -16 -34 -19
-15 -3 -37 -12 -47 -20 -18 -13 -16 -15 28 -33 50 -21 56 -29 26 -39 -11 -3
-20 -10 -20 -15 0 -11 64 7 68 20 2 6 13 10 25 11 32 1 82 21 110 44 30 25 55
42 87 57 14 7 31 18 38 25 7 7 24 13 36 13 13 0 33 9 46 20 13 11 20 20 17 20
-4 0 -2 11 3 25 8 21 7 25 -8 24 -9 -1 -33 -10 -52 -20z"/>
<path d="M5433 12793 c9 -2 23 -2 30 0 6 3 -1 5 -18 5 -16 0 -22 -2 -12 -5z"/>
<path d="M5727 12793 c-4 -3 -7 -15 -7 -25 0 -10 -4 -18 -10 -18 -15 0 -35
-43 -21 -48 18 -6 13 -27 -14 -50 -32 -28 -32 -40 1 -53 34 -12 64 -3 64 20 0
12 10 20 29 24 17 4 30 14 34 27 3 11 1 18 -4 14 -5 -3 -9 3 -9 14 0 21 43 62
64 62 19 0 29 -17 16 -25 -6 -4 -7 -11 -4 -17 5 -7 15 -2 28 14 12 14 37 35
56 47 l35 21 -126 0 c-69 0 -129 -3 -132 -7z"/>
<path d="M6068 12788 c9 -9 15 -9 24 0 9 9 7 12 -12 12 -19 0 -21 -3 -12 -12z"/>
<path d="M6233 12788 c-37 -9 -42 -14 -45 -44 -3 -27 0 -34 13 -34 10 0 20 -9
24 -19 3 -11 17 -27 31 -36 24 -16 29 -35 9 -38 -6 0 -19 -9 -29 -19 -25 -23
-25 -23 -60 7 -33 28 -38 29 -53 14 -13 -13 -53 38 -53 68 0 15 -2 16 -10 3
-7 -10 -10 -11 -10 -2 0 9 -7 8 -25 -4 -14 -9 -25 -22 -25 -30 0 -7 -10 -19
-22 -25 -13 -7 -26 -17 -30 -22 -4 -6 -12 -4 -23 6 -15 16 -18 15 -43 0 -34
-22 -47 -41 -51 -74 -1 -7 -10 -5 -26 5 -31 21 -51 20 -73 -1 -20 -20 -106
-66 -119 -64 -14 2 -9 25 14 63 20 33 21 38 7 52 -10 10 -33 16 -64 16 -41 0
-48 3 -53 22 -4 12 -1 28 4 35 6 6 8 17 5 22 -4 5 -2 12 4 16 18 11 10 25 -15
25 -14 0 -41 -7 -61 -15 -19 -8 -51 -16 -72 -19 -41 -5 -104 -25 -112 -36 -3
-4 -20 -10 -37 -13 -26 -5 -33 -3 -33 9 0 13 -6 15 -27 9 -16 -4 -46 -9 -68
-11 -22 -3 -49 -6 -61 -7 -25 -4 -87 -28 -94 -38 -8 -11 -113 -59 -130 -59 -8
0 -40 -9 -70 -20 -30 -11 -64 -20 -76 -20 -11 0 -31 -8 -43 -19 -19 -16 -19
-20 -5 -25 9 -3 20 -4 25 0 5 3 9 0 9 -5 0 -12 0 -12 -47 -16 -18 -1 -46 -14
-63 -29 -18 -14 -43 -26 -58 -26 l-25 0 23 25 c13 14 30 25 38 25 7 0 12 6 9
13 -2 7 -17 11 -36 9 -18 -2 -38 1 -44 6 -7 5 -29 12 -50 16 -21 4 -40 13 -43
21 -3 8 -19 17 -35 20 -38 9 -136 -12 -143 -31 -3 -7 -14 -14 -24 -14 -30 0
-124 -41 -152 -66 -14 -12 -42 -28 -62 -35 -39 -14 -46 -23 -26 -35 15 -9 -26
-26 -46 -18 -18 7 -76 -61 -76 -89 0 -28 -9 -41 -37 -56 -27 -14 -73 -4 -73
16 0 8 -4 12 -8 9 -5 -3 -23 -8 -42 -11 -48 -8 -88 -32 -106 -63 -10 -15 -33
-51 -53 -81 -20 -29 -47 -71 -60 -93 -23 -39 -87 -88 -115 -88 -8 0 -17 -6
-19 -12 -4 -10 -8 -9 -16 2 -9 13 -11 12 -11 -3 0 -11 -4 -15 -12 -11 -6 4 -8
3 -5 -3 4 -6 18 -8 32 -5 28 5 30 0 15 -29 -14 -25 -35 -24 -53 2 -15 20 -15
20 -36 -7 -11 -15 -21 -35 -21 -45 0 -10 -4 -21 -10 -24 -16 -10 -12 -43 7
-54 15 -8 15 -11 3 -26 -8 -9 -24 -21 -36 -25 -18 -7 -23 -18 -26 -62 -2 -29
0 -59 5 -65 5 -7 7 -22 4 -32 -3 -12 1 -22 9 -25 16 -6 19 -52 4 -61 -14 -8
-13 -41 2 -64 9 -15 9 -23 -2 -36 -8 -9 -14 -29 -15 -43 0 -22 -5 -28 -27 -30
-14 -2 -32 -10 -39 -18 -18 -21 -12 -96 8 -111 14 -11 14 -18 3 -57 -16 -57
-7 -73 27 -46 28 22 48 25 58 10 3 -6 -14 -19 -38 -29 -24 -11 -47 -26 -50
-35 -5 -13 1 -12 44 4 27 11 52 20 54 20 3 0 5 8 5 18 0 10 12 23 28 29 15 7
35 18 44 25 22 16 36 3 22 -20 -10 -15 -5 -17 53 -18 35 -1 66 -4 69 -7 12
-12 -8 -27 -37 -27 -31 0 -39 -14 -13 -24 28 -11 51 -6 69 14 10 11 22 20 27
20 16 0 8 -29 -16 -55 -14 -15 -26 -31 -28 -37 -3 -7 -17 -7 -43 1 -22 6 -43
7 -48 2 -11 -11 -54 -2 -68 15 -19 23 -29 16 -29 -21 0 -19 -4 -35 -8 -35 -5
0 -14 -18 -21 -40 -13 -44 -31 -62 -31 -31 0 11 5 23 11 27 6 3 8 17 4 31 -4
16 0 34 10 49 14 22 14 25 0 30 -19 8 -65 -3 -85 -20 -8 -7 -31 -19 -50 -26
-19 -8 -60 -30 -90 -50 -30 -21 -65 -40 -77 -44 -11 -4 -24 -13 -27 -21 -3 -8
-13 -15 -23 -15 -26 0 43 67 84 81 22 7 33 17 33 30 0 10 6 19 14 19 8 0 16 7
20 15 3 9 0 15 -9 15 -19 0 -19 16 -1 27 7 4 13 19 12 33 -1 17 5 26 19 28 11
2 24 7 28 11 12 12 17 101 6 101 -6 0 -30 -20 -54 -45 -38 -40 -44 -53 -50
-105 -5 -42 -14 -67 -30 -85 -20 -21 -46 -31 -57 -23 -12 7 -48 -27 -48 -45 0
-12 -9 -37 -20 -55 -12 -19 -20 -42 -18 -51 2 -9 -7 -30 -20 -45 -12 -16 -25
-41 -28 -55 -8 -37 -25 -69 -51 -97 -24 -26 -31 -28 -52 -15 -11 7 -6 18 23
55 43 51 45 79 4 41 -15 -14 -35 -25 -45 -25 -28 0 -41 -31 -44 -100 -1 -34
-8 -83 -15 -108 -7 -30 -8 -51 -2 -59 6 -7 6 -19 0 -30 -5 -10 -10 -45 -10
-77 -1 -39 -7 -65 -18 -77 -9 -10 -14 -25 -11 -33 6 -15 -3 -47 -34 -127 -21
-53 -27 -145 -11 -174 7 -15 7 -34 -3 -70 -8 -34 -9 -59 -3 -78 6 -15 7 -35 4
-43 -4 -9 -1 -23 6 -32 10 -12 10 -16 1 -19 -16 -6 -17 -55 -2 -70 9 -9 9 -19
-1 -42 -8 -21 -9 -39 -3 -58 5 -15 9 -35 8 -43 0 -8 4 -18 9 -22 6 -4 6 -15 0
-30 -6 -14 -7 -42 -1 -73 5 -27 10 -72 11 -100 1 -27 4 -54 5 -60 2 -5 2 -14
1 -20 -2 -9 -6 -105 -11 -247 -1 -32 3 -64 9 -70 13 -17 34 -201 26 -234 -4
-14 -1 -31 7 -40 8 -10 14 -45 15 -88 5 -211 17 -331 37 -369 15 -29 18 -49
14 -81 -6 -38 -2 -50 24 -86 17 -23 44 -49 61 -58 87 -48 124 -101 212 -304
15 -34 20 -37 55 -36 29 0 38 4 34 14 -12 31 18 10 69 -48 40 -46 59 -77 68
-114 11 -42 16 -50 32 -46 12 3 18 -1 19 -14 2 -31 4 -37 19 -76 17 -47 34
-50 27 -5 -5 30 6 69 16 57 13 -17 57 -100 52 -100 -3 0 -1 -9 6 -21 6 -12 12
-40 13 -63 1 -30 6 -40 16 -38 12 3 13 1 3 -9 -17 -17 -16 -30 1 -23 17 6 22
-14 37 -142 12 -111 12 -110 1 -214 -14 -135 -5 -372 19 -444 7 -22 5 -33 -11
-53 -14 -18 -17 -30 -10 -42 9 -19 0 -73 -18 -108 -15 -28 -15 -28 4 -47 10
-10 11 -16 4 -16 -7 0 -10 -6 -7 -14 3 -8 -3 -26 -14 -39 -19 -25 -26 -81 -11
-91 11 -6 7 -81 -7 -149 -9 -40 -9 -62 -2 -70 11 -15 16 -137 9 -219 -12 -119
-53 -147 -163 -109 -56 19 -70 20 -110 10 -34 -8 -52 -9 -68 -1 -12 6 -47 21
-77 33 -30 12 -62 29 -70 38 -9 9 -27 22 -40 30 l-23 13 21 -33 c12 -19 36
-42 54 -51 18 -9 39 -22 46 -28 23 -20 125 -49 215 -62 60 -8 92 -17 104 -30
15 -17 41 -157 43 -233 1 -52 2 -67 16 -185 17 -136 16 -130 4 -130 -6 0 -47
-24 -93 -54 -45 -29 -98 -62 -118 -72 -42 -22 -142 -106 -210 -175 -54 -56
-155 -227 -188 -319 -30 -84 -51 -132 -112 -256 -27 -55 -49 -110 -49 -121 0
-34 -40 -153 -75 -222 -46 -91 -63 -159 -96 -376 -11 -67 -17 -84 -42 -107
-16 -16 -36 -28 -44 -28 -8 0 -29 -7 -46 -16 -57 -30 -67 -34 -79 -34 -7 0
-26 -7 -43 -16 -45 -24 -108 -35 -101 -18 5 14 -5 18 -33 14 -12 -1 -13 1 -2
14 14 16 6 40 -10 30 -5 -3 -6 -11 -2 -17 5 -8 2 -8 -9 0 -8 7 -18 9 -23 5 -4
-4 -6 2 -3 14 3 12 0 21 -7 21 -7 0 -10 -9 -7 -21 5 -20 4 -20 -15 -3 -11 9
-23 14 -27 10 -4 -4 -9 3 -13 15 -5 21 -6 21 -19 5 -7 -10 -14 -13 -14 -8 0 6
-8 11 -17 12 -36 3 -55 10 -64 24 -14 22 -11 29 11 29 11 0 20 7 20 15 0 8 -4
15 -10 15 -5 0 -10 -4 -10 -8 0 -4 -9 -8 -19 -8 -12 0 -19 7 -18 17 1 10 5 15
9 13 4 -3 13 -2 19 2 8 4 8 9 1 13 -7 4 -8 12 -2 21 8 13 10 12 10 -2 0 -9 5
-20 12 -24 7 -5 8 -3 3 6 -6 10 -4 12 10 6 16 -6 17 -2 12 34 -3 22 -2 38 3
35 4 -3 14 3 21 12 11 13 11 17 2 20 -22 8 -14 21 9 15 14 -3 19 -2 14 6 -4 7
-2 12 3 12 6 0 11 -5 11 -12 0 -6 3 -8 6 -5 4 4 1 13 -5 21 -7 8 -10 19 -7 24
4 7 -35 49 -41 44 -2 -1 -9 1 -17 4 -10 4 -12 14 -6 40 5 21 4 32 -2 28 -5 -3
-16 2 -24 12 -9 11 -13 14 -10 9 2 -6 -4 -11 -15 -11 -10 0 -19 4 -19 8 0 18
-53 57 -81 60 -16 2 -34 10 -40 18 -7 13 -10 13 -18 1 -7 -11 -11 -10 -20 5
-6 11 -11 13 -11 6 0 -7 -4 -11 -9 -8 -5 4 -12 0 -15 -6 -3 -7 -3 -3 -1 9 3
12 0 25 -6 29 -7 4 -9 3 -6 -3 13 -21 -17 -33 -45 -19 -15 8 -29 11 -33 8 -3
-4 -3 1 1 11 3 10 1 17 -5 17 -6 0 -11 -4 -11 -9 0 -5 -9 -7 -20 -4 -11 3 -18
9 -15 13 3 5 0 12 -6 16 -7 4 -9 3 -6 -3 4 -6 -5 -15 -18 -21 -15 -7 -25 -21
-26 -34 -1 -20 -2 -21 -6 -3 -3 11 -13 25 -22 32 -9 7 -11 13 -6 13 6 0 16 -5
21 -10 7 -7 11 -7 11 3 0 18 -37 19 -44 1 -6 -17 -26 -19 -21 -2 5 13 -32 48
-50 48 -5 0 -13 -12 -16 -26 -8 -32 -36 -64 -36 -41 0 8 7 20 15 27 8 7 12 17
8 23 -4 6 -11 3 -20 -8 -9 -14 -13 -15 -13 -4 0 8 -9 20 -19 26 -16 10 -20 9
-24 -5 -4 -16 -5 -16 -6 0 -1 18 -31 14 -31 -4 0 -5 4 -7 9 -4 5 3 14 -1 21
-9 7 -8 19 -15 26 -15 19 0 18 -10 -3 -25 -13 -10 -15 -16 -6 -26 14 -18 -2
-43 -35 -53 -12 -4 -22 -15 -22 -26 0 -10 -3 -25 -6 -34 -4 -11 -1 -16 11 -16
9 0 13 -5 10 -11 -4 -6 -13 -8 -21 -5 -21 8 -29 -15 -11 -29 10 -7 17 -20 17
-29 0 -22 -30 -33 -41 -15 -8 12 -11 12 -19 -1 -5 -8 -8 -21 -5 -27 3 -8 -5
-13 -21 -13 -21 0 -25 -4 -21 -19 3 -14 0 -17 -14 -14 -11 3 -19 0 -19 -6 0
-14 25 -14 51 0 19 10 19 9 9 -10 -6 -12 -7 -21 -1 -21 5 0 11 6 14 13 4 9 7
9 18 0 9 -10 10 -13 1 -13 -7 0 -12 -4 -12 -10 0 -5 7 -10 15 -10 8 0 15 -5
15 -11 0 -5 5 -7 11 -3 8 4 9 -1 4 -16 -5 -15 -4 -20 4 -16 6 4 11 0 11 -8 0
-9 -6 -16 -12 -16 -10 0 -9 -3 1 -9 9 -6 10 -11 2 -15 -14 -9 -14 -26 0 -26 5
0 7 6 3 13 -5 7 0 6 11 -3 18 -14 18 -15 -3 -18 -34 -5 -23 -46 12 -47 5 0 11
-7 13 -15 3 -9 1 -11 -4 -5 -4 6 -14 10 -20 11 -27 2 -33 4 -32 12 1 4 1 16 0
27 -2 17 -4 16 -17 -7 -8 -16 -21 -28 -29 -28 -8 0 -15 -5 -15 -10 0 -7 6 -7
20 0 15 8 27 7 47 -4 16 -8 23 -15 16 -16 -16 0 -9 -35 8 -35 8 0 13 8 11 17
-2 13 4 18 18 18 14 0 20 -5 18 -18 -2 -12 3 -17 20 -16 12 0 22 -4 21 -10 -3
-27 2 -38 16 -32 10 4 15 -1 15 -14 0 -13 9 -22 28 -26 42 -9 49 -12 28 -13
-19 -1 -19 -2 -2 -14 25 -18 30 -97 7 -115 -15 -13 -15 -13 1 -8 9 3 19 -2 22
-11 5 -12 1 -14 -14 -10 -10 3 -19 2 -18 -2 2 -19 -3 -31 -12 -26 -5 3 -10 0
-10 -7 0 -16 -40 -43 -59 -39 -7 1 -11 -2 -7 -7 3 -5 -1 -9 -9 -9 -8 0 -12 4
-9 8 2 4 0 10 -5 13 -5 3 -11 -3 -14 -14 -3 -12 1 -20 12 -23 13 -4 13 -5 -3
-6 -11 -1 -16 -6 -13 -15 3 -7 -6 -32 -19 -56 -13 -23 -24 -50 -24 -59 0 -30
-22 -41 -87 -41 -50 0 -83 -8 -161 -40 -54 -21 -138 -49 -187 -60 -50 -12
-112 -30 -140 -41 -27 -10 -88 -32 -135 -48 -47 -16 -112 -40 -145 -53 l-60
-24 -3 -937 -2 -937 2142 0 c1649 1 2138 3 2123 12 -21 13 -26 14 -62 16 -16
2 -23 8 -23 22 0 19 -10 24 -39 20 -8 -1 -18 4 -22 12 -12 19 -11 25 5 25 8 0
12 -6 9 -14 -3 -7 0 -13 6 -13 6 0 11 7 11 16 0 8 5 12 10 9 6 -3 10 -1 10 4
0 10 -16 15 -47 14 -15 -1 -28 34 -24 66 2 15 -1 21 -8 17 -6 -4 -11 -2 -11 3
0 6 -6 11 -14 11 -19 0 -24 18 -20 70 9 101 8 155 -2 153 -7 -1 -12 16 -12 42
-1 26 3 45 9 45 6 0 2 16 -10 36 -12 19 -15 32 -9 29 7 -4 6 -1 -2 7 -10 8
-14 27 -12 52 2 28 0 36 -9 30 -9 -5 -11 -1 -7 14 4 12 3 22 -1 22 -4 0 -8 7
-8 15 0 8 4 15 9 15 4 0 8 7 8 15 0 8 -4 15 -8 15 -5 0 -9 6 -10 13 0 6 -3 23
-6 37 -17 77 -18 83 -5 91 10 6 10 9 2 9 -7 0 -10 7 -7 15 4 8 1 22 -5 29 -9
10 -9 16 -1 21 8 5 8 11 0 19 -5 7 -10 24 -9 37 1 13 -2 47 -6 74 -9 58 -9 57
-1 112 8 54 30 91 99 162 51 54 137 108 182 114 11 1 25 5 30 9 8 4 190 3 190
-2 0 -1 22 -3 49 -6 34 -3 54 -11 63 -24 11 -15 21 -18 40 -14 22 6 24 4 18
-15 -8 -26 9 -28 25 -3 10 15 11 15 6 0 -2 -9 2 -22 9 -28 8 -7 13 -16 10 -20
-3 -5 4 -12 16 -15 11 -4 18 -9 15 -12 -3 -4 -1 -12 4 -18 12 -15 4 -41 -16
-49 -7 -3 -29 1 -49 10 -19 8 -35 12 -35 9 0 -2 13 -26 29 -52 30 -51 45 -95
43 -128 -4 -48 -19 -100 -29 -98 -8 2 -10 -15 -6 -54 4 -37 3 -54 -4 -50 -6 4
-15 -5 -22 -20 -11 -24 -11 -25 5 -12 16 13 17 12 12 -8 -3 -12 -1 -24 6 -26
6 -3 1 -14 -13 -28 -15 -14 -20 -24 -13 -27 18 -6 14 -48 -5 -67 -16 -16 -15
-18 8 -36 13 -10 27 -19 31 -19 3 0 4 -9 1 -20 -3 -12 -14 -20 -27 -20 -12 0
-27 -5 -34 -12 -7 -7 -12 -8 -12 -4 0 5 -11 -8 -25 -28 -14 -20 -25 -45 -24
-54 0 -10 3 -12 6 -4 3 9 12 7 30 -8 29 -22 48 -26 37 -7 -4 6 -3 8 1 4 12
-10 17 -34 16 -81 0 -21 6 -48 14 -58 12 -18 14 -18 22 -3 6 9 14 17 19 17 27
1 33 16 39 106 8 97 14 112 50 126 11 4 15 10 10 14 -25 17 -2 172 25 172 9 0
23 57 21 88 -2 12 3 22 10 22 8 0 10 14 6 47 -4 34 0 55 14 80 10 18 19 42 19
53 0 10 4 21 9 24 5 3 11 20 14 38 12 75 31 133 46 145 15 12 14 14 -2 27 -17
13 -18 30 -12 232 3 121 10 239 15 264 5 25 13 78 16 118 5 60 4 72 -9 72 -8
0 -20 -15 -27 -32 -21 -56 -41 -98 -45 -98 -3 0 -4 3 -3 8 0 4 -2 15 -7 26 -7
16 -1 53 21 131 3 11 7 37 10 58 2 21 7 44 11 50 4 7 8 27 10 44 1 18 10 44
20 57 23 32 101 81 125 80 9 -1 15 3 12 7 -8 14 53 10 120 -7 33 -9 71 -18 82
-19 12 -2 31 -8 43 -14 11 -7 21 -10 21 -7 0 3 14 0 30 -5 17 -6 30 -15 30
-21 0 -5 4 -7 10 -3 5 3 26 -2 47 -11 21 -9 65 -25 98 -36 33 -11 96 -37 139
-59 43 -22 81 -37 84 -34 3 3 15 -1 26 -8 12 -8 44 -19 71 -26 28 -7 57 -18
65 -25 16 -14 156 -28 310 -31 52 0 111 -4 130 -9 109 -23 129 -29 127 -39 -1
-7 14 -13 34 -15 27 -2 38 -9 42 -23 3 -11 14 -19 27 -19 12 0 34 -6 48 -14
15 -8 46 -22 70 -31 23 -10 42 -22 42 -26 0 -16 68 -59 101 -64 78 -12 278
-16 336 -6 53 8 69 7 115 -10 29 -11 69 -33 88 -48 19 -15 44 -33 56 -39 11
-6 64 -54 117 -106 56 -55 105 -96 116 -96 11 0 22 -4 25 -9 8 -12 82 -25 95
-16 7 3 7 14 1 30 -7 19 -5 26 16 39 13 9 24 14 24 10 0 -4 6 -2 13 4 8 7 26
6 56 -5 63 -21 89 -41 93 -69 2 -14 6 -25 10 -25 17 0 132 -130 181 -204 48
-71 63 -108 81 -195 5 -23 7 -160 4 -220 -1 -14 1 -64 5 -112 4 -57 3 -89 -4
-94 -6 -3 -8 -21 -4 -43 4 -28 2 -41 -9 -50 -9 -7 -13 -17 -11 -22 3 -4 1 -16
-4 -26 -5 -10 -12 -26 -15 -35 -3 -11 -11 -15 -21 -12 -13 5 -13 3 -1 -21 17
-32 14 -129 -4 -150 -7 -8 -13 -31 -14 -52 -5 -75 -4 -73 -38 -73 -29 0 -30
-1 -15 -18 22 -24 21 -38 -3 -62 -19 -19 -19 -20 -1 -29 31 -17 35 -43 9 -63
-22 -17 53 -18 1780 -18 l1802 0 0 219 c0 121 -3 221 -8 223 -10 4 -129 151
-161 198 -24 36 -68 86 -133 150 -21 20 -38 41 -38 47 0 15 -50 57 -128 107
-40 25 -75 46 -78 46 -3 0 -18 8 -32 19 -15 10 -54 33 -87 51 -33 18 -63 38
-67 43 -7 11 -56 39 -193 107 -44 22 -87 45 -95 50 -8 5 -55 28 -105 51 -49
22 -124 58 -165 79 -41 20 -87 40 -102 44 -15 3 -50 20 -78 36 -28 17 -54 30
-57 30 -11 0 -104 43 -188 86 -44 23 -109 54 -145 69 -36 14 -92 39 -125 55
-98 46 -176 81 -235 102 -30 12 -60 25 -67 30 -13 10 -430 218 -438 218 -3 0
-51 22 -108 49 -56 27 -226 107 -377 179 -373 177 -427 210 -370 225 15 4 20
14 20 42 0 28 5 38 20 42 11 3 20 12 20 19 0 8 4 14 9 14 5 0 11 9 14 20 5 20
47 29 47 10 0 -5 3 -10 8 -10 9 1 42 66 42 85 0 7 8 16 18 20 11 3 24 17 30
30 14 31 28 32 36 3 8 -32 25 -5 18 29 -3 18 -1 24 7 19 6 -4 11 -1 11 8 0 14
80 116 129 165 9 9 34 39 56 66 22 28 43 52 46 55 19 16 79 104 79 116 0 25
-30 28 -53 6 l-23 -21 -18 24 c-15 20 -22 22 -37 14 -11 -5 -19 -16 -19 -24 0
-8 -9 -15 -19 -15 -11 0 -22 -6 -24 -12 -4 -9 -8 -10 -14 -2 -6 8 -17 7 -38
-2 -16 -7 -26 -13 -21 -14 6 0 1 -8 -10 -19 -10 -10 -27 -28 -37 -40 -10 -12
-22 -19 -27 -16 -6 3 -10 1 -10 -4 0 -6 -7 -11 -15 -11 -9 0 -12 -6 -8 -16 5
-15 7 -15 15 0 13 24 31 20 18 -4 -8 -15 -20 -19 -51 -18 -31 1 -43 -4 -55
-21 -8 -12 -20 -19 -25 -16 -14 9 -36 -17 -44 -53 -5 -25 -11 -32 -24 -27 -10
3 -24 -1 -31 -10 -7 -8 -9 -15 -6 -15 19 0 -21 -26 -43 -28 -14 -1 -28 -7 -32
-14 -4 -6 -14 -13 -22 -14 -8 -1 -23 -5 -34 -8 -12 -4 -25 -1 -33 9 -20 24
-33 18 -28 -15 4 -29 -11 -46 -39 -41 -7 1 -13 -3 -13 -9 0 -5 -6 -10 -14 -10
-8 0 -24 -11 -35 -26 -11 -14 -22 -25 -25 -25 -21 2 -26 0 -20 -11 4 -7 3 -8
-5 -4 -13 8 -91 -38 -91 -53 0 -5 -13 -23 -30 -39 -16 -17 -30 -37 -30 -46 0
-10 -14 -17 -45 -22 -45 -6 -49 -10 -45 -51 1 -12 -5 -32 -12 -45 -7 -13 -13
-30 -13 -38 0 -8 -11 -17 -25 -19 -14 -1 -28 -8 -32 -14 -4 -7 -14 -5 -31 6
-23 15 -25 14 -51 -11 -26 -26 -27 -27 -42 -8 -14 19 -14 19 -14 -2 0 -12 -3
-22 -8 -22 -4 0 -12 -10 -17 -22 -11 -23 -17 -27 -85 -57 -50 -21 -64 -19 -55
10 5 15 1 19 -14 19 -12 0 -21 -4 -21 -10 0 -22 -19 -8 -36 28 -16 33 -19 34
-22 14 -5 -34 -49 -30 -63 6 -11 26 -12 26 -23 7 -21 -36 -120 -124 -131 -116
-5 5 -17 7 -25 5 -67 -16 -100 -20 -110 -14 -9 5 -9 9 -1 14 20 13 13 39 -9
33 -11 -3 -22 -2 -25 3 -7 11 -87 11 -105 0 -23 -14 -47 6 -45 39 1 26 -1 29
-16 20 -13 -6 -22 -4 -33 7 -9 8 -20 13 -25 9 -11 -6 -29 23 -41 64 l-7 26
-13 -30 c-7 -16 -13 -32 -12 -35 0 -3 -16 -6 -37 -7 -37 -2 -38 -1 -39 34 -1
26 5 43 23 61 14 14 25 28 25 33 0 5 7 6 15 3 8 -3 20 -2 27 3 20 12 -53 21
-80 9 -20 -8 -27 -6 -43 14 l-19 25 0 -23 c0 -27 -24 -39 -45 -22 -12 10 -15
10 -15 -3 0 -8 17 -29 37 -45 l38 -30 -29 -27 c-29 -26 -54 -29 -47 -4 2 8 6
22 8 31 6 22 -19 24 -36 4 -18 -21 -62 -26 -88 -9 -19 13 -23 13 -23 2 0 -18
40 -44 61 -41 9 2 22 -4 29 -13 18 -22 -15 -32 -39 -11 -10 9 -25 16 -34 16
-20 0 -57 30 -57 47 0 6 9 14 19 18 10 3 22 16 25 28 3 13 26 37 51 55 25 18
43 37 40 42 -8 12 -32 3 -79 -32 -22 -15 -44 -28 -49 -28 -5 0 -20 -9 -34 -20
-30 -24 -51 -27 -29 -4 9 8 16 21 16 29 0 17 -25 26 -38 13 -7 -7 -17 -6 -32
2 -19 10 -21 17 -16 52 l7 40 -76 -7 c-64 -6 -75 -5 -75 8 0 9 -13 18 -30 22
-17 4 -30 13 -30 21 0 8 -6 17 -14 20 -8 3 -12 12 -9 20 4 10 -2 14 -20 14
-14 0 -27 5 -29 10 -2 6 -19 2 -40 -10 -32 -17 -47 -19 -97 -12 -32 5 -68 5
-80 0 -27 -10 -51 0 -44 18 6 16 -39 36 -62 28 -20 -8 -19 10 2 27 11 10 14
10 9 2 -5 -9 1 -13 19 -13 24 0 25 2 11 15 -9 10 -40 17 -85 19 -65 4 -119 24
-104 39 7 7 -10 10 -39 8 -9 -1 -19 3 -23 9 -4 7 -11 5 -21 -5 -9 -8 -27 -15
-41 -15 -21 0 -24 4 -20 21 4 14 -3 33 -19 54 -13 17 -24 37 -24 42 0 6 -27
19 -59 29 -49 16 -60 24 -64 44 -7 34 -1 41 28 30 22 -8 25 -7 25 14 0 14 -7
26 -17 29 -10 2 -27 8 -37 13 -16 6 -18 4 -14 -19 4 -19 0 -27 -14 -30 -10 -3
-21 -1 -24 4 -3 5 -9 7 -14 4 -11 -7 -71 70 -62 80 4 5 2 5 -5 1 -14 -8 -63
12 -81 34 -10 11 -11 11 -6 1 5 -9 3 -12 -4 -7 -7 4 -12 14 -12 21 0 14 -46
32 -56 22 -3 -3 -15 5 -28 17 -12 11 -38 35 -57 51 -19 17 -39 40 -45 50 -6
11 -18 20 -26 20 -22 0 -49 32 -46 52 2 13 -4 18 -22 20 -14 0 -30 1 -37 2 -6
1 -15 16 -19 33 -4 18 -9 28 -11 21 -3 -9 -11 -9 -31 -1 -43 19 -55 30 -41 39
25 15 0 37 -52 44 -37 5 -53 12 -56 25 -3 10 -16 21 -30 25 -24 6 -24 7 -9 30
20 30 20 35 1 35 -8 0 -20 10 -26 23 -20 37 -56 76 -64 69 -5 -4 -5 -1 -1 6 5
8 -2 22 -19 38 -14 13 -23 29 -20 34 4 6 1 9 -6 8 -6 -2 -14 3 -17 11 -3 9 0
11 8 6 9 -5 11 -4 6 4 -4 6 -11 9 -16 6 -5 -3 -11 -1 -15 5 -6 9 6 14 31 11 6
-1 11 6 11 14 0 9 -6 14 -13 11 -7 -3 -10 2 -7 14 3 10 -1 28 -7 41 -11 19
-14 20 -24 8 -13 -17 -46 -24 -46 -10 0 20 12 41 21 35 5 -3 9 -1 9 4 0 17
-12 21 -35 12 -27 -10 -40 1 -47 42 -4 19 -1 28 7 28 7 0 16 7 19 16 8 22 8
26 -3 19 -13 -7 -31 25 -31 54 0 5 -16 15 -35 21 -36 12 -46 34 -20 44 21 8
19 23 -4 31 -11 3 -26 20 -35 38 -10 18 -25 46 -35 62 -12 21 -16 37 -10 52 5
13 4 23 -2 25 -5 2 -2 13 7 26 13 19 21 22 51 16 26 -5 34 -4 29 5 -4 6 -3 11
3 11 6 0 8 6 5 14 -3 8 -1 17 5 21 6 3 11 19 11 34 0 26 -4 29 -47 35 -70 9
-82 19 -58 46 33 36 27 96 -12 135 -39 39 -40 44 -13 73 26 28 27 46 1 32 -35
-18 -51 -12 -51 20 0 17 -4 30 -9 30 -5 0 -11 12 -13 28 -2 20 -9 28 -27 30
-14 2 -21 0 -17 -6 9 -15 -42 -52 -72 -52 -20 0 -22 3 -13 14 7 8 13 29 13 46
1 25 5 31 19 27 12 -3 19 3 23 19 4 13 12 23 18 21 14 -2 29 76 22 115 -5 24
-8 26 -24 18 -10 -6 -30 -10 -44 -10 -14 0 -28 -4 -31 -10 -4 -6 -13 -5 -25 2
-11 7 -15 15 -11 18 5 3 11 14 13 25 2 14 -3 21 -19 23 -25 4 -28 14 -13 43 8
14 8 19 -2 17 -24 -6 -13 28 20 61 32 32 34 38 29 82 -5 39 -3 50 11 58 14 8
14 11 2 26 -31 37 10 129 62 139 15 3 32 14 37 25 10 18 8 19 -17 15 -15 -3
-35 -6 -44 -7 -10 -1 -18 -5 -18 -9 0 -5 -9 -4 -20 2 -14 7 -20 8 -20 0 0 -6
-11 -16 -25 -22 -30 -14 -32 -24 -4 -31 19 -5 19 -7 6 -34 -8 -15 -15 -45 -15
-67 0 -21 -5 -43 -11 -49 -8 -8 -11 -6 -11 7 0 9 -4 15 -9 12 -12 -8 -30 39
-21 55 11 17 -7 40 -25 33 -9 -4 -13 1 -12 14 0 12 4 20 7 20 22 -2 40 4 36
11 -3 5 2 12 11 15 12 5 14 9 5 18 -7 7 -12 16 -12 22 0 5 3 7 6 3 4 -3 20 1
35 9 22 11 34 12 49 4 18 -10 22 -7 36 25 12 29 18 34 28 26 10 -9 15 -7 19
10 4 16 2 19 -11 15 -13 -5 -12 -3 2 9 11 8 17 16 13 16 -7 1 -22 5 -31 8 -3
0 2 17 10 36 7 19 14 47 14 62 0 16 9 45 20 66 11 20 20 56 20 79 0 57 16 83
25 42 13 -54 16 -64 24 -60 10 6 1 75 -10 82 -13 8 -11 92 2 100 6 3 14 1 18
-5 8 -12 26 17 35 58 3 16 0 25 -12 28 -16 4 -16 11 -7 76 5 40 14 78 19 86
19 29 15 76 -10 113 -29 45 -36 158 -9 158 8 0 15 -7 15 -15 0 -8 7 -15 15
-15 17 0 21 16 5 22 -11 3 -14 88 -7 227 5 83 8 96 31 120 22 23 26 38 32 126
4 55 11 103 17 106 5 4 0 12 -11 18 -19 10 -20 18 -17 107 2 53 9 102 16 110
6 8 9 14 7 14 -3 0 0 24 7 53 10 43 10 55 -1 65 -15 14 -20 87 -5 78 5 -4 12
0 14 6 4 10 6 10 6 0 2 -24 21 -1 21 24 0 18 -5 24 -16 22 -29 -5 -26 19 5 49
36 35 50 73 26 73 -14 0 -16 7 -12 38 12 88 18 107 52 150 19 25 35 50 35 56
0 5 14 25 32 43 41 42 29 54 -17 18 -36 -27 -36 -27 -42 -6 -3 12 -13 21 -24
21 -40 0 -28 46 18 71 13 7 23 19 23 28 0 8 12 25 28 37 35 29 25 38 -21 19
-35 -15 -37 -14 -37 5 0 11 -5 20 -11 20 -16 0 0 59 29 102 14 21 21 42 17 46
-4 4 -10 1 -12 -5 -5 -15 -33 -18 -33 -4 0 5 12 16 26 26 20 13 23 19 14 30
-6 8 -24 15 -38 17 -23 3 -27 7 -24 33 2 17 9 39 16 50 7 11 15 27 18 36 6 14
3 14 -28 0 -18 -9 -33 -23 -34 -32 0 -9 -7 -22 -15 -29 -8 -7 -15 -20 -15 -30
0 -22 -25 -44 -40 -35 -14 8 -13 45 1 45 8 0 8 4 -1 14 -8 10 -8 21 -2 32 9
16 11 15 21 -5 14 -26 26 -20 46 22 8 18 20 40 27 49 20 27 0 33 -32 10 -41
-31 -75 -29 -52 3 29 43 140 78 126 40 -11 -27 13 -16 63 29 52 47 54 76 2 32
-22 -18 -42 -26 -67 -26 -21 1 -50 0 -67 0 -47 -3 -48 -2 -27 33 11 17 22 46
25 64 5 26 3 33 -13 38 -16 5 -18 10 -10 25 8 15 6 19 -13 22 -21 3 -22 7 -10
51 4 12 0 17 -14 17 -14 0 -22 -12 -32 -47 -14 -46 -54 -104 -93 -131 -16 -12
-17 -10 -14 15 2 15 9 41 15 56 9 24 8 33 -9 57 -37 52 -19 97 56 146 23 16
34 54 15 54 -6 0 -6 12 -1 30 5 17 7 40 5 51 -3 14 12 36 51 75 30 30 59 54
64 54 5 0 17 11 26 25 16 25 12 45 -9 45 -7 0 -18 9 -24 19 -10 17 -10 21 5
25 9 3 30 31 46 61 16 30 32 55 37 55 11 0 59 82 53 91 -3 5 -11 6 -19 2 -8
-3 -16 0 -16 6 -2 15 -4 23 -13 44 -6 12 0 27 17 50 32 42 78 87 88 87 4 0 14
6 21 13 15 13 111 62 142 71 11 4 16 12 12 21 -3 8 -9 22 -12 29 -4 10 5 20
28 30 18 7 45 26 61 40 15 15 27 22 27 16 0 -16 38 -12 58 8 10 10 31 17 51
16 19 0 35 5 38 13 3 7 17 13 32 13 15 0 36 6 47 14 11 8 31 16 44 18 17 2 26
10 28 27 3 20 8 22 32 17 18 -3 34 0 43 8 28 29 95 54 160 61 37 4 70 11 73
16 3 5 35 9 71 9 54 0 66 -3 70 -18 3 -14 15 -19 46 -20 l42 -1 -30 14 c-16 8
-35 14 -41 15 -7 0 -14 9 -17 21 -4 14 1 22 16 28 21 8 20 9 -10 25 -18 9 -40
16 -50 17 -12 0 -8 5 12 14 56 26 102 13 75 -20 -10 -13 -8 -15 13 -15 32 0
43 16 20 29 -17 9 -17 10 1 17 24 9 124 -42 122 -63 -1 -16 64 -43 107 -43 32
0 34 10 7 35 -39 35 -14 43 65 20 16 -5 21 -1 22 14 1 14 -9 26 -33 37 -73 35
-41 58 36 25 27 -11 58 -21 70 -21 12 0 34 -9 49 -19 30 -22 58 -14 48 13 -8
21 2 46 19 46 8 0 14 4 14 9 0 10 -53 31 -78 31 -13 0 -13 -3 1 -18 17 -18 23
-42 11 -42 -4 0 -28 16 -55 35 -27 19 -61 38 -76 41 -27 7 -43 20 -43 37 0 12
22 8 39 -7 9 -8 30 -17 47 -20 26 -6 32 -4 37 13 2 10 0 24 -6 30 -6 6 -8 14
-4 17 8 9 38 -16 32 -26 -8 -13 46 -60 69 -60 20 0 61 -20 41 -20 -5 0 1 -7
14 -16 17 -12 25 -14 30 -5 4 6 15 9 24 5 9 -3 15 -10 12 -15 -3 -4 -12 -6
-19 -3 -28 11 -28 -19 0 -42 33 -27 46 -30 38 -10 -3 9 5 21 20 31 30 20 33
37 10 59 -8 9 -10 16 -4 16 6 0 13 -7 17 -16 4 -11 13 -14 32 -9 31 8 41 21
41 58 0 33 23 36 45 5 13 -19 17 -21 25 -8 5 8 6 18 4 22 -7 12 19 35 34 30 7
-2 10 2 6 12 -4 10 -1 16 9 16 9 0 17 -14 22 -37 4 -21 12 -44 18 -52 9 -10 6
-17 -11 -31 -29 -24 -14 -33 27 -17 28 10 34 10 45 -6 17 -22 22 -22 59 5 17
12 42 23 56 24 14 2 47 6 74 10 41 6 47 5 41 -10 -8 -20 8 -21 46 -1 19 10 31
11 35 5 4 -6 20 -16 38 -23 l31 -13 -37 -22 c-47 -27 -49 -46 -3 -38 25 5 35
3 40 -9 5 -14 9 -14 42 0 41 17 94 20 94 5 0 -5 -16 -16 -35 -24 -31 -13 -47
-34 -27 -37 14 -2 107 -7 151 -8 44 -1 50 -12 9 -18 -12 -2 -24 -6 -27 -9 -10
-10 24 -24 49 -20 22 4 23 3 7 -9 -25 -18 -6 -27 45 -20 39 6 41 5 24 -9 -23
-19 -13 -36 23 -36 15 0 32 -5 37 -10 14 -14 44 -20 144 -27 47 -3 88 -10 92
-16 3 -6 19 -12 34 -14 15 -2 35 -8 45 -14 28 -15 181 -49 219 -49 20 0 41 -5
46 -10 19 -19 68 -17 85 3 11 14 22 17 37 13 12 -4 22 -10 22 -14 0 -4 32 -6
70 -4 51 2 77 -2 95 -14 13 -9 39 -17 57 -19 44 -4 91 -16 103 -26 6 -4 23 -6
37 -5 15 2 25 0 23 -4 -3 -5 10 -8 28 -9 32 -1 102 -9 102 -11 0 -1 16 -3 35
-6 57 -8 65 -10 76 -16 33 -21 231 -40 367 -36 87 2 117 0 117 -9 0 -9 7 -10
26 -3 22 9 40 4 113 -32 47 -23 100 -51 116 -63 34 -25 105 -42 105 -25 0 7 6
7 18 1 22 -12 115 -36 126 -33 14 5 85 -79 96 -114 7 -19 16 -34 21 -34 5 0 9
-12 9 -26 0 -16 10 -34 24 -45 34 -26 114 -199 112 -239 -1 -14 7 -31 17 -39
14 -10 17 -21 13 -42 -3 -15 -1 -31 4 -34 6 -4 8 -11 4 -16 -3 -5 0 -16 6 -24
7 -8 9 -15 5 -15 -4 0 -1 -7 6 -17 16 -18 19 -65 5 -74 -5 -4 -5 -13 0 -20 12
-19 14 -40 4 -34 -5 3 -8 -4 -7 -15 1 -10 7 -22 14 -24 16 -7 17 -58 1 -74 -9
-9 -9 -17 1 -35 9 -17 9 -33 1 -67 -6 -25 -11 -51 -10 -57 7 -72 -19 -397 -31
-401 -5 -2 -7 -7 -4 -12 9 -14 9 -135 0 -150 -14 -23 -14 -132 0 -160 7 -14
12 -56 11 -95 -1 -38 1 -79 5 -91 4 -11 10 -36 13 -55 3 -19 12 -70 20 -114 8
-44 12 -84 9 -89 -3 -4 -1 -11 5 -15 7 -4 14 -47 16 -96 2 -50 10 -122 16
-162 14 -89 10 -138 -10 -138 -9 0 -16 11 -18 27 -2 15 -15 40 -30 55 -15 16
-33 40 -41 55 -15 29 -43 46 -49 29 -5 -16 -62 -14 -62 3 0 17 -60 30 -74 16
-5 -5 -15 -10 -21 -10 -17 0 -75 60 -75 79 0 25 -65 63 -123 73 -107 18 -124
18 -153 3 -16 -8 -35 -15 -42 -15 -7 0 -20 -7 -28 -15 -11 -11 -26 -13 -55 -9
-42 7 -47 3 -24 -19 13 -13 4 -15 -72 -15 -79 1 -87 -1 -94 -20 -7 -19 -14
-20 -66 -15 -58 5 -58 5 -33 -13 l24 -18 -24 -6 c-14 -4 -39 -3 -56 0 -35 8
-116 -21 -180 -65 -20 -14 -55 -30 -78 -37 -23 -6 -46 -16 -53 -21 -7 -5 -17
-6 -22 -3 -5 4 -22 -9 -37 -29 -17 -23 -35 -35 -50 -35 -17 0 -24 -6 -24 -19
0 -11 -2 -26 -5 -33 -4 -9 5 -20 22 -28 15 -8 35 -19 43 -26 27 -20 47 -23 75
-8 15 8 50 16 79 18 66 5 91 11 206 49 107 34 365 129 400 146 8 5 38 13 67
20 43 11 56 10 81 -3 33 -17 162 -46 205 -46 15 0 35 5 45 11 25 16 126 -21
130 -47 2 -11 24 -37 48 -60 30 -28 45 -51 48 -72 2 -18 9 -39 16 -47 7 -8 20
-30 30 -47 19 -36 40 -48 40 -24 0 9 -4 16 -10 16 -5 0 -1 9 10 20 22 22 25
36 10 45 -15 10 -12 52 6 70 26 26 41 1 49 -78 10 -106 14 -144 24 -222 6 -38
13 -101 16 -140 11 -133 22 -226 29 -232 4 -4 4 56 2 133 -3 76 -5 155 -5 174
-1 19 -5 50 -10 67 -9 31 -4 80 24 263 4 25 8 127 8 227 0 150 -2 186 -15 200
-13 15 -14 30 -6 93 5 41 11 104 13 140 2 36 10 108 19 160 8 52 20 122 25
155 16 102 33 277 31 330 -2 102 0 144 14 296 9 86 21 169 27 185 20 47 15
747 -6 844 -17 84 -15 100 16 100 19 0 21 4 15 48 -3 26 -9 79 -12 118 l-6 71
40 34 c22 19 51 35 63 36 46 4 47 35 4 93 -16 21 -45 117 -45 149 0 15 -17 46
-40 76 -45 57 -46 60 -24 103 12 26 13 35 3 54 -7 13 -12 39 -10 59 1 28 -8
51 -39 97 -22 33 -44 63 -50 67 -5 3 -10 19 -10 36 0 18 -14 50 -37 81 -26 38
-37 64 -38 93 -1 28 -10 53 -30 79 -28 36 -28 39 -11 51 23 17 12 35 -20 35
-30 0 -64 16 -64 31 0 5 11 7 25 3 24 -6 24 -5 13 26 -13 38 3 55 35 38 10 -5
21 -8 23 -5 5 5 -23 73 -44 105 -9 14 -18 34 -19 46 -2 12 -5 34 -7 50 -4 21
1 34 17 47 l22 19 -36 32 c-19 18 -48 43 -64 56 l-29 22 32 0 c18 0 32 3 32 8
0 4 -25 25 -55 46 -43 32 -53 44 -49 61 4 18 -4 27 -54 53 -62 33 -85 53 -88
80 -2 9 -12 23 -24 32 -19 15 -20 18 -6 44 8 16 13 37 11 48 -3 11 2 33 10 49
8 15 15 30 15 33 0 7 -61 26 -83 26 -12 0 -33 11 -47 25 l-27 26 -1 -43 c-1
-23 -7 -45 -13 -49 -6 -4 -9 -12 -5 -18 11 -17 -5 -82 -22 -88 -9 -4 -23 3
-34 17 -16 20 -22 21 -41 12 -12 -7 -35 -11 -52 -10 -25 3 -31 -1 -33 -22 -6
-40 -21 -48 -41 -21 -15 19 -23 22 -49 16 -18 -3 -32 -10 -32 -15 0 -4 -14
-13 -30 -20 -28 -11 -63 -43 -131 -117 -38 -41 -90 -55 -140 -38 -38 14 -40
13 -69 -15 -36 -35 -60 -39 -60 -9 0 25 56 83 90 94 26 8 61 46 53 57 -2 5
-19 8 -38 8 -19 0 -37 5 -40 10 -4 6 -21 -2 -41 -20 -33 -28 -94 -43 -94 -21
0 12 -48 1 -61 -15 -9 -12 -6 -13 20 -8 18 4 37 2 45 -5 8 -6 18 -11 22 -10
27 5 36 -1 24 -16 -9 -10 -17 -12 -30 -5 -18 10 -80 -7 -80 -22 0 -4 -6 -8
-14 -8 -10 0 -13 15 -12 60 1 42 5 60 14 60 7 0 11 4 7 10 -3 5 -13 6 -22 3
-13 -5 -15 -2 -10 19 5 18 2 28 -8 32 -20 7 -19 36 0 36 8 0 15 4 15 10 0 5
18 21 40 35 42 27 50 48 24 63 -13 7 -13 13 -3 35 7 15 15 27 19 27 3 0 15 8
26 18 29 25 121 72 141 72 9 0 31 14 48 30 29 28 33 29 45 15 7 -9 14 -36 16
-61 1 -25 4 -48 7 -51 3 -3 16 6 29 19 33 35 58 42 58 18 0 -30 20 -24 31 10
6 17 17 30 25 30 8 0 14 8 13 18 0 9 -3 12 -5 6 -3 -7 -14 -9 -26 -6 -14 3
-19 1 -14 -6 9 -15 -10 -25 -35 -17 -11 4 -22 19 -26 36 -8 40 -23 50 -62 39
-33 -9 -61 -4 -61 11 0 5 -6 9 -14 9 -17 0 -86 98 -86 122 0 10 -10 26 -21 37
-14 13 -20 27 -16 40 8 30 -14 52 -55 54 -20 1 -40 6 -44 10 -10 10 -26 9 -20
-2 7 -11 -65 -3 -80 10 -7 6 -75 9 -163 8 l-151 -1 -29 -29 c-32 -32 -67 -40
-57 -13 9 24 -22 43 -71 44 -44 0 -55 -9 -59 -47 -2 -21 0 -22 19 -11 12 6 27
18 33 26 14 20 36 11 53 -21 12 -22 12 -28 0 -40 -21 -20 -59 -39 -96 -48 -32
-7 -33 -6 -33 27 0 30 -4 35 -30 41 -16 3 -30 9 -30 14 0 5 -9 9 -20 9 -24 0
-25 -8 -3 -32 15 -17 15 -20 3 -29 -8 -5 -28 -8 -45 -7 -56 2 -167 -75 -149
-104 2 -4 -4 -7 -13 -7 -73 2 -188 -11 -191 -21 -6 -16 -132 -110 -148 -110
-30 0 -11 35 47 91 34 32 66 59 73 59 6 0 20 8 31 17 19 15 19 15 -7 9 -22 -5
-28 -3 -28 10 0 10 3 15 6 11 3 -3 16 5 29 19 12 13 27 24 33 24 6 0 18 7 26
16 15 14 14 17 -6 34 l-23 19 21 1 c14 0 24 -8 27 -22 6 -21 7 -21 25 -5 10 9
23 17 29 17 6 0 13 5 15 10 2 6 14 12 27 15 12 2 28 8 35 14 6 5 20 11 31 14
11 2 -54 5 -145 6 -158 1 -166 0 -190 -21 -74 -66 -122 -81 -128 -40 -2 13 2
22 10 22 8 0 14 9 15 20 2 18 -7 19 -325 18 -185 0 -345 -5 -369 -10z m1722
-41 c-1 -20 6 -30 26 -39 15 -7 25 -16 22 -21 -3 -4 -7 -22 -10 -40 -3 -17
-16 -42 -29 -56 -13 -13 -24 -28 -24 -32 0 -12 -97 -11 -105 0 -3 5 6 31 20
58 28 52 24 59 -30 49 -53 -10 -62 -30 -28 -60 l28 -25 -24 -1 c-14 0 -33 7
-43 17 -11 10 -33 16 -58 15 -22 -1 -40 3 -40 8 0 11 40 30 75 37 11 2 22 8
23 14 2 5 31 23 63 40 33 16 69 39 80 50 28 28 54 21 54 -14z m-1208 -4 c-4
-3 -2 -12 3 -18 14 -17 -11 -37 -30 -25 -12 7 -11 12 4 29 11 12 21 21 24 21
3 0 2 -3 -1 -7z m-377 -23 c8 -5 11 -10 5 -10 -5 0 -17 5 -25 10 -8 5 -10 10
-5 10 6 0 17 -5 25 -10z m324 -55 c28 -25 29 -58 4 -54 -36 4 -60 -4 -91 -31
-34 -29 -77 -33 -77 -6 0 17 80 93 110 105 14 5 25 10 26 10 1 1 13 -10 28
-24z m-174 -28 c0 -4 -10 -21 -22 -37 -19 -26 -20 -33 -9 -54 14 -26 8 -46
-14 -46 -8 0 -26 -16 -41 -35 -30 -40 -43 -43 -67 -15 -22 26 -22 37 6 70 12
15 31 40 42 55 40 56 60 74 83 72 12 -1 22 -5 22 -10z m-1162 -6 c10 -6 10
-11 -3 -21 -14 -12 -18 -11 -25 0 -15 24 2 38 28 21z m-168 -15 c0 -16 -34
-40 -110 -78 -67 -33 -87 -35 -85 -8 2 25 22 40 100 73 68 30 95 33 95 13z
m2427 -11 c4 -13 -63 -39 -77 -30 -16 10 30 46 54 43 11 -2 21 -8 23 -13z
m-2142 -5 c4 -6 -10 -26 -31 -45 -36 -33 -45 -37 -79 -37 -8 0 -20 0 -26 1
-16 1 36 41 53 41 8 0 21 11 28 25 14 25 44 33 55 15z m1585 -5 c-7 -9 -15
-13 -17 -11 -7 7 7 26 19 26 6 0 6 -6 -2 -15z m-1480 -34 c-13 -11 -29 -17
-34 -14 -11 8 22 33 43 33 11 0 9 -6 -9 -19z m408 5 c9 -5 8 -14 -4 -37 -27
-53 -82 -20 -60 36 5 14 42 15 64 1z m212 -62 c0 -28 -14 -31 -38 -8 -15 15
-14 17 3 30 23 17 35 10 35 -22z m1445 16 c9 -15 -14 -40 -36 -40 -11 0 -19
-4 -19 -9 0 -13 39 -21 71 -14 22 4 29 2 29 -11 0 -9 -8 -16 -18 -16 -10 0
-23 -5 -30 -12 -9 -9 -12 -9 -12 1 0 7 -4 9 -10 6 -12 -7 -14 -26 -2 -23 4 1
22 -2 40 -6 35 -8 63 4 114 51 14 14 29 25 32 24 28 -5 49 3 74 29 34 34 52
38 52 13 0 -9 -3 -13 -7 -9 -4 4 -14 -8 -23 -26 -9 -21 -24 -34 -38 -36 -13
-2 -26 -10 -29 -18 -3 -8 -14 -14 -24 -14 -12 0 -23 -10 -29 -25 -5 -14 -16
-25 -25 -25 -26 0 -17 -18 22 -45 21 -14 34 -25 30 -25 -4 0 -3 -10 4 -21 9
-17 13 -19 20 -8 5 9 1 21 -13 36 -22 24 -19 53 6 53 9 0 20 9 26 19 6 13 17
17 30 14 27 -7 36 -23 19 -34 -28 -17 5 -28 46 -14 22 7 52 16 67 19 18 4 25
11 22 20 -3 8 -1 16 4 19 17 11 64 16 84 8 19 -7 19 -8 3 -24 -9 -9 -24 -17
-34 -17 -25 0 -33 -11 -19 -27 10 -13 5 -14 -32 -11 -28 2 -44 -1 -47 -9 -3
-7 2 -13 11 -13 36 0 29 -39 -10 -61 l-26 -13 24 -19 c22 -19 22 -20 5 -31
-10 -6 -31 -21 -45 -34 -18 -15 -35 -21 -49 -17 -15 3 -33 -4 -55 -23 -41 -35
-131 -82 -158 -82 -13 0 -20 7 -20 20 0 24 -4 25 -34 5 -21 -14 -25 -14 -36 1
-12 13 -11 17 1 25 8 5 22 9 31 9 22 0 48 27 48 51 0 31 -35 23 -81 -20 -32
-29 -41 -44 -36 -60 3 -11 2 -21 -1 -21 -9 0 -32 -49 -32 -66 0 -18 -29 -32
-51 -27 -12 4 -31 -8 -56 -34 -21 -22 -59 -56 -85 -77 -34 -27 -48 -46 -48
-63 0 -18 -8 -28 -30 -36 -16 -6 -30 -15 -30 -19 0 -4 -8 -8 -19 -8 -10 0 -29
-8 -42 -19 -30 -23 -84 -52 -126 -67 -25 -9 -36 -9 -49 1 -15 10 -14 14 11 33
15 12 36 22 46 22 24 0 24 9 2 26 -17 13 -17 15 1 29 12 9 41 15 72 15 37 0
59 6 78 21 37 29 27 34 -29 15 -25 -9 -51 -13 -57 -10 -14 9 43 58 101 86 25
13 48 25 51 28 3 4 24 11 46 18 39 11 74 46 74 73 0 17 -60 2 -85 -21 -31 -29
-68 -25 -103 10 -17 17 -39 30 -50 30 -11 0 -22 5 -24 12 -3 8 -17 7 -52 -5
-42 -15 -48 -15 -53 -1 -3 9 -1 19 6 23 9 6 8 11 -4 21 -14 12 -14 15 1 31 22
25 44 24 44 -1 0 -27 5 -26 96 16 44 20 92 38 109 40 49 7 63 14 68 34 3 12
14 20 25 20 37 0 54 11 41 26 -16 20 -43 17 -64 -6 -10 -11 -28 -20 -40 -20
-25 0 -166 -47 -179 -61 -6 -5 -14 -9 -18 -9 -16 0 -7 22 19 44 37 32 26 57
-20 46 -44 -9 -57 -18 -57 -35 0 -8 -16 -15 -47 -17 -27 -3 -57 -8 -68 -13
-12 -4 -6 5 15 24 19 17 45 36 58 41 39 17 26 33 -21 27 -41 -6 -43 -5 -42 21
0 21 -5 28 -22 30 -15 2 -23 10 -23 22 0 25 17 34 58 32 23 -2 44 5 66 21 17
13 42 27 55 32 30 9 71 -12 71 -37 0 -13 8 -18 31 -18 29 0 30 2 24 30 -4 18
-2 36 4 44 9 10 8 21 0 40 -7 14 -9 29 -6 33 14 14 79 3 95 -16 17 -19 97 -41
152 -41 18 0 39 10 54 25 14 14 36 25 50 25 18 0 30 9 41 30 16 30 38 39 50
20z m135 -16 c0 -8 -9 -14 -20 -14 -22 0 -28 26 -7 33 16 6 27 -1 27 -19z
m-2470 -14 c0 -5 -2 -10 -4 -10 -2 0 -12 -3 -20 -6 -12 -5 -15 -2 -10 10 7 17
34 22 34 6z m1240 -4 c0 -3 -4 -8 -10 -11 -5 -3 -10 -1 -10 4 0 6 5 11 10 11
6 0 10 -2 10 -4z m-840 -30 c0 -15 -21 -26 -47 -26 -12 0 -10 5 7 20 27 23 40
25 40 6z m1770 3 c0 -11 -27 -12 -34 -1 -2 4 4 9 15 9 10 1 19 -2 19 -8z m540
-8 c0 -5 -7 -14 -15 -21 -12 -10 -15 -10 -15 2 0 8 3 18 7 21 9 10 23 9 23 -2z
m-3636 -20 c13 -1 -15 -31 -29 -31 -14 0 -27 24 -19 33 3 3 13 4 22 2 9 -2 21
-4 26 -4z m2109 -51 c-16 -15 -53 -22 -53 -9 0 20 33 39 48 27 7 -6 9 -14 5
-18z m-1843 5 c-7 -8 -26 -19 -44 -24 -59 -19 -136 -48 -143 -55 -12 -11 -33
-6 -33 8 0 20 39 46 70 46 14 1 41 9 60 20 19 11 50 19 69 20 28 0 32 -2 21
-15z m1944 -30 c6 -18 -25 -37 -43 -26 -10 6 -9 12 4 25 20 20 31 20 39 1z
m-1053 -15 c-24 -20 -81 -28 -81 -10 0 15 33 29 70 29 l35 0 -24 -19z m897
-12 c-6 -18 -28 -21 -28 -4 0 9 7 16 16 16 9 0 14 -5 12 -12z m-801 -31 c-4
-14 -127 -77 -150 -77 -10 0 -17 -5 -15 -12 2 -6 -6 -21 -18 -32 -12 -12 -38
-36 -57 -55 l-36 -34 -12 26 c-6 14 -17 23 -24 21 -6 -3 -18 2 -25 11 -16 20
-92 19 -145 -1 -22 -9 -52 -18 -67 -21 -18 -3 -28 -12 -30 -27 -2 -16 -11 -22
-37 -24 -38 -4 -35 13 5 28 13 5 29 21 34 35 5 14 24 31 45 39 19 8 35 18 35
21 0 3 -4 4 -8 1 -4 -2 -14 -1 -22 4 -34 21 112 58 255 64 60 2 115 12 165 28
74 24 114 26 107 5z m1153 -4 c25 -32 22 -57 -8 -61 -13 -2 -22 -10 -22 -21 0
-14 6 -17 33 -13 17 3 41 11 52 18 11 7 30 11 43 7 25 -6 30 -23 6 -23 -9 0
-33 -19 -54 -41 l-38 -42 -56 8 c-47 5 -55 9 -46 20 7 8 19 14 28 13 41 -3 62
3 62 18 0 8 -4 12 -10 9 -5 -3 -16 -3 -22 2 -7 4 -38 6 -69 5 -59 -4 -79 7
-54 28 8 7 15 18 15 24 0 18 73 75 97 76 12 0 31 -12 43 -27z m1435 -33 c-10
-11 -26 -20 -37 -20 -11 0 -18 7 -18 20 0 16 7 20 37 20 35 0 36 0 18 -20z
m-1745 -20 c0 -5 -4 -10 -8 -10 -4 0 -13 -13 -19 -30 -7 -20 -18 -30 -32 -30
-14 0 -19 5 -15 15 4 8 10 15 15 15 5 0 15 11 21 25 11 24 38 35 38 15z m-167
-27 c-7 -2 -19 -2 -25 0 -7 3 -2 5 12 5 14 0 19 -2 13 -5z m-75 -54 c1 -9 -9
-32 -22 -52 l-25 -37 27 0 27 -1 -31 -27 c-74 -63 -87 -72 -106 -72 -14 0 -18
-5 -14 -15 6 -17 -22 -35 -57 -35 -14 0 -27 -7 -30 -14 -3 -8 -20 -22 -37 -31
-17 -9 -53 -32 -78 -52 -87 -66 -215 -110 -199 -68 8 19 -10 30 -28 15 -7 -6
-37 -13 -66 -16 -29 -3 -57 -7 -63 -10 -6 -3 -2 2 8 10 11 9 26 16 33 16 7 0
40 9 72 20 33 12 77 20 98 19 54 -4 103 31 103 71 0 38 -12 44 -41 22 -15 -11
-44 -19 -77 -20 -30 -1 -70 -11 -92 -22 -22 -11 -50 -20 -62 -20 -38 0 -68
-12 -68 -26 0 -7 -11 -16 -25 -20 -31 -8 -32 -20 -3 -28 17 -4 20 -8 11 -17
-9 -9 -19 -9 -41 0 -16 7 -38 11 -47 9 -34 -6 -25 18 12 36 21 10 32 21 26 23
-7 3 -13 9 -13 14 0 12 88 55 130 63 19 3 53 15 75 26 22 10 52 24 68 29 15 6
27 16 27 23 1 20 84 68 118 68 57 0 50 -25 -15 -59 -70 -35 -53 -46 60 -41 49
2 107 26 107 44 0 7 27 26 61 41 41 18 59 31 55 41 -3 7 4 18 14 24 11 6 20
17 20 24 0 18 59 68 74 63 6 -2 12 -10 14 -18z m120 -37 c-2 -10 -12 -16 -23
-14 -11 1 -28 3 -37 4 -18 2 -23 10 -12 20 3 3 21 6 40 6 27 0 34 -4 32 -16z
m-260 -1 c10 -6 2 -13 -27 -25 -50 -19 -90 -21 -45 -2 18 8 35 19 38 25 8 13
16 14 34 2z m-933 -21 c-3 -5 -15 -10 -26 -10 -11 0 -17 5 -14 10 3 6 15 10
26 10 11 0 17 -4 14 -10z m2950 0 c-11 -5 -29 -9 -40 -9 -17 -1 -17 1 -5 9 8
5 26 9 40 9 23 0 23 -1 5 -9z m-1260 -27 c-19 -13 -35 -17 -35 -9 0 12 33 35
42 30 7 -5 4 -12 -7 -21z m-865 -3 c0 -5 -5 -10 -11 -10 -5 0 -7 5 -4 10 3 6
8 10 11 10 2 0 4 -4 4 -10z m3198 -7 c74 -48 53 -74 -35 -41 -70 26 -67 24
-60 43 8 20 61 19 95 -2z m-3923 -32 c0 -15 -22 -23 -94 -35 -41 -6 -43 -5
-30 10 32 39 124 57 124 25z m3120 -21 c-3 -5 -12 -10 -18 -10 -7 0 -6 4 3 10
19 12 23 12 15 0z m-3767 -38 c15 -10 -26 -32 -58 -32 -27 0 -25 19 3 30 28
11 39 12 55 2z m2532 -12 c0 -24 -38 -51 -66 -48 -29 4 -26 8 22 23 13 4 14 8
4 20 -10 13 -8 15 14 15 14 0 26 -5 26 -10z m-95 -10 c-3 -5 -13 -10 -21 -10
-8 0 -12 5 -9 10 3 6 13 10 21 10 8 0 12 -4 9 -10z m-3480 -26 c12 -5 14 -9 4
-14 -14 -9 -39 -2 -39 11 0 11 12 11 35 3z m675 -4 c0 -5 -10 -10 -22 -10 -19
0 -20 2 -8 10 19 13 30 13 30 0z m3970 -5 c0 -8 -4 -15 -10 -15 -5 0 -10 7
-10 15 0 8 5 15 10 15 6 0 10 -7 10 -15z m-3628 -17 c-12 -12 -35 -1 -27 12 3
5 13 6 21 3 10 -4 12 -9 6 -15z m2145 15 c-4 -3 0 -15 9 -25 22 -24 6 -44 -44
-52 -79 -12 -135 -60 -80 -68 12 -2 23 -8 25 -15 6 -17 -35 -25 -82 -15 -42 8
-57 32 -33 54 25 24 103 62 138 68 25 4 39 13 48 33 7 15 16 27 19 27 4 0 3
-3 0 -7z m-1357 -21 c0 -4 -6 -14 -12 -20 -10 -10 -10 -15 2 -23 13 -8 12 -11
-5 -24 -23 -18 -41 -14 -38 10 1 19 0 19 -115 -14 -76 -22 -192 -36 -192 -23
0 16 101 71 160 88 50 14 200 18 200 6z m-675 -12 c-3 -5 -13 -10 -21 -10 -8
0 -14 5 -14 10 0 6 9 10 21 10 11 0 17 -4 14 -10z m3739 -5 c-4 -8 -10 -15
-14 -15 -4 0 -10 7 -14 15 -4 10 1 15 14 15 13 0 18 -5 14 -15z m-4924 -10 c0
-8 -9 -15 -20 -15 -11 0 -20 7 -20 15 0 8 9 15 20 15 11 0 20 -7 20 -15z
m3580 2 c0 -13 -60 -37 -89 -37 -17 0 12 28 41 39 33 14 48 13 48 -2z m-1455
-47 c-3 -5 -14 -10 -23 -10 -15 0 -15 2 -2 10 20 13 33 13 25 0z m-1795 -40
c0 -5 -7 -10 -15 -10 -8 0 -15 5 -15 10 0 6 7 10 15 10 8 0 15 -4 15 -10z
m1150 5 c0 -2 -9 -9 -20 -15 -12 -6 -20 -7 -20 -1 0 5 8 12 18 14 9 3 18 5 20
6 1 0 2 -1 2 -4z m270 -9 c0 -16 -14 -22 -82 -32 -40 -5 -48 -4 -48 9 0 15 7
18 90 30 14 3 28 5 33 6 4 0 7 -5 7 -13z m2201 -49 c-8 -8 -11 -7 -11 4 0 20
13 34 18 19 3 -7 -1 -17 -7 -23z m-1596 -7 c4 -6 -7 -10 -25 -10 -18 0 -29 4
-25 10 3 6 15 10 25 10 10 0 22 -4 25 -10z m-75 -9 c0 -5 -23 -17 -50 -26 -42
-14 -53 -15 -67 -4 -13 12 -9 15 33 25 63 15 84 16 84 5z m-2100 -52 c0 -5
-10 -14 -22 -18 -28 -11 -48 3 -30 21 7 7 12 21 12 33 1 19 1 19 20 -4 11 -13
20 -27 20 -32z m1875 42 c-9 -16 -145 -50 -145 -37 0 3 17 14 38 25 37 20 118
29 107 12z m-467 -109 c5 -17 -31 -28 -78 -24 -52 5 -51 18 3 30 51 12 69 11
75 -6z m292 -28 c0 -2 -12 -4 -26 -4 -14 0 -23 4 -20 9 6 8 46 4 46 -5z m1700
10 c0 -19 -24 -43 -50 -49 -27 -6 -63 -39 -72 -66 -2 -5 -27 -16 -56 -23 -42
-12 -52 -12 -52 -1 0 18 20 32 66 47 28 9 40 19 42 35 2 12 13 25 25 29 11 4
27 13 35 20 13 14 62 20 62 8z m-2040 -37 c0 -8 -16 -18 -35 -24 -39 -12 -43
-8 -17 18 20 21 52 25 52 6z m-1525 -16 c10 -18 -17 -23 -33 -7 -15 15 -15 16
5 16 12 0 24 -4 28 -9z m153 -48 c23 -20 42 -40 42 -45 0 -12 -74 -10 -107 3
-15 6 -43 13 -61 14 -19 2 -36 6 -39 9 -10 10 9 26 30 26 12 1 36 7 52 15 41
18 36 19 83 -22z m22 -133 c0 -5 -9 -10 -20 -10 -11 0 -20 5 -20 10 0 6 9 10
20 10 11 0 20 -4 20 -10z m85 -32 c14 -6 25 -17 25 -25 0 -7 5 -13 11 -13 7 0
9 -11 6 -27 -7 -36 1 -53 24 -53 15 0 17 -5 13 -29 -5 -24 -2 -29 20 -35 17
-4 26 -13 26 -26 0 -15 7 -20 25 -20 17 0 25 -6 25 -17 0 -9 8 -25 17 -36 17
-18 17 -19 -2 -33 -10 -8 -25 -14 -33 -14 -8 0 -25 -9 -39 -20 -26 -21 -53
-26 -53 -12 0 5 23 28 50 52 31 26 46 46 40 50 -16 10 -91 -5 -100 -20 -8 -14
-20 10 -20 41 0 11 -7 22 -15 26 -14 5 -14 7 0 23 17 19 11 30 -18 30 -22 0
-56 37 -57 62 0 9 -4 20 -10 23 -6 4 -2 21 10 46 23 44 20 43 55 27z m-575
-161 c0 -16 -67 -50 -75 -38 -3 5 12 18 32 29 21 11 39 20 41 21 1 0 2 -5 2
-12z m405 -8 c4 -5 -1 -19 -11 -30 -22 -25 -41 -10 -25 20 13 23 26 27 36 10z
m-132 -23 c10 -25 -15 -34 -43 -16 -13 9 -13 11 0 20 21 14 37 12 43 -4z m665
-4 c2 -6 -6 -10 -17 -9 -22 1 -26 8 -14 21 9 9 26 3 31 -12z m-909 -16 l23
-13 -23 -22 c-25 -23 -37 -23 -53 1 -7 12 -6 21 3 32 16 19 19 19 50 2z m301
-15 c0 -5 -3 -17 -6 -26 -6 -14 -8 -14 -25 1 -26 23 -24 34 6 34 14 0 25 -4
25 -9z m150 -39 c0 -8 -43 -32 -57 -32 -3 0 4 9 17 20 24 21 40 26 40 12z
m-178 -54 c-6 -6 -19 -7 -29 -4 -16 7 -16 9 7 28 23 19 25 19 28 3 2 -9 -1
-22 -6 -27z m88 -8 c-44 -44 11 -49 58 -7 20 18 24 19 32 7 5 -8 10 -21 10
-27 0 -7 10 -13 22 -13 l21 0 -21 -23 c-12 -13 -22 -35 -22 -48 0 -17 -8 -30
-24 -38 -27 -15 -62 -10 -58 7 4 21 -27 25 -53 8 -13 -9 -36 -16 -49 -16 -37
0 -23 25 25 44 21 9 39 20 39 26 0 10 -34 15 -77 11 -38 -3 -26 16 34 53 64
40 95 48 63 16z m450 -63 c0 -14 -49 -42 -57 -33 -6 6 35 46 47 46 6 0 10 -6
10 -13z m-262 -44 c-2 -22 1 -27 14 -25 25 4 31 -15 11 -36 -39 -41 -73 -29
-86 28 -5 21 -1 29 21 43 37 23 43 21 40 -10z m-679 -78 c-27 -51 -34 -54 -49
-24 -9 17 -8 25 7 41 18 20 54 39 62 32 2 -2 -7 -24 -20 -49z m201 35 c0 -4
-11 -15 -25 -24 -40 -26 -32 -45 15 -39 22 3 40 2 40 -3 -1 -22 -20 -36 -68
-49 -49 -12 -52 -12 -52 5 0 12 -8 20 -22 22 -22 3 -22 4 7 31 16 15 36 27 43
27 7 0 17 11 22 25 6 16 14 23 25 19 8 -3 15 -10 15 -14z m813 -44 c23 -18 22
-22 -14 -35 -45 -15 -76 -14 -83 5 -9 23 -8 24 17 34 32 13 59 11 80 -4z m53
-1 c-21 -16 -32 -13 -21 4 3 6 14 11 23 11 15 -1 15 -2 -2 -15z m-740 -45 c19
0 29 -47 14 -65 -19 -23 -60 -19 -60 4 0 11 5 23 10 26 6 3 10 18 11 33 0 15
3 21 6 15 2 -7 11 -13 19 -13z m-336 -7 c0 -8 -7 -24 -16 -37 -10 -16 -12 -26
-5 -31 14 -8 14 -25 1 -25 -5 0 -10 6 -10 14 0 8 -9 18 -20 21 -24 7 -26 30
-5 39 8 3 15 11 15 19 0 7 9 13 20 13 11 0 20 -6 20 -13z m-130 -2 c0 -23 -14
-41 -31 -41 -21 0 -25 20 -7 38 14 14 38 16 38 3z m2003 -46 c1 -5 -6 -11 -15
-13 -11 -2 -18 3 -18 13 0 17 30 18 33 0z m213 0 c36 -18 80 -62 71 -72 -4 -3
-17 -1 -29 6 -13 7 -35 19 -50 27 -16 8 -28 24 -28 35 0 23 -1 23 36 4z
m-2326 -5 c36 -19 60 -100 30 -100 -5 0 -14 -16 -20 -35 -13 -39 -13 -39 -42
-24 -16 9 -24 7 -42 -10 -12 -12 -25 -21 -29 -21 -16 0 -5 28 22 54 25 24 30
26 38 12 11 -19 38 -12 48 11 6 18 -10 33 -38 33 -15 0 -17 5 -12 29 4 18 2
32 -5 36 -9 6 -9 10 1 16 18 11 26 11 49 -1z m315 -51 c-3 -39 -11 -69 -21
-80 -9 -11 -14 -19 -10 -19 4 0 2 -9 -4 -20 -14 -27 -31 -25 -28 3 1 12 -2 44
-6 70 -8 45 -6 50 20 78 44 46 55 39 49 -32z m1395 51 c-20 -13 -33 -13 -25 0
3 6 14 10 23 10 15 0 15 -2 2 -10z m484 -36 c22 -8 20 -21 -3 -27 -19 -5 -41
9 -41 25 0 9 22 10 44 2z m286 -14 c0 -5 -4 -10 -9 -10 -6 0 -13 5 -16 10 -3
6 1 10 9 10 9 0 16 -4 16 -10z m-2329 -13 c-2 -29 -15 -57 -27 -57 -17 0 -18
24 -3 51 10 19 31 23 30 6z m1149 -17 c0 -5 -10 -10 -22 -10 -19 0 -20 2 -8
10 19 13 30 13 30 0z m353 -15 c-6 -17 -25 -15 -31 3 -2 7 5 12 17 12 14 0 19
-5 14 -15z m329 -27 c-19 -19 -14 -30 15 -26 15 2 28 -2 30 -9 3 -7 -1 -13 -9
-14 -7 0 -21 -2 -30 -4 -21 -4 -72 41 -63 55 3 6 20 10 38 10 24 0 28 -3 19
-12z m98 3 c0 -11 -39 -25 -47 -18 -3 3 -2 10 2 16 8 13 45 15 45 2z m-405
-21 c4 -6 -7 -10 -24 -10 -17 0 -31 5 -31 10 0 6 11 10 24 10 14 0 28 -4 31
-10z m-1180 -30 c-3 -5 -14 -10 -23 -10 -15 0 -15 2 -2 10 20 13 33 13 25 0z
m-335 -51 c0 -14 -41 -48 -57 -49 -18 0 -16 20 4 42 18 20 53 25 53 7z m130
-9 c8 -16 7 -25 -4 -42 l-15 -21 -12 26 c-20 45 8 79 31 37z m-141 -86 c-6 -8
-15 -14 -20 -14 -14 0 -11 28 4 33 20 7 29 -4 16 -19z m-214 -40 c-23 -17 -34
-2 -14 22 9 11 15 12 23 4 8 -8 6 -15 -9 -26z m341 -20 c-6 -15 -46 -20 -46
-6 0 5 10 19 22 32 20 22 23 22 26 7 2 -10 1 -25 -2 -33z m-346 -48 c0 -20
-26 -40 -35 -26 -10 16 2 40 20 40 8 0 15 -6 15 -14z m320 -85 c0 -12 -20 -25
-27 -18 -7 7 6 27 18 27 5 0 9 -4 9 -9z m570 -1627 c0 -8 -5 -12 -10 -9 -6 4
-8 11 -5 16 9 14 15 11 15 -7z m60 -24 c0 -5 -4 -10 -10 -10 -5 0 -10 5 -10
10 0 6 5 10 10 10 6 0 10 -4 10 -10z m-16 -102 c18 -50 14 -88 -9 -88 -21 0
-28 19 -15 35 10 12 9 15 -4 15 -26 0 -36 40 -19 74 17 33 23 28 47 -36z
m5383 -854 c5 -14 -11 -20 -71 -29 -54 -8 -60 4 -13 28 35 18 78 18 84 1z m68
-45 c3 -8 21 -23 40 -32 58 -28 44 -41 -34 -34 -38 3 -77 10 -88 16 -10 5 -31
12 -46 16 -24 5 -27 8 -17 20 26 31 136 42 145 14z m-5855 -1833 c0 -2 -7 -7
-16 -10 -8 -3 -12 -2 -9 4 6 10 25 14 25 6z m316 -935 c1 -38 -7 -44 -33 -28
-15 9 -14 69 1 79 17 11 30 -10 32 -51z m124 -180 c0 -14 -18 -23 -31 -15 -8
4 -7 9 2 15 18 11 29 11 29 0z m-372 -692 c-17 -11 -28 -2 -28 22 0 11 5 17
10 14 6 -3 10 0 11 7 0 7 5 2 10 -11 7 -18 6 -27 -3 -32z m37 11 c-3 -5 -1
-10 6 -10 7 0 9 -3 6 -7 -4 -3 -2 -12 5 -20 6 -7 8 -16 5 -20 -4 -3 3 -17 13
-31 11 -13 20 -33 20 -43 0 -9 11 -30 24 -46 13 -16 26 -42 28 -58 2 -21 11
-34 31 -43 17 -8 27 -21 27 -35 0 -18 -2 -19 -11 -7 -9 13 -10 13 -6 0 2 -8 9
-14 15 -13 6 2 17 -7 23 -20 7 -12 25 -36 41 -53 16 -17 35 -42 43 -57 13 -25
12 -27 -6 -27 -10 0 -19 -7 -19 -15 0 -8 5 -15 10 -15 6 0 9 -5 8 -11 -3 -11
14 -23 45 -33 10 -3 17 -15 17 -31 0 -17 11 -35 29 -51 36 -30 45 -70 21 -92
-17 -16 -17 -19 -2 -51 20 -41 42 -52 42 -21 0 20 1 20 22 6 12 -9 30 -16 40
-16 10 0 18 -5 18 -10 0 -6 15 -27 34 -46 21 -21 32 -42 29 -52 -5 -20 32 -72
51 -72 25 0 48 -41 42 -75 -8 -42 5 -50 44 -30 29 15 30 15 30 -5 0 -12 5 -18
10 -15 6 3 10 0 10 -8 0 -7 9 -22 21 -33 58 -54 72 -72 87 -105 8 -20 28 -45
44 -55 23 -16 27 -24 22 -49 -4 -23 0 -35 15 -49 15 -14 18 -22 10 -32 -8 -9
-5 -15 11 -24 11 -6 24 -9 28 -6 16 10 29 -10 38 -59 10 -50 10 -50 -17 -51
-19 -1 -26 3 -22 12 5 13 0 15 -50 18 -10 1 -21 6 -25 11 -11 15 -61 39 -68
32 -8 -8 -79 18 -112 42 -23 16 -182 101 -332 177 -25 13 -63 39 -85 59 -22
20 -60 48 -85 63 -25 14 -50 33 -56 42 -7 8 -36 39 -65 69 -74 74 -109 129
-109 168 0 21 -5 32 -12 30 -7 -1 -13 12 -14 35 -1 21 -7 51 -14 68 -7 16 -10
40 -6 54 3 14 1 28 -8 35 -8 7 -12 26 -10 48 1 20 -4 52 -11 70 -8 18 -11 33
-7 33 4 0 8 12 9 28 3 38 10 96 13 102 1 3 2 9 1 13 -9 56 -10 90 -1 77 5 -8
10 -10 10 -4 0 17 -27 37 -40 29 -5 -3 -10 1 -10 9 0 21 37 40 43 23 3 -6 6
-2 6 11 1 12 -3 22 -9 22 -18 0 -11 29 9 40 18 9 18 12 5 39 -20 40 -7 68 29
62 15 -2 6 10 -13 17 l-21 8 21 23 c11 13 20 28 20 33 0 4 5 8 11 8 5 0 7 -4
4 -10z m-77 -38 c6 -18 -15 -14 -22 4 -4 10 -1 14 6 12 6 -2 14 -10 16 -16z
m-92 -480 c-3 -93 -8 -112 -31 -112 -9 0 -12 9 -10 28 2 15 4 27 5 27 3 0 11
41 11 55 0 17 20 90 25 90 2 0 2 -40 0 -88z m-2096 -74 c0 -6 -6 -5 -15 2 -8
7 -15 14 -15 16 0 2 7 1 15 -2 8 -4 15 -11 15 -16z m-100 -18 c0 -5 -7 -7 -15
-4 -8 4 -15 8 -15 10 0 2 7 4 15 4 8 0 15 -4 15 -10z m85 0 c3 -5 1 -10 -4
-10 -6 0 -11 5 -11 10 0 6 2 10 4 10 3 0 8 -4 11 -10z m125 0 c0 -5 -5 -10
-11 -10 -5 0 -7 5 -4 10 3 6 8 10 11 10 2 0 4 -4 4 -10z m1950 -51 c0 -6 -4
-7 -10 -4 -5 3 -10 11 -10 16 0 6 5 7 10 4 6 -3 10 -11 10 -16z m-2215 -27
l-20 -5 20 -8 c18 -7 18 -8 1 -8 -12 -1 -16 -6 -12 -16 3 -9 0 -15 -9 -15 -8
0 -12 6 -10 15 3 8 7 22 10 30 2 8 12 14 22 14 15 -1 15 -2 -2 -7z m7585 -23
c0 -5 -7 -9 -15 -9 -15 0 -20 12 -9 23 8 8 24 -1 24 -14z m-7292 -14 c3 -3 -4
-4 -16 -2 -12 2 -24 6 -28 10 -4 3 4 4 16 2 12 -2 25 -7 28 -10z m7328 -11
c-3 -9 -6 -20 -6 -25 0 -5 -4 -9 -9 -9 -5 0 -8 11 -8 25 0 15 5 25 14 25 10 0
13 -6 9 -16z m-4766 -9 c-7 -8 -18 -15 -24 -15 -6 0 -2 7 8 15 25 19 32 19 16
0z m30 -25 c0 -5 -4 -10 -10 -10 -5 0 -10 5 -10 10 0 6 5 10 10 10 6 0 10 -4
10 -10z m-2315 -271 c-10 -15 -25 -10 -19 6 4 8 10 12 15 9 5 -3 7 -10 4 -15z
m-30 -49 c-3 -5 -12 -10 -18 -10 -7 0 -6 4 3 10 19 12 23 12 15 0z m2630 0 c3
-5 1 -10 -4 -10 -6 0 -11 5 -11 10 0 6 2 10 4 10 3 0 8 -4 11 -10z m-2495 -65
c7 -9 8 -15 2 -15 -5 0 -12 7 -16 15 -3 8 -4 15 -2 15 2 0 9 -7 16 -15z m-202
-9 c-2 -1 -10 -7 -19 -14 -14 -10 -18 -10 -23 3 -3 9 -2 13 4 10 6 -3 10 -2
10 4 0 6 7 8 15 4 9 -3 15 -6 13 -7z m-50 -27 c14 -24 14 -24 -5 -3 -10 11
-25 18 -32 16 -9 -3 -11 0 -6 7 10 17 26 9 43 -20z m44 -11 c-3 -14 -2 -19 6
-14 7 4 12 1 12 -8 0 -8 -5 -18 -12 -22 -7 -4 -8 -3 -4 4 4 7 2 12 -3 12 -6 0
-11 11 -11 25 0 14 4 25 9 25 5 0 7 -10 3 -22z m-47 -58 c-7 -11 22 -6 32 5 4
4 3 5 -3 2 -6 -3 -11 0 -11 8 0 13 4 12 19 -2 10 -9 18 -13 18 -9 0 3 10 0 23
-8 23 -15 71 -11 61 5 -3 5 2 6 10 3 12 -5 13 -9 3 -19 -7 -7 -15 -11 -18 -9
-4 2 -9 -3 -13 -11 -3 -9 0 -15 8 -15 8 0 16 5 18 12 3 7 30 12 71 13 36 1 64
-2 61 -6 -6 -11 17 -23 25 -13 3 5 15 10 26 11 20 3 20 3 1 -10 -11 -6 -32
-24 -47 -39 -22 -22 -166 -98 -185 -98 -2 0 -32 -13 -66 -29 -34 -17 -67 -27
-72 -23 -6 3 -17 7 -24 8 -21 4 -27 14 -9 14 10 0 17 6 17 13 0 7 9 23 21 36
13 14 18 28 13 39 -11 28 -11 52 0 52 6 0 4 5 -4 10 -9 6 -10 10 -3 10 8 0 11
14 10 39 -2 31 0 37 10 29 7 -6 11 -14 8 -18z m4130 20 c3 -5 16 -10 28 -11
21 0 21 -1 -2 -10 -18 -7 -31 -5 -55 11 l-31 20 27 0 c15 0 30 -4 33 -10z
m-4155 -20 c0 -5 -2 -10 -4 -10 -3 0 -8 5 -11 10 -3 6 -1 10 4 10 6 0 11 -4
11 -10z m260 0 c0 -5 -5 -10 -11 -10 -5 0 -7 5 -4 10 3 6 8 10 11 10 2 0 4 -4
4 -10z m-530 -14 c0 -3 -4 -8 -10 -11 -5 -3 -10 -1 -10 4 0 6 5 11 10 11 6 0
10 -2 10 -4z m70 -86 c0 -5 -5 -10 -11 -10 -5 0 -7 5 -4 10 3 6 8 10 11 10 2
0 4 -4 4 -10z m3 -50 c-3 -11 -10 -23 -16 -27 -5 -3 -8 -2 -5 3 3 5 8 17 11
27 9 24 16 22 10 -3z m5950 -177 c9 -9 -13 -34 -24 -27 -14 8 -11 34 4 34 8 0
17 -3 20 -7z m-38 -53 c3 -5 -1 -10 -9 -10 -9 0 -16 5 -16 10 0 6 4 10 9 10 6
0 13 -4 16 -10z"/>
<path d="M7297 12434 c-9 -10 4 -34 19 -34 8 0 14 4 14 9 0 12 -26 32 -33 25z"/>
<path d="M7247 12363 c-4 -3 0 -11 9 -18 14 -10 11 -15 -19 -38 -19 -14 -46
-29 -61 -33 -36 -9 -22 -25 19 -21 19 3 46 17 66 35 19 18 38 32 43 32 9 0
-35 50 -45 50 -3 0 -9 -3 -12 -7z"/>
<path d="M7558 12356 c-10 -7 -18 -21 -18 -30 0 -9 -8 -16 -18 -16 -24 0 -134
-69 -127 -80 3 -5 28 -6 55 -3 41 5 50 3 50 -10 0 -8 -7 -17 -15 -21 -19 -7
-20 -46 0 -46 8 0 22 8 32 19 24 24 79 52 87 44 4 -4 9 2 12 13 4 16 12 19 38
16 44 -5 96 22 96 50 0 19 -4 20 -41 14 -35 -6 -41 -4 -46 12 -2 11 -20 26
-39 36 -41 19 -44 19 -66 2z m35 -51 c-6 -18 -19 -19 -29 -4 -7 12 15 31 28
23 4 -3 5 -11 1 -19z"/>
<path d="M7072 12271 c-21 -13 13 -22 40 -11 13 5 18 9 11 9 -6 1 -17 3 -25 6
-7 3 -19 1 -26 -4z"/>
<path d="M7697 12191 c-4 -16 -1 -18 14 -13 22 8 25 26 6 30 -8 2 -17 -6 -20
-17z"/>
<path d="M7747 12133 c-13 -12 -7 -21 11 -18 9 2 20 4 25 4 4 1 7 6 7 11 0 11
-33 14 -43 3z"/>
<path d="M7494 12056 c-35 -19 -54 -38 -54 -52 0 -8 5 -14 12 -14 6 0 8 3 5 7
-4 4 6 12 21 19 16 6 32 21 35 33 3 12 4 21 4 20 -1 -1 -12 -6 -23 -13z"/>
<path d="M7146 12031 c-3 -5 6 -12 20 -15 29 -8 39 -3 29 13 -8 13 -42 14 -49
2z"/>
<path d="M7460 11965 c0 -9 5 -15 11 -13 6 2 11 8 11 13 0 5 -5 11 -11 13 -6
2 -11 -4 -11 -13z"/>
<path d="M5378 12163 c-21 -5 -24 -23 -4 -23 8 0 16 7 20 15 3 8 4 14 3 14 -1
-1 -10 -3 -19 -6z"/>
<path d="M6734 12265 c-48 -20 -51 -35 -9 -35 22 0 38 6 41 15 11 27 0 34 -32
20z"/>
<path d="M3605 11460 c4 -6 11 -8 16 -5 14 9 11 15 -7 15 -8 0 -12 -5 -9 -10z"/>
<path d="M4116 2725 c-3 -8 -1 -15 5 -15 6 0 8 -4 5 -9 -4 -5 8 -21 26 -36 20
-17 34 -23 36 -16 5 15 -17 41 -34 41 -12 0 -19 19 -15 43 2 13 -17 7 -23 -8z"/>
<path d="M4230 2596 c0 -2 7 -9 15 -16 9 -7 15 -8 15 -2 0 5 -7 12 -15 16 -8
3 -15 4 -15 2z"/>
<path d="M1433 2595 c0 -8 4 -12 9 -9 5 3 6 10 3 15 -9 13 -12 11 -12 -6z"/>
<path d="M7428 12783 c7 -3 16 -2 19 1 4 3 -2 6 -13 5 -11 0 -14 -3 -6 -6z"/>
<path d="M8808 12438 c-15 -5 -36 -25 -47 -44 -11 -19 -27 -34 -35 -34 -8 0
-17 -14 -21 -31 -4 -18 -26 -50 -52 -74 -44 -42 -44 -44 -23 -55 18 -10 26 -8
46 11 13 12 24 28 24 34 0 35 42 34 107 -3 26 -15 77 -16 68 -2 -3 6 2 13 12
17 10 3 25 14 33 24 8 10 31 22 50 25 30 6 33 5 23 -7 -20 -25 39 -17 64 8 18
18 19 24 8 33 -8 6 -22 11 -32 10 -33 -4 -41 0 -46 20 -3 11 -16 24 -30 29
-14 5 -28 15 -32 20 -3 6 -19 11 -36 11 -16 0 -29 4 -29 8 0 11 -18 11 -52 0z
m81 -107 c-15 -5 -22 6 -14 19 6 9 10 9 16 -1 5 -8 4 -15 -2 -18z"/>
<path d="M8750 12168 c0 -15 7 -29 17 -32 28 -11 32 8 7 34 l-24 25 0 -27z"/>
<path d="M8454 12122 c-6 -4 -14 -16 -18 -27 -7 -19 -5 -18 15 2 22 22 24 39
3 25z"/>
<path d="M2927 11184 c-12 -12 4 -24 34 -24 31 0 39 14 13 24 -20 8 -39 8 -47
0z"/>
<path d="M2887 11062 c-19 -20 -22 -42 -7 -42 14 0 50 42 44 52 -8 13 -19 10
-37 -10z"/>
<path d="M2745 10849 c-12 -19 5 -23 22 -6 16 16 16 17 1 17 -9 0 -20 -5 -23
-11z"/>
<path d="M2680 10730 c0 -5 5 -10 10 -10 6 0 10 5 10 10 0 6 -4 10 -10 10 -5
0 -10 -4 -10 -10z"/>
<path d="M5865 10570 c3 -5 10 -10 16 -10 5 0 9 5 9 10 0 6 -7 10 -16 10 -8 0
-12 -4 -9 -10z"/>
<path d="M5178 10523 c7 -3 16 -2 19 1 4 3 -2 6 -13 5 -11 0 -14 -3 -6 -6z"/>
<path d="M5470 10521 c0 -11 26 -22 34 -14 3 3 3 10 0 14 -7 12 -34 11 -34 0z"/>
<path d="M4580 10329 c0 -15 42 -31 66 -25 30 8 31 26 2 27 -13 0 -33 2 -45 3
-13 2 -23 -1 -23 -5z"/>
<path d="M8675 10090 c3 -5 8 -10 11 -10 2 0 4 5 4 10 0 6 -5 10 -11 10 -5 0
-7 -4 -4 -10z"/>
<path d="M3945 8710 c-3 -5 -1 -10 4 -10 6 0 11 5 11 10 0 6 -2 10 -4 10 -3 0
-8 -4 -11 -10z"/>
<path d="M3805 7780 c-3 -5 -1 -10 4 -10 6 0 11 5 11 10 0 6 -2 10 -4 10 -3 0
-8 -4 -11 -10z"/>
<path d="M5808 7633 c6 -2 18 -2 25 0 6 3 1 5 -13 5 -14 0 -19 -2 -12 -5z"/>
<path d="M5615 7623 c-16 -3 -34 -9 -40 -15 -7 -7 4 -8 33 -3 61 10 53 -10
-12 -29 -33 -10 -62 -26 -73 -40 -13 -18 -31 -26 -68 -30 -33 -4 -43 -3 -30 3
11 5 23 7 28 4 4 -2 7 0 7 5 0 13 -68 20 -108 11 -33 -7 -33 -7 -26 23 5 28 4
30 -12 23 -11 -4 -45 -15 -76 -23 -32 -8 -58 -19 -58 -23 0 -5 -12 -9 -26 -9
-19 0 -25 4 -20 15 4 12 -4 15 -45 15 -40 0 -55 -5 -72 -23 -39 -42 -107 -64
-107 -36 0 12 -2 12 -102 -23 -46 -17 -79 -37 -108 -66 -43 -43 -43 -46 0 -42
35 3 43 10 29 26 -9 11 -6 16 15 25 32 15 46 4 20 -16 -18 -14 -17 -15 11 -13
17 1 45 -2 63 -6 21 -5 32 -4 32 3 0 6 -4 11 -10 11 -5 0 -10 5 -10 10 0 6 8
10 18 10 11 0 29 9 42 20 13 11 36 20 51 20 18 0 30 6 34 19 13 42 94 73 121
47 18 -18 12 -46 -9 -46 -8 0 -21 -7 -28 -16 -11 -13 -4 -12 28 5 54 27 118
27 163 0 l34 -21 14 21 c15 22 46 28 57 11 3 -5 31 -9 63 -8 69 1 112 -10 112
-28 0 -8 11 -13 28 -13 15 0 34 -1 42 -1 8 -1 38 3 65 10 113 26 119 26 165 9
25 -9 59 -14 77 -12 25 4 37 0 50 -16 22 -26 163 -64 209 -55 22 4 40 0 58
-11 14 -10 26 -15 26 -13 0 3 44 -9 98 -27 59 -20 98 -29 101 -22 2 6 -4 16
-13 23 -21 15 -13 20 35 23 32 1 38 -2 49 -28 7 -18 24 -34 42 -40 39 -14 36
-14 40 5 2 11 16 18 42 20 46 4 58 18 50 59 -12 53 -10 60 13 58 16 -2 21 2
17 12 -4 9 -19 15 -36 15 -17 0 -49 8 -72 19 -23 10 -67 30 -99 45 -66 30 -83
32 -91 11 -6 -17 -42 -20 -51 -5 -3 6 -21 10 -38 10 -18 1 -43 7 -57 15 -14 8
-36 14 -51 15 -14 0 -30 5 -36 11 -5 5 -34 13 -64 15 -29 3 -67 11 -84 18 -16
8 -64 22 -106 31 -73 18 -79 18 -132 1 -39 -12 -67 -15 -94 -10 -21 5 -43 7
-50 6 -6 -2 -14 2 -18 8 -3 5 -9 9 -13 9 -4 -1 -20 -4 -37 -6z m341 -50 c-7
-7 -26 7 -26 19 0 6 6 6 15 -2 9 -7 13 -15 11 -17z m-147 -7 c-12 -10 -69 -24
-69 -16 0 5 8 11 18 13 22 6 57 8 51 3z m-139 -21 c0 -9 -9 -15 -22 -15 -22 1
-23 1 -4 15 25 19 26 19 26 0z m-70 -14 c0 -13 -28 -22 -35 -11 -3 4 1 11 7
13 20 8 28 8 28 -2z m160 -35 c0 -2 -7 -6 -15 -10 -8 -3 -15 -1 -15 4 0 6 7
10 15 10 8 0 15 -2 15 -4z"/>
<path d="M5345 7609 c-11 -17 1 -21 15 -4 8 9 8 15 2 15 -6 0 -14 -5 -17 -11z"/>
<path d="M5150 7600 c-12 -8 -11 -10 7 -10 12 0 25 5 28 10 8 13 -15 13 -35 0z"/>
<path d="M5001 7586 c-19 -7 -37 -18 -39 -24 -5 -16 0 -15 34 3 16 8 44 15 62
15 17 0 32 5 32 10 0 13 -47 11 -89 -4z"/>
<path d="M5384 7575 c-16 -12 -17 -14 -2 -15 23 0 48 11 48 21 0 14 -24 11
-46 -6z"/>
<path d="M3831 7541 c-8 -5 -9 -11 -3 -15 5 -3 15 1 22 9 14 16 3 20 -19 6z"/>
<path d="M2417 7525 c-26 -12 -32 -32 -16 -51 6 -8 9 -20 6 -29 -9 -23 20 -47
43 -35 23 12 40 13 22 1 -22 -13 39 -34 68 -23 14 5 37 6 52 1 18 -5 29 -3 32
4 5 9 8 9 12 0 8 -17 34 -17 34 0 0 24 -72 98 -114 117 -51 23 -109 29 -139
15z"/>
<path d="M4695 7330 c-3 -5 1 -10 10 -10 9 0 13 5 10 10 -3 6 -8 10 -10 10 -2
0 -7 -4 -10 -10z"/>
<path d="M7940 7260 c0 -5 4 -10 9 -10 6 0 13 5 16 10 3 6 -1 10 -9 10 -9 0
-16 -4 -16 -10z"/>
<path d="M5670 7117 c-3 -2 -32 -7 -65 -10 -88 -8 -149 -22 -246 -54 -81 -28
-225 -100 -216 -109 5 -5 88 22 190 60 72 27 107 33 107 16 0 -5 9 -10 20 -10
12 0 17 5 14 13 -12 32 145 67 328 74 128 5 284 -14 392 -48 88 -28 243 -106
251 -127 15 -42 73 -112 103 -126 42 -20 42 -20 42 9 0 30 -124 159 -191 198
-53 30 -172 72 -266 93 -65 14 -452 32 -463 21z"/>
<path d="M8635 7070 c46 -12 133 -12 115 0 -8 5 -44 9 -80 9 -51 -1 -58 -3
-35 -9z"/>
<path d="M8770 7060 c0 -5 7 -7 15 -4 8 4 15 1 15 -5 0 -6 16 -11 35 -11 37 0
125 -43 185 -90 58 -45 79 -53 97 -39 13 11 18 10 29 -6 12 -16 14 -16 14 -3
0 29 -49 76 -113 107 -90 45 -277 79 -277 51z"/>
<path d="M8415 7050 c4 -6 11 -8 16 -5 14 9 11 15 -7 15 -8 0 -12 -5 -9 -10z"/>
<path d="M8310 7039 c-135 -26 -352 -154 -397 -234 -6 -11 -22 -27 -36 -34
-17 -9 -23 -19 -20 -32 4 -15 9 -17 25 -8 10 6 22 18 26 28 23 58 302 231 447
277 46 14 22 16 -45 3z"/>
<path d="M5730 6949 c-41 -4 -100 -11 -130 -14 -30 -3 -86 -14 -125 -25 -38
-10 -91 -21 -118 -24 -26 -3 -53 -8 -60 -13 -6 -4 -23 -9 -37 -11 -14 -1 -38
-9 -55 -16 -16 -8 -44 -17 -62 -21 -28 -5 -31 -9 -24 -28 9 -25 62 -38 165
-40 37 -1 61 -7 63 -14 3 -8 23 -13 53 -13 26 0 66 -7 89 -15 46 -16 52 -11
18 15 -32 25 -26 77 10 91 41 16 61 10 77 -21 9 -16 23 -44 32 -61 18 -34 71
-61 149 -77 28 -6 69 -16 92 -22 53 -15 83 -8 127 31 41 36 102 125 111 162 9
35 20 34 55 -3 17 -18 38 -30 53 -30 14 0 29 -4 32 -10 3 -5 14 -10 24 -10 9
0 32 -13 49 -29 35 -31 35 -43 -1 -93 -33 -45 -19 -55 83 -60 107 -6 122 -4
139 23 17 28 -13 89 -77 156 -58 61 -99 87 -185 113 -53 16 -67 25 -67 40 0
11 -7 20 -15 20 -8 0 -15 -5 -15 -11 0 -8 -16 -9 -52 -5 -29 4 -69 9 -88 12
-74 10 -238 12 -310 3z m485 -109 c3 -5 1 -10 -4 -10 -6 0 -11 5 -11 10 0 6 2
10 4 10 3 0 8 -4 11 -10z m185 -150 c0 -5 -7 -10 -15 -10 -8 0 -15 5 -15 10 0
6 7 10 15 10 8 0 15 -4 15 -10z m70 -35 c0 -8 -7 -15 -15 -15 -8 0 -15 7 -15
15 0 8 7 15 15 15 8 0 15 -7 15 -15z"/>
<path d="M8415 6920 c-77 -6 -199 -33 -220 -50 -5 -4 -26 -11 -45 -15 -39 -8
-70 -31 -70 -52 0 -11 8 -13 29 -8 34 7 37 4 90 -85 24 -41 47 -68 62 -72 61
-18 172 -30 229 -26 59 4 66 7 96 42 18 21 43 62 55 90 30 73 49 83 106 55 49
-23 85 -57 77 -71 -3 -4 0 -8 5 -8 6 0 11 -7 11 -15 0 -8 7 -15 15 -15 8 0 15
-6 15 -13 0 -22 34 -47 64 -47 15 0 25 4 21 10 -4 7 2 7 18 1 14 -5 44 -7 68
-5 24 3 56 5 72 6 15 0 27 4 27 8 0 4 15 11 33 14 41 8 69 30 62 47 -8 20 -71
59 -94 59 -11 0 -23 4 -26 10 -3 5 -23 17 -43 26 -20 8 -44 20 -54 24 -9 5
-40 12 -70 15 -29 4 -72 14 -94 22 -23 8 -50 14 -60 12 -11 -1 -30 2 -44 8
-67 29 -207 43 -335 33z m-17 -42 c19 -19 14 -36 -13 -54 -24 -16 -27 -16 -40
2 -18 24 -19 51 -2 57 22 9 43 7 55 -5z"/>
<path d="M3056 6791 c-3 -5 -31 -16 -63 -24 -63 -18 -113 -57 -113 -87 0 -11
-4 -20 -10 -20 -17 0 -11 -19 9 -29 14 -8 35 -4 82 15 58 22 89 30 142 33 21
1 22 19 1 70 -15 38 -38 58 -48 42z"/>
<path d="M8019 6782 c-44 -29 -73 -57 -88 -82 -8 -14 -19 -32 -24 -41 -6 -9
-7 -24 -4 -33 5 -13 15 -16 44 -11 21 4 44 8 51 10 16 5 16 57 0 73 -10 10 -4
21 30 51 23 21 42 41 42 45 0 11 -24 5 -51 -12z"/>
<path d="M7700 6745 c-9 -10 -7 -16 8 -24 15 -8 23 -7 32 4 7 9 10 19 6 22
-12 12 -35 11 -46 -2z"/>
<path d="M7677 6706 c-3 -8 0 -19 7 -25 14 -12 46 -5 46 10 0 13 -18 11 -23
-3 -3 -7 -6 -3 -6 10 -1 25 -16 30 -24 8z"/>
<path d="M6165 6590 c3 -5 11 -10 16 -10 6 0 7 5 4 10 -3 6 -11 10 -16 10 -6
0 -7 -4 -4 -10z"/>
<path d="M5900 6551 c0 -38 16 -48 30 -20 14 25 6 49 -15 49 -10 0 -15 -10
-15 -29z"/>
<path d="M3037 5984 c-18 -18 -5 -45 28 -58 48 -20 74 -17 69 8 -2 11 -9 25
-16 32 -16 15 -72 27 -81 18z"/>
<path d="M2636 5966 c3 -9 10 -14 14 -11 5 3 14 -3 20 -12 6 -10 10 -12 8 -4
-2 8 -14 21 -26 29 -20 13 -22 13 -16 -2z"/>
<path d="M2710 5900 c11 -20 30 -28 30 -12 0 11 -22 32 -32 32 -5 0 -4 -9 2
-20z"/>
<path d="M2756 5852 c-3 -5 1 -15 9 -22 16 -14 20 -3 6 19 -5 8 -11 9 -15 3z"/>
<path d="M2810 5682 c0 -23 30 -48 53 -44 26 5 21 37 -8 50 -35 16 -45 15 -45
-6z"/>
<path d="M3580 5445 c-25 -15 -25 -15 15 -13 22 2 39 8 38 13 -3 16 -26 16
-53 0z"/>
<path d="M3470 5339 c0 -19 50 -30 74 -17 26 15 7 33 -34 33 -30 0 -40 -4 -40
-16z"/>
<path d="M3578 5053 c7 -3 16 -2 19 1 4 3 -2 6 -13 5 -11 0 -14 -3 -6 -6z"/>
<path d="M7831 5004 c-18 -8 -40 -22 -48 -30 -8 -7 -19 -14 -25 -14 -5 0 -22
-8 -36 -19 -35 -25 -126 -75 -132 -73 -3 1 -21 -3 -40 -7 -19 -5 -46 -8 -60
-6 -14 1 -30 -2 -36 -7 -21 -16 -154 -12 -173 6 -10 9 -23 16 -29 16 -6 0 -17
7 -25 15 -8 8 -44 28 -80 44 -115 53 -221 52 -418 -5 -47 -13 -94 -22 -103
-18 -14 5 -17 3 -14 -12 2 -10 28 -33 58 -51 30 -17 70 -41 88 -52 18 -12 57
-25 85 -30 29 -4 59 -11 68 -15 25 -11 32 22 9 41 -23 20 -26 56 -6 72 22 19
92 23 106 6 8 -9 22 -12 41 -8 21 4 29 2 29 -9 0 -22 33 -48 62 -48 14 0 31
-7 38 -15 7 -8 18 -15 25 -15 6 0 20 -9 30 -20 10 -11 23 -20 30 -20 7 0 20
-9 30 -20 10 -11 26 -20 37 -20 10 0 18 -4 18 -10 0 -5 7 -7 15 -4 8 4 15 1
15 -6 0 -9 3 -10 13 -1 8 6 16 8 19 6 3 -3 45 -7 94 -10 49 -2 100 -8 114 -13
28 -11 34 -12 55 -12 8 0 14 -3 14 -7 -5 -33 2 -38 49 -37 26 1 53 -3 61 -9
10 -8 13 -8 8 -1 -3 6 3 20 14 30 11 10 30 29 42 40 40 38 140 104 159 104 10
0 18 4 18 9 0 5 9 11 19 14 11 2 32 23 48 46 15 22 33 40 39 41 11 0 24 22 24
41 0 5 -27 8 -60 6 -33 -2 -60 0 -60 5 0 4 -11 8 -24 8 -14 0 -32 10 -40 22
-9 12 -16 17 -16 10 0 -8 -5 -10 -12 -5 -7 4 -19 8 -26 9 -20 3 -29 16 -14 21
6 3 12 8 12 12 0 4 -6 8 -12 9 -7 1 -24 3 -38 6 -14 3 -40 -2 -59 -10z"/>
<path d="M3867 4473 c-4 -3 -7 -15 -7 -26 0 -13 -5 -17 -15 -14 -16 7 -30 -8
-16 -17 11 -7 71 13 71 24 0 29 -19 48 -33 33z"/>
<path d="M3920 4196 c0 -23 16 -27 17 -5 1 10 -2 19 -8 19 -5 0 -9 -6 -9 -14z"/>
<path d="M7652 4095 c-18 -8 -35 -21 -38 -30 -3 -8 -11 -15 -16 -15 -6 0 -8 7
-5 15 7 17 -8 29 -23 20 -8 -5 -8 -11 -1 -19 8 -9 7 -13 -4 -13 -8 0 -15 6
-15 13 0 23 -16 23 -29 1 -8 -12 -10 -19 -6 -15 9 9 35 -9 35 -24 0 -6 -11 -7
-25 -4 -17 4 -24 2 -23 -6 2 -6 -5 -13 -14 -16 -14 -3 -16 1 -9 25 8 26 6 29
-16 31 -26 2 -111 -49 -126 -74 -4 -8 -14 -14 -21 -14 -7 0 -21 -9 -31 -20
-17 -18 -41 -19 -30 0 8 14 -27 21 -112 22 -43 0 -89 6 -103 13 -36 18 -93 35
-118 35 -11 0 -23 4 -27 9 -3 6 -14 8 -25 6 -11 -2 -20 0 -20 4 0 5 -11 6 -25
3 -14 -2 -37 1 -53 7 -20 8 -62 9 -162 1 -74 -6 -148 -11 -165 -11 -16 0 -99
0 -182 1 -148 1 -154 1 -202 -25 -51 -28 -70 -60 -48 -82 10 -10 28 -9 87 8
84 23 196 26 275 8 59 -14 137 -14 255 0 65 7 101 7 155 -4 39 -8 93 -17 120
-21 28 -3 55 -9 60 -13 6 -3 21 -7 34 -9 14 -2 30 -11 37 -20 7 -9 15 -14 19
-10 4 4 19 2 34 -4 14 -6 43 -12 65 -14 21 -1 43 -7 48 -12 6 -6 24 -6 46 -1
29 7 40 5 49 -8 12 -15 14 -15 31 0 11 10 35 17 60 17 22 0 43 4 46 9 3 5 23
7 44 5 145 -14 152 -16 145 -27 -4 -7 0 -6 10 2 9 7 22 11 29 8 7 -2 16 -4 19
-3 8 2 39 -31 39 -42 0 -5 -7 -15 -15 -22 -8 -7 -12 -17 -8 -24 4 -6 -1 -5
-10 3 -15 12 -17 11 -17 -3 0 -9 5 -16 10 -16 6 0 10 -9 10 -20 0 -11 -6 -20
-14 -20 -8 0 -22 -7 -31 -16 -12 -12 -13 -19 -4 -30 9 -11 6 -18 -12 -33 -20
-16 -21 -20 -8 -33 12 -13 17 -13 27 -1 7 7 10 19 6 26 -5 8 -2 7 9 -2 11 -9
17 -10 17 -2 0 6 11 11 25 11 14 0 25 4 25 8 0 5 15 14 34 22 19 7 37 21 39
32 3 10 14 18 26 18 12 0 21 4 21 9 0 5 9 13 20 16 11 3 20 13 20 20 0 8 9 19
20 25 11 6 20 17 20 25 0 8 9 15 21 15 15 0 20 -5 17 -22 -2 -15 -9 -22 -22
-21 -12 1 -15 -2 -8 -9 7 -7 7 -19 2 -34 -11 -29 6 -33 27 -6 13 15 14 15 10
1 -5 -15 -3 -15 23 -3 47 24 49 80 3 86 -16 2 -27 10 -29 21 -3 23 30 57 55
57 10 0 30 9 44 20 18 14 44 21 89 24 61 3 114 22 151 54 9 8 17 18 17 22 0
14 -69 29 -122 26 -32 -2 -58 -1 -58 3 0 4 -21 7 -47 6 -61 -3 -216 20 -245
36 -22 12 -79 25 -143 34 -16 2 -45 -3 -63 -10z"/>
<path d="M0 3804 c0 -116 2 -135 14 -125 11 9 16 9 22 0 5 -8 3 -10 -7 -4 -12
7 -12 6 -1 -6 11 -12 15 -11 23 3 6 11 16 15 27 11 15 -6 15 -5 3 10 -12 15
-12 17 4 11 14 -6 16 -4 10 7 -6 11 -5 12 6 2 20 -19 27 -16 31 15 2 20 8 27
25 26 13 0 24 7 26 18 4 14 2 16 -12 9 -14 -8 -17 -4 -19 20 -1 18 3 29 10 30
7 0 0 7 -17 14 -16 7 -38 11 -48 9 -9 -1 -15 1 -12 7 4 5 -1 9 -10 9 -9 0 -15
6 -12 13 2 6 9 11 14 10 5 -1 10 5 10 13 0 9 -7 12 -18 9 -9 -3 -24 1 -32 10
-33 32 -37 18 -37 -121z m140 -14 c0 -5 -2 -10 -4 -10 -3 0 -8 5 -11 10 -3 6
-1 10 4 10 6 0 11 -4 11 -10z"/>
<path d="M7962 3648 c3 -7 14 -14 26 -16 16 -2 22 2 22 15 0 15 -2 16 -10 3
-6 -10 -10 -11 -10 -2 0 6 -7 12 -16 12 -9 0 -14 -6 -12 -12z"/>
<path d="M11 3608 c-5 -13 -6 -30 -2 -38 4 -12 6 -10 9 5 3 11 9 23 16 27 8 6
7 8 -2 8 -7 0 -10 5 -7 10 3 6 4 10 0 10 -3 0 -9 -10 -14 -22z"/>
<path d="M7944 3617 c-3 -9 -3 -25 1 -34 6 -16 8 -16 18 5 7 16 7 26 -1 34 -8
8 -13 7 -18 -5z"/>
<path d="M7834 3576 c-3 -8 -16 -12 -34 -10 -19 2 -32 -2 -38 -12 -11 -20 -74
-34 -118 -27 -20 3 -40 1 -48 -7 -9 -6 -20 -9 -26 -5 -5 3 -10 0 -10 -7 0 -9
-3 -9 -10 2 -7 11 -10 11 -10 2 0 -18 -43 -11 -52 8 -5 12 -7 11 -7 -4 -1 -14
-4 -16 -13 -8 -15 12 -68 4 -68 -10 0 -5 -4 -7 -9 -3 -5 3 -12 1 -16 -5 -3 -5
-17 -7 -31 -4 -13 3 -32 3 -41 -1 -24 -10 -106 -6 -209 9 l-84 12 -19 -31
c-11 -20 -15 -38 -10 -50 4 -11 8 -15 8 -10 1 6 5 4 10 -4 10 -15 90 -34 138
-32 18 1 51 -7 73 -18 42 -20 68 -20 167 0 34 7 64 7 86 1 19 -5 41 -6 48 -1
8 4 16 4 20 -2 4 -7 13 -8 25 -1 32 16 89 32 117 32 15 0 26 3 25 8 -4 10 47
62 61 62 15 0 41 25 41 39 0 6 6 11 14 11 7 0 21 11 31 24 16 21 21 22 29 10
9 -11 13 -10 23 11 6 14 7 27 2 31 -5 3 -9 0 -9 -6 0 -7 -6 -8 -19 0 -26 13
-31 13 -37 -4z"/>
<path d="M7923 3552 c-9 -15 -8 -19 3 -19 8 0 14 9 14 19 0 10 -1 18 -3 18 -1
0 -7 -8 -14 -18z"/>
<path d="M82 3537 c-6 -7 -9 -23 -5 -35 7 -27 -18 -30 -38 -6 -12 14 -14 14
-26 -2 -18 -25 -18 -703 0 -685 15 15 19 76 7 107 l-10 24 113 0 c81 0 118 4
133 14 11 8 33 16 49 18 16 1 31 10 33 18 5 13 3 13 -12 1 -16 -13 -16 -12 -4
13 l12 28 9 -25 c5 -17 15 -25 28 -24 19 1 19 2 -1 17 -20 15 -20 16 -1 17 12
1 23 -6 26 -18 6 -17 15 -20 66 -18 32 1 59 7 59 12 0 5 11 7 24 5 16 -3 23
-1 19 8 -2 6 0 15 6 19 6 3 11 -1 11 -9 0 -9 7 -16 15 -16 8 0 15 5 15 12 0 6
7 3 15 -8 14 -19 14 -19 15 1 1 19 2 19 9 1 4 -12 18 -20 34 -20 25 -2 26 -1
9 19 -16 18 -16 19 0 7 13 -11 22 -11 39 -2 14 8 19 8 15 1 -4 -6 0 -11 8 -11
10 0 13 6 10 15 -4 8 -11 15 -17 15 -6 0 -7 3 -4 6 4 4 13 1 22 -6 11 -9 15
-9 15 -1 0 7 5 9 12 5 7 -5 8 -3 4 5 -5 7 -11 10 -14 7 -3 -3 -14 2 -25 11
-18 17 -20 17 -37 -5 l-19 -23 1 32 c1 21 7 33 21 38 18 7 18 8 3 24 -10 9
-14 22 -10 28 4 8 3 9 -4 5 -7 -4 -12 -14 -12 -22 0 -12 -2 -12 -14 -2 -11 11
-12 14 -1 21 10 5 11 13 2 37 -6 17 -15 30 -20 30 -4 0 -5 -4 -2 -10 4 -6 -1
-7 -11 -3 -14 5 -13 8 7 19 13 7 18 13 10 14 -7 0 -11 6 -8 13 3 8 1 20 -3 28
-6 8 -5 16 2 20 8 5 6 15 -5 33 -14 21 -15 24 -2 20 8 -4 15 -4 15 -1 0 9 -31
37 -41 37 -14 0 -11 -58 4 -63 9 -4 9 -6 -1 -6 -14 -1 -20 11 -25 46 -2 12 -6
26 -11 30 -10 10 -56 12 -56 1 0 -4 -3 -7 -7 -7 -23 4 -32 -3 -27 -18 4 -11 2
-14 -3 -8 -4 6 -24 16 -43 21 -29 9 -38 8 -50 -4 -12 -13 -16 -12 -32 8 -18
22 -19 22 -32 5 -12 -17 -14 -17 -34 3 -12 12 -22 17 -22 11 0 -6 -7 -9 -15
-5 -8 3 -15 2 -15 -2 0 -4 -9 -8 -19 -8 -11 0 -17 4 -15 8 3 4 1 8 -5 8 -6 0
-9 6 -7 13 1 6 1 9 -1 5 -8 -14 -33 -8 -33 8 0 9 -6 14 -12 11 -7 -2 -12 -10
-10 -16 1 -6 -5 -11 -13 -11 -8 0 -15 6 -16 13 0 6 -5 2 -11 -10 -6 -12 -17
-24 -24 -27 -12 -4 -12 -1 -4 14 6 11 8 25 5 30 -3 6 -1 10 5 10 6 0 8 5 5 10
-4 6 -2 17 4 24 8 10 8 20 -3 40 -10 21 -16 24 -24 13z m-17 -77 c-3 -5 -12
-10 -18 -10 -7 0 -6 4 3 10 19 12 23 12 15 0z m-30 -40 c3 -5 1 -10 -4 -10 -6
0 -11 5 -11 10 0 6 2 10 4 10 3 0 8 -4 11 -10z m92 -47 c0 -9 -4 -10 -14 -2
-7 6 -13 12 -13 14 0 1 6 2 13 2 8 0 14 -6 14 -14z m432 0 c-6 -7 -15 -10 -20
-7 -13 8 -3 21 15 21 12 0 13 -4 5 -14z m-93 -5 c3 -4 -1 -5 -10 -4 -8 1 -18
5 -22 8 -3 4 1 5 10 4 8 -1 18 -5 22 -8z m-306 -8 c0 -5 -2 -10 -4 -10 -3 0
-8 5 -11 10 -3 6 -1 10 4 10 6 0 11 -4 11 -10z m467 -175 c0 -8 -4 -12 -9 -9
-5 3 -6 10 -3 15 9 13 12 11 12 -6z m53 -4 c0 -14 -18 -23 -30 -16 -6 4 -8 11
-5 16 8 12 35 12 35 0z"/>
<path d="M2071 3525 c5 -9 -24 -46 -33 -42 -2 1 0 -2 4 -7 5 -6 8 -19 8 -30 0
-14 3 -17 8 -9 11 17 36 -1 29 -21 -4 -9 -2 -16 3 -16 6 0 10 -6 10 -14 0 -8
5 -18 12 -22 7 -5 8 -3 3 7 -7 11 -6 12 7 2 18 -15 29 -7 21 14 -5 13 -2 13
15 4 25 -13 35 -14 28 -2 -3 5 1 14 9 21 11 9 15 10 15 1 0 -8 5 -7 15 3 21
20 19 28 -7 26 -44 -4 -54 0 -55 21 -2 28 -7 32 -38 32 -20 0 -25 3 -20 15 3
9 3 13 -1 9 -4 -4 -14 -1 -22 6 -9 6 -13 8 -11 2z m79 -50 c0 -1 -8 -10 -19
-19 -17 -16 -18 -16 -14 8 3 16 10 23 19 19 8 -3 14 -6 14 -8z"/>
<path d="M4480 3439 c0 -5 5 -7 10 -4 6 3 10 8 10 11 0 2 -4 4 -10 4 -5 0 -10
-5 -10 -11z"/>
<path d="M475 3410 c27 -12 43 -12 25 0 -8 5 -22 9 -30 9 -10 0 -8 -3 5 -9z"/>
<path d="M966 3331 c-4 -7 -5 -15 -2 -18 9 -9 19 4 14 18 -4 11 -6 11 -12 0z"/>
<path d="M682 3294 c-7 -8 -8 -14 -3 -14 10 0 25 19 20 25 -2 1 -10 -3 -17
-11z"/>
<path d="M1675 3280 c3 -5 8 -10 11 -10 2 0 4 5 4 10 0 6 -5 10 -11 10 -5 0
-7 -4 -4 -10z"/>
<path d="M1016 3248 c3 -5 10 -6 15 -3 13 9 11 12 -6 12 -8 0 -12 -4 -9 -9z"/>
<path d="M1610 3239 c0 -5 5 -7 10 -4 6 3 10 8 10 11 0 2 -4 4 -10 4 -5 0 -10
-5 -10 -11z"/>
<path d="M1635 3230 c-3 -5 1 -10 10 -10 10 0 13 -5 9 -12 -4 -7 -3 -8 5 -4 9
6 9 11 0 22 -14 17 -16 17 -24 4z"/>
<path d="M866 3052 c-2 -4 -1 -14 5 -22 7 -13 9 -12 9 2 0 9 6 19 13 21 7 3 6
6 -5 6 -9 1 -19 -3 -22 -7z"/>
<path d="M5460 2814 c0 -3 6 -12 14 -20 16 -15 32 -2 21 16 -7 11 -35 14 -35
4z"/>
<path d="M40 2801 c0 -6 4 -13 10 -16 6 -3 7 1 4 9 -7 18 -14 21 -14 7z"/>
<path d="M920 2710 c0 -5 7 -7 15 -4 8 4 15 8 15 10 0 2 -7 4 -15 4 -8 0 -15
-4 -15 -10z"/>
<path d="M991 2662 c-8 -15 -4 -19 24 -28 19 -6 32 -7 29 -2 -3 4 0 8 7 8 10
0 10 3 1 12 -10 10 -15 10 -22 -2 -9 -13 -10 -13 -11 0 -1 8 -1 18 0 23 2 14
-18 7 -28 -11z"/>
<path d="M960 2628 c0 -22 4 -25 21 -21 14 4 17 8 9 13 -7 4 -16 14 -21 21 -6
10 -9 6 -9 -13z"/>
<path d="M1056 2611 c-3 -5 3 -11 14 -14 13 -3 20 0 20 9 0 15 -26 19 -34 5z"/>
<path d="M1090 2560 c-9 -6 -10 -10 -3 -10 6 0 15 5 18 10 8 12 4 12 -15 0z"/>
<path d="M1120 2529 c0 -5 9 -9 20 -9 11 0 20 4 20 8 0 4 -9 8 -20 9 -11 1
-20 -2 -20 -8z"/>
<path d="M1123 2486 c2 -6 12 -11 22 -11 10 0 20 5 22 11 2 7 -7 12 -22 12
-15 0 -24 -5 -22 -12z"/>
<path d="M5011 2084 c0 -11 3 -14 6 -6 3 7 2 16 -1 19 -3 4 -6 -2 -5 -13z"/>
<path d="M4716 235 c4 -8 8 -15 10 -15 2 0 4 7 4 15 0 8 -4 15 -10 15 -5 0 -7
-7 -4 -15z"/>
<path d="M4596 112 c-4 -7 -1 -12 6 -12 10 0 10 -2 -1 -9 -7 -5 -12 -14 -10
-20 3 -9 9 -8 22 1 15 12 16 16 4 32 -10 13 -16 15 -21 8z"/>
<path d="M4642 88 c2 -17 9 -29 21 -32 14 -3 18 0 14 13 -2 11 1 18 9 18 8 0
14 -4 14 -8 0 -12 41 -22 100 -24 42 -2 51 0 38 8 -15 10 -15 12 0 23 15 12
14 12 -6 7 -12 -3 -25 -9 -28 -14 -3 -5 -10 -9 -15 -9 -6 0 -7 4 -4 10 4 7 -2
7 -19 1 -18 -7 -28 -6 -36 3 -14 17 -59 26 -66 14 -4 -6 -10 -5 -15 3 -6 10
-8 6 -7 -13z"/>
<path d="M4921 44 c0 -11 3 -14 6 -6 3 7 2 16 -1 19 -3 4 -6 -2 -5 -13z"/>
<path d="M4609 38 c-11 -8 -10 -9 4 -4 11 3 17 0 17 -9 0 -8 9 -15 20 -15 22
0 27 15 8 27 -19 11 -34 12 -49 1z"/>
<path d="M4890 40 c0 -5 5 -10 10 -10 6 0 10 5 10 10 0 6 -4 10 -10 10 -5 0
-10 -4 -10 -10z"/>
<path d="M4847 24 c4 -12 3 -15 -5 -10 -7 4 -19 3 -29 -2 -12 -7 -5 -10 28
-10 25 -1 38 2 30 7 -7 5 -12 12 -11 17 1 5 -3 10 -9 12 -7 2 -8 -3 -4 -14z"/>
<path d="M4350 10 c0 -6 7 -10 15 -10 8 0 15 2 15 4 0 2 -7 6 -15 10 -8 3 -15
1 -15 -4z"/>
<path d="M4690 10 c-13 -8 -12 -10 3 -10 9 0 17 5 17 10 0 12 -1 12 -20 0z"/>
</g>
</svg>
