<?xml version="1.0" encoding="UTF-8" standalone="no"?>
<!DOCTYPE svg PUBLIC "-//W3C//DTD SVG 1.1//EN" "http://www.w3.org/Graphics/SVG/1.1/DTD/svg11.dtd">
<svg version="1.1" xmlns="http://www.w3.org/2000/svg" xmlns:xlink="http://www.w3.org/1999/xlink" preserveAspectRatio="xMidYMid meet" viewBox="0 0 640 640" width="640" height="640"><defs><path d="M275.86 22.3C286.91 22.3 295.86 31.25 295.86 42.3C295.86 92.09 295.86 221.47 295.86 271.26C295.86 282.31 286.91 291.26 275.86 291.26C226.07 291.26 96.69 291.26 46.9 291.26C35.85 291.26 26.9 282.31 26.9 271.26C26.9 221.47 26.9 92.09 26.9 42.3C26.9 31.25 35.85 22.3 46.9 22.3C96.69 22.3 226.07 22.3 275.86 22.3Z" id="a2SddYlWN"></path><path d="M594.71 22.3C605.76 22.3 614.71 31.25 614.71 42.3C614.71 92.09 614.71 221.47 614.71 271.26C614.71 282.31 605.76 291.26 594.71 291.26C544.92 291.26 415.54 291.26 365.75 291.26C354.7 291.26 345.75 282.31 345.75 271.26C345.75 221.47 345.75 92.09 345.75 42.3C345.75 31.25 354.7 22.3 365.75 22.3C415.54 22.3 544.92 22.3 594.71 22.3Z" id="a2jxxoVv4o"></path><path d="M275.86 346.9C286.91 346.9 295.86 355.85 295.86 366.9C295.86 416.69 295.86 546.07 295.86 595.86C295.86 606.91 286.91 615.86 275.86 615.86C226.07 615.86 96.69 615.86 46.9 615.86C35.85 615.86 26.9 606.91 26.9 595.86C26.9 546.07 26.9 416.69 26.9 366.9C26.9 355.85 35.85 346.9 46.9 346.9C96.69 346.9 226.07 346.9 275.86 346.9Z" id="d94X07r0Iz"></path><path d="M594.71 346.9C605.76 346.9 614.71 355.85 614.71 366.9C614.71 416.69 614.71 546.07 614.71 595.86C614.71 606.91 605.76 615.86 594.71 615.86C544.92 615.86 415.54 615.86 365.75 615.86C354.7 615.86 345.75 606.91 345.75 595.86C345.75 546.07 345.75 416.69 345.75 366.9C345.75 355.85 354.7 346.9 365.75 346.9C415.54 346.9 544.92 346.9 594.71 346.9Z" id="am7skGpUl"></path></defs><g><g><g><use xlink:href="#a2SddYlWN" opacity="1" fill="#efefef" fill-opacity="1"></use></g><g><use xlink:href="#a2jxxoVv4o" opacity="1" fill="#efefef" fill-opacity="1"></use></g><g><use xlink:href="#d94X07r0Iz" opacity="1" fill="#efefef" fill-opacity="1"></use></g><g><use xlink:href="#am7skGpUl" opacity="1" fill="#efefef" fill-opacity="1"></use></g></g></g></svg>