<?xml version="1.0" standalone="no"?>
<!DOCTYPE svg PUBLIC "-//W3C//DTD SVG 20010904//EN" "http://www.w3.org/TR/2001/REC-SVG-20010904/DTD/svg10.dtd">
<svg xmlns="http://www.w3.org/2000/svg" version="1.0" width="512.000000pt" height="512.000000pt" viewBox="0 0 512.000000 512.000000" preserveAspectRatio="xMidYMid meet" fill="#efefef">

<g transform="translate(0.000000,512.000000) scale(0.100000,-0.100000)" fill="#efefef" stroke="none">
<path d="M1895 5113 c-61 -13 -84 -35 -286 -284 -161 -198 -215 -259 -236 -263 -16 -3 -157 -26 -314 -50 -157 -25 -294 -48 -305 -52 -37 -14 -72 -44 -88 -78 -9 -18 -36 -163 -61 -322 -25 -159 -48 -302 -51 -317 -4 -22 -63 -74 -263 -237 -181 -146 -262 -218 -271 -240 -26 -62 -15 -105 104 -412 l115 -298 -115 -297 c-119 -308 -130 -351 -104 -413 9 -23 89 -93 271 -241 199 -161 259 -215 263 -236 3 -16 26 -158 51 -317 25 -159 52 -304 61 -322 16 -34 51 -64 88 -78 10 -3 145 -26 300 -51 154 -25 296 -47 313 -50 28 -5 61 -41 242 -264 219 -269 234 -284 309 -284 24 0 148 42 340 116 l302 116 297 -115 c316 -123 358 -133 419 -101 19 10 115 119 238 271 178 220 211 256 239 261 17 3 159 25 313 50 155 25 290 48 300 51 37 14 72 44 87 77 12 23 117 623 117 663 0 2 116 97 258 213 183 148 263 218 272 241 26 62 15 105 -104 413 l-115 297 115 298 c119 307 130 350 104 412 -9 23 -89 93 -272 242 -142 115 -258 211 -258 212 0 40 -105 639 -116 662 -16 34 -50 64 -88 78 -10 3 -145 26 -300 51 -154 25 -296 47 -313 50 -28 5 -61 41 -239 261 -119 147 -219 261 -236 270 -61 32 -97 23 -415 -99 l-303 -116 -297 113 c-307 117 -334 126 -368 119z m307 -1289 c302 -78 450 -429 296 -701 -128 -228 -428 -311 -654 -182 -276 157 -327 534 -102 758 121 121 294 168 460 125z m1238 -5 c70 -40 101 -139 65 -209 -21 -40 -1590 -2238 -1624 -2273 -78 -85 -193 -75 -258 22 -29 44 -31 113 -3 159 30 48 1589 2233 1614 2261 57 63 137 79 206 40z m-278 -1595 c254 -65 409 -331 342 -586 -92 -357 -541 -478 -803 -217 -257 258 -146 696 204 800 75 22 179 24 257 3z"/>
<path d="M2045 3510 c-135 -30 -163 -210 -46 -283 102 -62 235 13 235 132 0 101 -91 174 -189 151z"/>
<path d="M2993 1909 c-44 -13 -90 -62 -103 -110 -41 -150 149 -259 259 -148 83 83 46 227 -67 259 -43 11 -46 11 -89 -1z"/>
</g>
</svg>
