<?xml version="1.0" encoding="UTF-8" standalone="no"?>
<!DOCTYPE svg PUBLIC "-//W3C//DTD SVG 1.1//EN" "http://www.w3.org/Graphics/SVG/1.1/DTD/svg11.dtd">
<svg version="1.1" xmlns="http://www.w3.org/2000/svg" xmlns:xlink="http://www.w3.org/1999/xlink" preserveAspectRatio="xMidYMid meet" viewBox="0 0 640 640" width="640" height="640"><defs><path d="M301.37 52.34L310.3 53.25L319.12 54.51L327.82 56.1L336.4 58.04L344.85 60.3L353.17 62.89L361.34 65.79L369.36 69L377.22 72.51L384.91 76.31L392.44 80.39L399.78 84.76L406.94 89.4L413.91 94.3L420.67 99.46L427.23 104.87L433.57 110.53L439.69 116.42L445.58 122.54L451.23 128.88L456.65 135.44L461.81 142.2L466.71 149.17L471.35 156.32L475.71 163.67L479.8 171.19L483.6 178.89L487.11 186.75L490.32 194.77L493.22 202.94L495.8 211.26L498.07 219.71L500 228.29L501.6 236.99L502.86 245.81L503.77 254.73L504.31 263.76L504.5 272.88L504.31 282L503.77 291.03L502.86 299.96L501.6 308.77L500 317.48L498.07 326.06L495.8 334.51L493.22 342.82L490.32 350.99L487.11 359.01L483.6 366.87L479.8 374.57L475.71 382.09L471.35 389.44L466.87 396.35L587.24 514.78L546.45 596.28L406.7 456.53L399.78 461L392.44 465.37L384.91 469.46L377.22 473.26L369.36 476.77L361.34 479.97L353.17 482.87L344.85 485.46L336.4 487.72L327.82 489.66L319.12 491.26L310.3 492.51L301.37 493.42L292.35 493.97L283.23 494.15L274.11 493.97L265.08 493.42L256.15 492.51L247.33 491.26L238.63 489.66L230.05 487.72L221.6 485.46L213.29 482.87L205.12 479.97L197.1 476.77L189.24 473.26L181.54 469.46L174.01 465.37L166.67 461L159.51 456.36L152.55 451.46L145.78 446.3L139.22 440.89L132.88 435.24L126.76 429.34L120.87 423.23L115.22 416.88L109.81 410.33L104.65 403.56L99.74 396.6L95.11 389.44L90.74 382.09L86.65 374.57L82.85 366.87L79.34 359.01L76.13 350.99L73.23 342.82L70.65 334.51L68.38 326.06L66.45 317.48L64.85 308.77L63.59 299.96L62.69 291.03L62.14 282L61.95 272.88L62.14 263.76L62.69 254.73L63.59 245.81L64.85 236.99L66.45 228.29L68.38 219.71L70.65 211.26L73.23 202.94L76.13 194.77L79.34 186.75L82.85 178.89L86.65 171.19L90.74 163.67L95.11 156.32L99.74 149.17L104.65 142.2L109.81 135.44L115.22 128.88L120.87 122.54L126.76 116.42L132.88 110.53L139.22 104.87L145.78 99.46L152.55 94.3L159.51 89.4L166.67 84.76L174.01 80.39L181.54 76.31L189.24 72.51L197.1 69L205.12 65.79L213.29 62.89L221.6 60.3L230.05 58.04L238.63 56.1L247.33 54.51L256.15 53.25L265.08 52.34L274.11 51.79L283.23 51.61L292.35 51.79L301.37 52.34ZM272.03 136.8L266.52 137.36L261.08 138.14L255.71 139.13L250.42 140.32L245.2 141.72L240.07 143.31L235.03 145.1L230.08 147.08L225.23 149.25L220.48 151.59L215.84 154.11L211.31 156.81L206.89 159.67L202.59 162.69L198.42 165.88L194.37 169.22L190.46 172.71L186.69 176.34L183.05 180.12L179.56 184.03L176.22 188.08L173.04 192.25L170.01 196.55L167.15 200.96L164.46 205.5L161.94 210.14L159.59 214.89L157.43 219.74L155.45 224.69L153.66 229.73L152.06 234.86L150.66 240.07L149.47 245.37L148.48 250.74L147.71 256.18L147.15 261.68L146.81 267.25L146.7 272.88L146.81 278.51L147.15 284.08L147.71 289.59L148.48 295.03L149.47 300.4L150.66 305.69L152.06 310.91L153.66 316.04L155.45 321.08L157.43 326.03L159.59 330.88L161.94 335.62L164.46 340.27L167.15 344.8L170.01 349.22L173.04 353.51L176.22 357.69L179.56 361.73L183.05 365.65L186.69 369.42L190.46 373.06L194.37 376.55L198.42 379.88L202.59 383.07L206.89 386.09L211.31 388.96L215.84 391.65L220.48 394.17L225.23 396.52L230.08 398.68L235.03 400.66L240.07 402.45L245.2 404.05L250.42 405.44L255.71 406.64L261.08 407.62L266.52 408.4L272.03 408.96L277.6 409.3L283.23 409.41L288.85 409.3L294.42 408.96L299.93 408.4L305.37 407.62L310.74 406.64L316.04 405.44L321.25 404.05L326.38 402.45L331.42 400.66L336.37 398.68L341.22 396.52L345.97 394.17L350.61 391.65L355.14 388.96L359.56 386.09L363.86 383.07L368.03 379.88L372.08 376.55L375.99 373.06L379.77 369.42L383.4 365.65L386.89 361.73L390.23 357.69L393.41 353.51L396.44 349.22L399.3 344.8L402 340.27L404.52 335.62L406.86 330.88L409.03 326.03L411.01 321.08L412.8 316.04L414.39 310.91L415.79 305.69L416.98 300.4L417.97 295.03L418.74 289.59L419.3 284.08L419.64 278.51L419.76 272.88L419.64 267.25L419.3 261.68L418.74 256.18L417.97 250.74L416.98 245.37L415.79 240.07L414.39 234.86L412.8 229.73L411.01 224.69L409.03 219.74L406.86 214.89L404.52 210.14L402 205.5L399.3 200.96L396.44 196.55L393.41 192.25L390.23 188.08L386.89 184.03L383.4 180.12L379.77 176.34L375.99 172.71L372.08 169.22L368.03 165.88L363.86 162.69L359.56 159.67L355.14 156.81L350.61 154.11L345.97 151.59L341.22 149.25L336.37 147.08L331.42 145.1L326.38 143.31L321.25 141.72L316.04 140.32L310.74 139.13L305.37 138.14L299.93 137.36L294.42 136.8L288.85 136.47L283.23 136.35L277.6 136.47L272.03 136.8Z" id="b1amZkc0C5"></path></defs><g><g><g><use xlink:href="#b1amZkc0C5" opacity="1" fill="#efefef" fill-opacity="1"></use></g></g></g></svg>